<?xml version="1.0" encoding="UTF-8"?>
<svg width="57px" height="55px" viewBox="0 0 57 55" version="1.1" xmlns="http://www.w3.org/2000/svg" xmlns:xlink="http://www.w3.org/1999/xlink">
    <!-- Generator: Sketch 43.1 (39012) - http://www.bohemiancoding.com/sketch -->
    <title>if_General_-_Office_09_1471081</title>
    <desc>Created with Sketch.</desc>
    <defs></defs>
    <g id="Page-1" stroke="none" stroke-width="1" fill="none" fill-rule="evenodd">
        <g id="if_General_-_Office_09_1471081" fill-rule="nonzero" fill="#266DD3">
            <path d="M17.682,25.397 L17.68,25.398 C17.678,25.4 17.678,25.402 17.678,25.402 C17.541,25.541 17.438,25.709 17.354,25.888 C17.331,25.933 17.315,25.974 17.297,26.021 C17.279,26.067 17.254,26.109 17.24,26.158 L13.232,40.984 C13.074,41.572 13.242,42.199 13.671,42.63 C13.995,42.953 14.429,43.128 14.872,43.128 C15.02,43.128 15.171,43.109 15.315,43.068 L29.571,39.215 C29.665,39.231 29.755,39.27 29.85,39.27 C30.286,39.27 30.721,39.104 31.053,38.772 L54.139,15.684 C55.369,14.453 56.049,12.816 56.049,11.075 C56.049,9.334 55.369,7.697 54.139,6.466 L49.985,2.312 C47.524,-0.151 43.225,-0.147 40.768,2.312 L17.682,25.397 L17.682,25.397 Z M43.174,4.715 C44.348,3.538 46.404,3.539 47.582,4.716 L51.736,8.869 C52.326,9.458 52.65,10.241 52.65,11.075 C52.65,11.909 52.326,12.691 51.736,13.281 L50.486,14.531 L41.922,5.968 L43.174,4.715 Z M39.518,8.372 L48.082,16.935 L29.852,35.166 L21.286,26.602 L39.518,8.372 Z M20.285,30.407 L26.422,36.545 L17.287,39.016 L19.756,29.88 L20.285,30.407 Z" id="Shape"></path>
            <rect id="Rectangle-path" transform="translate(35.162147, 21.291569) rotate(44.991897) translate(-35.162147, -21.291569) " x="33.4621636" y="13.7481413" width="3.39996743" height="15.0868555"></rect>
            <path d="M1.961,54.166 L47.701,54.166 C51.297,54.166 54.219,51.241 54.219,47.646 L54.219,24.628 L50.82,24.628 L50.82,47.647 C50.82,49.368 49.422,50.766 47.701,50.766 L3.662,50.766 L3.662,5.662 L32.674,5.662 L32.674,2.262 L1.961,2.262 C1.022,2.262 0.262,3.023 0.262,3.962 L0.262,52.465 C0.262,53.404 1.021,54.166 1.961,54.166 Z" id="Shape"></path>
        </g>
    </g>
</svg>