<?xml version="1.0" encoding="UTF-8"?>
<svg width="566px" height="163px" viewBox="0 0 566 163" version="1.1" xmlns="http://www.w3.org/2000/svg" xmlns:xlink="http://www.w3.org/1999/xlink">
    <!-- Generator: Sketch 43.1 (39012) - http://www.bohemiancoding.com/sketch -->
    <title>horizontal</title>
    <desc>Created with Sketch.</desc>
    <defs></defs>
    <g id="Page-1" stroke="none" stroke-width="1" fill="none" fill-rule="evenodd">
        <g id="logo-Josh---Outlined-mark" transform="translate(0.000000, -114.000000)">
            <g id="horizontal" transform="translate(0.000000, 114.000000)">
                <g id="JF" transform="translate(186.000000, 31.000000)" fill="#000000">
                    <path d="M13.781,48.339 C11.032,48.339 8.498,47.796 6.18,46.708 C3.862,45.621 1.965,44.093 0.488,42.123 L5.042,36.646 C7.421,39.928 10.273,41.57 13.596,41.57 C18.069,41.57 20.305,38.923 20.305,33.63 L20.305,11.352 L11.688,11.352 C7.984,11.352 4.98,8.348 4.98,4.644 L4.98,4.643 L28.305,4.643 L28.305,33.2 C28.305,38.246 27.074,42.031 24.613,44.554 C22.151,47.078 18.54,48.339 13.781,48.339" id="Fill-3"></path>
                    <path d="M52.307,48.155 C48.984,48.155 45.989,47.437 43.322,46.001 C40.655,44.565 38.573,42.565 37.075,40 C35.578,37.436 34.829,34.533 34.829,31.292 C34.829,28.05 35.578,25.158 37.075,22.614 C38.573,20.07 40.655,18.08 43.322,16.644 C45.989,15.208 48.984,14.49 52.307,14.49 C55.672,14.49 58.687,15.208 61.354,16.644 C64.021,18.08 66.103,20.07 67.601,22.614 C69.099,25.158 69.847,28.05 69.847,31.292 C69.847,34.533 69.099,37.436 67.601,40 C66.103,42.565 64.021,44.565 61.354,46.001 C58.687,47.437 55.672,48.155 52.307,48.155 Z M52.307,41.57 C55.138,41.57 57.477,40.626 59.323,38.739 C61.17,36.851 62.093,34.369 62.093,31.292 C62.093,28.215 61.17,25.732 59.323,23.845 C57.477,21.958 55.138,21.014 52.307,21.014 C49.476,21.014 47.148,21.958 45.322,23.845 C43.496,25.732 42.583,28.215 42.583,31.292 C42.583,34.369 43.496,36.851 45.322,38.739 C47.148,40.626 49.476,41.57 52.307,41.57 L52.307,41.57 Z" id="Fill-4"></path>
                    <path d="M86.156,48.155 C83.49,48.155 80.884,47.806 78.34,47.109 C75.797,46.411 73.766,45.529 72.248,44.462 L75.202,38.615 C76.679,39.6 78.453,40.39 80.525,40.985 C82.597,41.58 84.638,41.877 86.649,41.877 C91.244,41.877 93.542,40.667 93.542,38.246 C93.542,37.097 92.957,36.297 91.788,35.846 C90.618,35.395 88.741,34.964 86.156,34.554 C83.449,34.143 81.243,33.671 79.541,33.138 C77.838,32.605 76.361,31.671 75.109,30.338 C73.858,29.004 73.232,27.148 73.232,24.768 C73.232,21.65 74.535,19.157 77.14,17.291 C79.746,15.424 83.264,14.49 87.695,14.49 C89.952,14.49 92.208,14.747 94.465,15.26 C96.721,15.772 98.568,16.46 100.004,17.321 L97.05,23.168 C94.26,21.527 91.121,20.706 87.634,20.706 C85.377,20.706 83.664,21.045 82.495,21.722 C81.325,22.399 80.741,23.291 80.741,24.399 C80.741,25.63 81.366,26.502 82.618,27.014 C83.869,27.527 85.808,28.009 88.434,28.461 C91.059,28.871 93.213,29.343 94.896,29.876 C96.578,30.41 98.024,31.312 99.235,32.584 C100.445,33.856 101.05,35.661 101.05,38 C101.05,41.077 99.717,43.539 97.05,45.385 C94.383,47.232 90.752,48.155 86.156,48.155" id="Fill-5"></path>
                    <path d="M125.114,14.49 C129.258,14.49 132.581,15.701 135.084,18.121 C137.587,20.542 138.838,24.132 138.838,28.892 L138.838,47.724 L131.145,47.724 L131.145,29.876 C131.145,27.004 130.468,24.84 129.114,23.383 C127.76,21.927 125.832,21.199 123.329,21.199 C120.498,21.199 118.262,22.05 116.621,23.753 C114.979,25.455 114.159,27.907 114.159,31.107 L114.159,47.724 L106.466,47.724 L106.466,2.058 L114.159,2.058 L114.159,18.675 C115.431,17.321 117,16.285 118.867,15.567 C120.734,14.849 122.816,14.49 125.114,14.49" id="Fill-6"></path>
                    <path d="M171.887,11.352 L171.887,24.46 L190.689,24.46 L190.689,24.462 C190.689,26.257 189.976,27.979 188.706,29.248 C187.437,30.517 185.716,31.23 183.921,31.23 L171.887,31.23 L171.887,47.724 L163.886,47.724 L163.886,4.643 L195.335,4.643 C195.335,4.643 195.335,4.643 195.335,4.644 C195.335,8.348 192.332,11.352 188.627,11.352 L171.887,11.352" id="Fill-7"></path>
                    <path d="M200.505,47.724 L208.198,47.724 L208.198,14.86 L200.505,14.86 L200.505,47.724 Z M204.382,9.444 C202.987,9.444 201.818,9.003 200.874,8.121 C199.93,7.238 199.459,6.141 199.459,4.828 C199.459,3.515 199.93,2.417 200.874,1.535 C201.818,0.653 202.987,0.212 204.382,0.212 C205.777,0.212 206.946,0.633 207.89,1.474 C208.834,2.315 209.306,3.371 209.306,4.643 C209.306,5.997 208.844,7.136 207.921,8.059 C206.998,8.982 205.818,9.444 204.382,9.444 L204.382,9.444 Z" id="Fill-8"></path>
                    <path d="M227.215,48.155 C224.548,48.155 221.943,47.806 219.399,47.109 C216.855,46.411 214.824,45.529 213.306,44.462 L216.26,38.615 C217.737,39.6 219.512,40.39 221.584,40.985 C223.656,41.58 225.697,41.877 227.707,41.877 C232.302,41.877 234.6,40.667 234.6,38.246 C234.6,37.097 234.015,36.297 232.846,35.846 C231.677,35.395 229.8,34.964 227.215,34.554 C224.507,34.143 222.302,33.671 220.599,33.138 C218.896,32.605 217.419,31.671 216.168,30.338 C214.916,29.004 214.291,27.148 214.291,24.768 C214.291,21.65 215.593,19.157 218.199,17.291 C220.804,15.424 224.322,14.49 228.753,14.49 C231.01,14.49 233.267,14.747 235.523,15.26 C237.78,15.772 239.626,16.46 241.062,17.321 L238.108,23.168 C235.318,21.527 232.179,20.706 228.692,20.706 C226.435,20.706 224.722,21.045 223.553,21.722 C222.384,22.399 221.799,23.291 221.799,24.399 C221.799,25.63 222.425,26.502 223.676,27.014 C224.927,27.527 226.866,28.009 229.492,28.461 C232.118,28.871 234.272,29.343 235.954,29.876 C237.636,30.41 239.083,31.312 240.293,32.584 C241.503,33.856 242.108,35.661 242.108,38 C242.108,41.077 240.775,43.539 238.108,45.385 C235.441,47.232 231.81,48.155 227.215,48.155" id="Fill-9"></path>
                    <path d="M262.602,48.155 C259.197,48.155 256.14,47.437 253.432,46.001 C250.725,44.565 248.612,42.565 247.093,40 C245.575,37.436 244.816,34.533 244.816,31.292 C244.816,28.05 245.575,25.158 247.093,22.614 C248.612,20.07 250.714,18.08 253.402,16.644 C256.089,15.208 259.156,14.49 262.602,14.49 C265.844,14.49 268.685,15.147 271.126,16.46 C273.568,17.773 275.404,19.66 276.634,22.122 L270.726,25.568 C269.783,24.05 268.603,22.912 267.187,22.153 C265.772,21.393 264.223,21.014 262.541,21.014 C259.669,21.014 257.289,21.947 255.402,23.814 C253.515,25.681 252.571,28.174 252.571,31.292 C252.571,34.41 253.504,36.903 255.371,38.769 C257.238,40.636 259.628,41.57 262.541,41.57 C264.223,41.57 265.772,41.19 267.187,40.431 C268.603,39.672 269.783,38.533 270.726,37.015 L276.634,40.462 C275.363,42.924 273.506,44.821 271.065,46.155 C268.624,47.488 265.803,48.155 262.602,48.155" id="Fill-10"></path>
                    <path d="M300.39,14.49 C304.534,14.49 307.858,15.701 310.36,18.121 C312.863,20.542 314.115,24.132 314.115,28.892 L314.115,47.724 L306.422,47.724 L306.422,29.876 C306.422,27.004 305.745,24.84 304.391,23.383 C303.037,21.927 301.108,21.199 298.606,21.199 C295.775,21.199 293.538,22.05 291.897,23.753 C290.256,25.455 289.436,27.907 289.436,31.107 L289.436,47.724 L281.743,47.724 L281.743,2.058 L289.436,2.058 L289.436,18.675 C290.707,17.321 292.277,16.285 294.144,15.567 C296.01,14.849 298.093,14.49 300.39,14.49" id="Fill-11"></path>
                    <path d="M353.872,31.476 C353.872,32.01 353.831,32.769 353.749,33.754 L327.962,33.754 C328.413,36.174 329.593,38.092 331.501,39.508 C333.409,40.923 335.778,41.631 338.609,41.631 C342.22,41.631 345.194,40.441 347.533,38.062 L351.656,42.8 C350.179,44.565 348.312,45.898 346.056,46.801 C343.799,47.703 341.255,48.155 338.424,48.155 C334.814,48.155 331.634,47.437 328.885,46.001 C326.136,44.565 324.013,42.565 322.515,40 C321.018,37.436 320.269,34.533 320.269,31.292 C320.269,28.091 320.997,25.209 322.454,22.645 C323.91,20.081 325.931,18.08 328.516,16.644 C331.101,15.208 334.014,14.49 337.255,14.49 C340.455,14.49 343.317,15.198 345.84,16.614 C348.364,18.029 350.333,20.019 351.749,22.583 C353.164,25.148 353.872,28.112 353.872,31.476 Z M337.255,20.645 C334.793,20.645 332.711,21.373 331.008,22.83 C329.306,24.286 328.27,26.225 327.9,28.645 L346.548,28.645 C346.22,26.266 345.215,24.337 343.533,22.86 C341.85,21.383 339.758,20.645 337.255,20.645 L337.255,20.645 Z" id="Fill-12"></path>
                    <path d="M367.35,19.66 C369.566,16.214 373.463,14.49 379.043,14.49 L379.043,21.814 C378.387,21.691 377.792,21.629 377.259,21.629 C374.263,21.629 371.925,22.501 370.243,24.245 C368.56,25.989 367.719,28.502 367.719,31.784 L367.719,47.724 L360.026,47.724 L360.026,14.86 L367.35,14.86 L367.35,19.66" id="Fill-13"></path>
                </g>
                <path d="M131,35 L131,35.0009873 C130.949419,43.4837259 124.026808,50.3334979 115.50545,50.3334979 L83.0445507,50.3334979 L83.0445507,35 C78.9594164,35 75.0418927,36.6161829 72.1528429,39.491152 C69.2647849,42.3671084 67.6422359,46.2668777 67.6422359,50.3334979 L83.0445507,50.3334979 L83.0445507,65.6669958 L67.6422359,65.6669958 L67.6422359,81.0004936 L83.0445507,81.0004936 L83.0445507,111.666502 C83.0445507,111.666502 83.0445507,111.666502 83.0445507,111.667489 L83.0445507,111.668477 C83.0445507,115.73411 81.4220016,119.633879 78.5339436,122.509835 C75.6448938,125.384804 71.7273701,127 67.6432276,127 L67.6422359,127 C71.7273701,127 75.6448938,125.384804 78.5339436,122.508848 C81.4220016,119.633879 83.0445507,115.73411 83.0445507,111.667489 L83.0445507,111.666502 L67.6422359,111.666502 L67.6422359,50.3325106 C67.6422359,46.2658904 69.2647849,42.3661212 72.1528429,39.491152 C75.0409009,36.6161829 78.9584247,35 83.0435589,35 L131,35 Z M67.6422359,111.666502 L67.6422359,127 L46.4945502,127 C37.9731922,127 31.0515725,120.150228 31,111.667489 L31,111.666502 L67.6422359,111.666502 Z M83.0445507,65.6669958 L114.764592,65.6669958 C114.764592,65.6669958 114.764592,65.6669958 114.764592,65.667983 C114.714011,74.1507217 107.791399,81.0004936 99.2700414,81.0004936 L83.0445507,81.0004936 L83.0445507,65.6669958 L83.0445507,65.6669958 Z" id="Fill-2" fill="#266DD3"></path>
                <path d="M81.7638247,0.000991828067 L82.0266575,0.00198365613 L82.2894903,0.00396731227 L82.5523232,0.00694279647 L82.815156,0.0109101087 L83.0779889,0.014877421 L83.3398299,0.0208283894 L83.6026627,0.0267793578 L83.8645037,0.0337221543 L84.1253529,0.0416567788 L84.3871939,0.0505832314 L84.6480431,0.0605015121 L84.9098841,0.0704197928 L85.1707333,0.0813299015 L85.4305907,0.0932318383 L85.6914399,0.106125603 L85.9512973,0.120011196 L86.2111547,0.133896789 L86.471012,0.149766038 L86.7308694,0.165635287 L86.9897349,0.182496364 L87.2495923,0.20034927 L87.5084579,0.219194003 L87.7673234,0.238038736 L88.0251971,0.257875297 L88.2830709,0.278703687 L88.5419364,0.300523904 L88.7988183,0.32333595 L89.0566921,0.346147995 L89.3145658,0.370943697 L89.5714477,0.395739399 L89.8283296,0.421526928 L90.0842197,0.447314458 L90.3411016,0.475085644 L90.5969917,0.50285683 L90.8528818,0.531619844 L91.1087718,0.561374686 L91.3636701,0.592121356 L91.6195602,0.623859854 L91.8744585,0.655598352 L92.1283649,0.688328678 L92.3832632,0.722050833 L92.891076,0.791478797 L93.1449825,0.827184608 L93.3988889,0.863882246 L93.6518035,0.901571713 L93.9047182,0.940253007 L94.1576328,0.978934302 L94.4095556,1.01860742 L94.6624702,1.05927238 L94.914393,1.10092915 L95.165324,1.14258593 L95.4172468,1.18622637 L95.6681777,1.2298668 L95.9191087,1.27449907 L96.1700397,1.31913133 L96.669918,1.41236317 L96.9198571,1.45997091 L97.1697963,1.50757866 L97.4187436,1.55717007 L97.6676909,1.60676147 L97.9166383,1.6573447 L98.1645938,1.70891976 L98.4135411,1.76049482 L98.6614966,1.81306171 L98.9084603,1.86662042 L99.1564158,1.92117097 L99.4033795,1.97671334 L99.6503432,2.03225571 L99.896315,2.08878991 L100.388259,2.20384196 L100.634231,2.26235982 L100.879211,2.32286133 L101.124191,2.38237102 L101.369171,2.44386436 L101.614151,2.5053577 L101.858139,2.56784287 L102.102127,2.63131986 L102.345124,2.69479686 L102.589112,2.75926568 L102.832108,2.82472633 L103.075105,2.89117882 L103.317109,2.95862312 L103.559114,3.02606743 L103.801118,3.09450357 L104.042131,3.16293971 L104.284136,3.2333595 L104.524157,3.30377929 L104.765169,3.37519091 L105.00519,3.44660253 L105.245211,3.51900598 L105.485232,3.59240126 L105.724261,3.66678836 L106.20232,3.81754623 L106.440357,3.89391699 L106.678394,3.97028775 L106.916431,4.04765034 L107.153477,4.12600476 L107.390522,4.205351 L107.627568,4.28568908 L107.864613,4.36602715 L108.100667,4.44735705 L108.335729,4.52868695 L108.571782,4.61200051 L108.806844,4.69531407 L109.041906,4.77862763 L109.275976,4.86392484 L109.510046,4.94922205 L109.744116,5.0355111 L109.977194,5.12180014 L110.211264,5.20908101 L110.443351,5.29735371 L110.676429,5.38661823 L110.908515,5.47588276 L111.13961,5.56613911 L111.371696,5.65738729 L111.60279,5.74863548 L111.833885,5.84087549 L112.063988,5.93410732 L112.29409,6.02733916 L112.523201,6.12156283 L112.753304,6.21677832 L112.982415,6.31298565 L113.210534,6.40919297 L113.666772,6.60359127 L113.894891,6.70277408 L114.122018,6.80096505 L114.349146,6.90113969 L114.575281,7.00131432 L114.801417,7.10248079 L115.027552,7.20463908 L115.252696,7.30679737 L115.477839,7.40994749 L115.701991,7.51309761 L115.927135,7.61823138 L116.150295,7.72336516 L116.374446,7.82849893 L116.597606,7.93462454 L116.820766,8.04174197 L117.042934,8.14985123 L117.265102,8.25796049 L117.486279,8.36706157 L117.708447,8.47715449 L117.928631,8.5872474 L118.149808,8.69833215 L118.369992,8.80941689 L118.589185,8.92149346 L118.809369,9.03456186 L119.028562,9.14862209 L119.246763,9.26268232 L119.464964,9.37773437 L119.683165,9.49278643 L119.900374,9.60883031 L120.117583,9.72586602 L120.334792,9.84290174 L120.551009,9.96092928 L120.766234,10.0799486 L120.982451,10.198968 L121.197677,10.3189792 L121.41191,10.4389904 L121.626144,10.5599934 L121.840378,10.6819883 L122.053619,10.804975 L122.479111,11.0509483 L122.903611,11.300889 L123.326127,11.5518215 L123.747651,11.8067213 L124.1662,12.0626129 L124.583757,12.3214801 L125.000322,12.5833227 L125.413912,12.847149 L125.82651,13.1139507 L126.237125,13.3827361 L126.646747,13.6535052 L127.054386,13.9272497 L127.460041,14.2029779 L127.863713,14.4816816 L128.265401,14.7623689 L128.666097,15.0450399 L129.064809,15.3306864 L129.461538,15.6183166 L129.856283,15.9079304 L130.250037,16.2005196 L130.640814,16.4950926 L131.0306,16.7916492 L131.418403,17.0911812 L131.804222,17.392697 L132.188057,17.6961964 L132.569908,18.0016794 L132.950768,18.3101379 L133.328652,18.6205801 L133.705544,18.933006 L134.079461,19.2484073 L134.452386,19.5648004 L134.823328,19.8841691 L135.192286,20.2055214 L135.55926,20.5298492 L135.92425,20.8551688 L136.286265,21.1834639 L136.647289,21.5127508 L137.006328,21.8450132 L137.363384,22.1792592 L137.718456,22.5154889 L138.071545,22.8546941 L138.421658,23.1948912 L138.77078,23.5380637 L139.117917,23.882228 L139.46208,24.2293678 L139.80525,24.5774995 L140.145445,24.9286066 L140.484648,25.2816974 L140.820876,25.6367719 L141.15512,25.99383 L141.48738,26.3528717 L141.816665,26.7138972 L142.144958,27.0759144 L142.470276,27.4409071 L142.794602,27.8078835 L143.115952,28.1768436 L143.435319,28.5477872 L143.75171,28.9197228 L144.067109,29.2946338 L144.379533,29.6715284 L144.689973,30.0494149 L144.99843,30.4302769 L145.303911,30.8121307 L145.607409,31.1959682 L145.908923,31.5817893 L146.208453,31.9695941 L146.505008,32.3593825 L146.799579,32.7501628 L147.092166,33.1439185 L147.381778,33.5386661 L147.669407,33.9353973 L147.955052,34.3341122 L148.237721,34.7348107 L148.518407,35.1365011 L148.797109,35.5401751 L149.072835,35.9458328 L149.346578,36.3534741 L149.617345,36.7621073 L149.886129,37.1737159 L150.152929,37.5863164 L150.416754,37.9999087 L150.678595,38.4164765 L150.93746,38.8340361 L151.193351,39.2525876 L151.448249,39.6741145 L151.69918,40.0966333 L151.949119,40.5201438 L152.318077,41.1598729 L152.440071,41.3741078 L152.561073,41.5883427 L152.681084,41.8025775 L152.801094,42.0178042 L152.920113,42.2340227 L153.039131,42.4492494 L153.157158,42.665468 L153.391228,43.0998886 L153.507271,43.317099 L153.737374,43.7535033 L153.851434,43.9717055 L153.965493,44.1908995 L154.078561,44.4100935 L154.190637,44.6302794 L154.301721,44.8504652 L154.412805,45.0716428 L154.522897,45.2918287 L154.632989,45.5130063 L154.74209,45.7351758 L154.958307,46.1795148 L155.064432,46.4026761 L155.171549,46.6258374 L155.276682,46.8489987 L155.381815,47.0731519 L155.485956,47.297305 L155.590098,47.52245 L155.693247,47.747595 L155.795405,47.9727399 L155.897562,48.1988767 L155.998728,48.4250135 L156.098902,48.6511503 L156.199076,48.878279 L156.297267,49.1054076 L156.396449,49.333528 L156.590846,49.789769 L156.687053,50.0178894 L156.78326,50.2470017 L156.877483,50.476114 L156.972698,50.7062181 L157.15916,51.1664263 L157.2514,51.3975223 L157.433895,51.8597141 L157.524151,52.0918019 L157.613415,52.3238897 L157.702679,52.5569693 L157.790951,52.789057 L157.878231,53.0221366 L158.050808,53.4902795 L158.221401,53.9584223 L158.471341,54.6636121 L158.633999,55.1357222 L158.714337,55.3727691 L158.794675,55.6088242 L158.873029,55.846863 L158.951382,56.0839099 L159.029736,56.3219486 L159.182477,56.7980261 L159.333234,57.2760872 L159.407621,57.5151178 L159.481015,57.7551402 L159.553418,57.9951626 L159.62483,58.2351849 L159.696241,58.4761992 L159.76666,58.7162216 L159.83708,58.9582276 L159.905515,59.1992418 L159.973951,59.4412479 L160.108839,59.92526 L160.30522,60.6542536 L160.432173,61.142233 L160.494658,61.3862227 L160.617643,61.8761858 L160.736662,62.3661488 L160.796171,62.6121222 L160.911223,63.1040689 L160.967757,63.3500423 L161.078841,63.8439727 L161.133391,64.0919297 L161.186949,64.3388949 L161.239516,64.5868519 L161.291091,64.8358007 L161.342665,65.0837578 L161.393248,65.3327066 L161.492431,65.8306043 L161.587645,66.3304856 L161.680877,66.830367 L161.770141,67.332232 L161.813781,67.5831645 L161.856429,67.8350888 L161.899078,68.0860213 L161.940734,68.3379456 L161.981399,68.5908618 L162.021072,68.8427861 L162.098434,69.3486184 L162.136123,69.6015346 L162.17282,69.8554426 L162.208526,70.1093506 L162.277954,70.6171665 L162.311676,70.8710745 L162.344406,71.1259743 L162.376144,71.3808741 L162.407882,71.6367658 L162.438629,71.8916656 L162.467392,72.1475572 L162.497146,72.4034489 L162.524917,72.6593405 L162.578476,73.1721156 L162.604263,73.4289991 L162.629059,73.6858826 L162.653854,73.9437579 L162.699478,74.4585166 L162.721298,74.7163919 L162.742126,74.9752591 L162.761963,75.2331344 L162.799652,75.7508686 L162.817505,76.0097357 L162.834366,76.2695947 L162.850235,76.5294536 L162.865112,76.7883208 L162.87999,77.0491715 L162.893875,77.3090305 L162.906769,77.5698813 L162.918671,77.8297402 L162.929581,78.090591 L162.949417,78.6132844 L162.958343,78.8741352 L162.966278,79.1359778 L162.973221,79.3978204 L162.985123,79.9224975 L162.993057,80.4471745 L162.996033,80.7110008 L162.998016,80.9738352 L163,81.5004959 L162.998016,82.0271566 L162.996033,82.2899911 L162.993057,82.5528255 L162.985123,83.0784944 L162.973221,83.6021796 L162.966278,83.8640222 L162.958343,84.1258648 L162.949417,84.3877074 L162.929581,84.909409 L162.918671,85.1702598 L162.906769,85.4311105 L162.893875,85.6919613 L162.87999,85.9518203 L162.850235,86.4715382 L162.834366,86.7313971 L162.817505,86.9902643 L162.799652,87.2491314 L162.761963,87.7668656 L162.742126,88.0257328 L162.721298,88.2836081 L162.699478,88.5414834 L162.653854,89.057234 L162.604263,89.5710009 L162.578476,89.8278844 L162.524917,90.3416513 L162.497146,90.5975429 L162.467392,90.8534346 L162.438629,91.1093262 L162.407882,91.364226 L162.344406,91.8740257 L162.311676,92.1289255 L162.277954,92.3838253 L162.208526,92.8916413 L162.17282,93.1455492 L162.136123,93.3984654 L162.098434,93.6523734 L162.021072,94.1582057 L161.981399,94.41013 L161.940734,94.6620544 L161.899078,94.9139787 L161.813781,95.4168355 L161.770141,95.6687598 L161.725509,95.9196924 L161.680877,96.169633 L161.634261,96.4205655 L161.587645,96.6705062 L161.540038,96.9204469 L161.492431,97.1693957 L161.442839,97.4193364 L161.393248,97.6682852 L161.342665,97.9172341 L161.239516,98.4131481 L161.186949,98.6611051 L161.133391,98.9090621 L161.078841,99.1560273 L160.967757,99.6499577 L160.911223,99.8969229 L160.796171,100.38887 L160.736662,100.634843 L160.617643,101.124806 L160.556151,101.369788 L160.494658,101.613777 L160.432173,101.858759 L160.368696,102.102749 L160.30522,102.345746 L160.239759,102.589736 L160.174299,102.832734 L160.108839,103.07474 L160.041395,103.317738 L159.973951,103.559744 L159.905515,103.80175 L159.83708,104.042764 L159.696241,104.524793 L159.62483,104.765807 L159.553418,105.005829 L159.481015,105.245852 L159.407621,105.485874 L159.333234,105.724905 L159.182477,106.202966 L159.029736,106.679043 L158.951382,106.917082 L158.794675,107.391176 L158.714337,107.628223 L158.633999,107.864278 L158.471341,108.336388 L158.388028,108.572443 L158.304715,108.807506 L158.221401,109.041578 L158.136105,109.276641 L158.050808,109.510712 L157.96452,109.744784 L157.878231,109.977863 L157.790951,110.210943 L157.702679,110.444023 L157.524151,110.908198 L157.433895,111.140286 L157.342647,111.372374 L157.2514,111.60347 L157.15916,111.833574 L157.065929,112.06467 L156.972698,112.294774 L156.877483,112.523886 L156.78326,112.752998 L156.590846,113.211223 L156.396449,113.667464 L156.297267,113.894592 L156.199076,114.122713 L156.098902,114.34885 L155.998728,114.575978 L155.897562,114.802115 L155.795405,115.02726 L155.693247,115.253397 L155.590098,115.478542 L155.381815,115.926848 L155.171549,116.375154 L155.064432,116.598316 L154.958307,116.820485 L154.850198,117.043647 L154.74209,117.265816 L154.632989,117.486994 L154.412805,117.929349 L154.301721,118.150527 L154.190637,118.370712 L154.078561,118.589906 L153.965493,118.8091 L153.851434,119.028294 L153.737374,119.247488 L153.507271,119.683893 L153.391228,119.901103 L153.274193,120.118314 L153.157158,120.334532 L153.039131,120.550751 L152.920113,120.766969 L152.801094,120.982196 L152.561073,121.412649 L152.440071,121.626884 L152.318077,121.841119 L152.195091,122.054362 L151.949119,122.479856 L151.69918,122.904359 L151.448249,123.326877 L151.193351,123.747412 L150.93746,124.166956 L150.678595,124.584515 L150.416754,125.000091 L150.152929,125.414675 L149.886129,125.827276 L149.617345,126.237893 L149.346578,126.647518 L149.072835,127.054167 L148.797109,127.459825 L148.518407,127.864491 L148.237721,128.266181 L147.955052,128.66688 L147.669407,129.065595 L147.381778,129.462326 L147.092166,129.857073 L146.799579,130.249837 L146.505008,130.641609 L146.208453,131.031398 L145.908923,131.419203 L145.607409,131.805024 L145.303911,132.188861 L144.99843,132.570715 L144.689973,132.951577 L144.379533,133.329463 L144.067109,133.706358 L143.75171,134.080277 L143.435319,134.453205 L143.115952,134.824148 L142.794602,135.193108 L142.470276,135.559093 L142.144958,135.924086 L141.816665,136.287095 L141.48738,136.64812 L141.15512,137.007162 L140.820876,137.36422 L140.484648,137.719294 L140.145445,138.071393 L139.80525,138.422501 L139.46208,138.771624 L139.117917,139.118764 L138.77078,139.462928 L138.421658,139.806101 L138.071545,140.146298 L137.718456,140.484511 L137.363384,140.820741 L137.006328,141.154987 L136.647289,141.487249 L136.286265,141.817528 L135.92425,142.145823 L135.55926,142.471143 L135.192286,142.794479 L134.823328,143.115831 L134.452386,143.4352 L134.079461,143.752585 L133.705544,144.066994 L133.328652,144.380412 L132.950768,144.690854 L132.569908,144.998321 L132.188057,145.304795 L131.804222,145.608295 L131.418403,145.909811 L131.0306,146.209343 L130.640814,146.505899 L130.250037,146.800472 L129.856283,147.093061 L129.461538,147.382675 L129.064809,147.670305 L128.666097,147.955952 L128.265401,148.238623 L127.863713,148.51931 L127.460041,148.798014 L127.054386,149.073742 L126.646747,149.347487 L126.237125,149.618256 L125.82651,149.887041 L125.413912,150.152851 L125.000322,150.417669 L124.583757,150.67852 L124.1662,150.937387 L123.747651,151.194271 L123.326127,151.448179 L122.903611,151.700103 L122.479111,151.949052 L122.053619,152.196017 L121.840378,152.318012 L121.626144,152.440007 L121.197677,152.682013 L120.982451,152.802024 L120.766234,152.921043 L120.551009,153.040063 L120.334792,153.15809 L120.117583,153.275126 L119.900374,153.392162 L119.683165,153.508205 L119.464964,153.623257 L119.246763,153.73831 L119.028562,153.85237 L118.809369,153.965438 L118.589185,154.078507 L118.369992,154.190583 L118.149808,154.30266 L117.928631,154.413744 L117.708447,154.523837 L117.486279,154.63393 L117.265102,154.74204 L117.042934,154.851141 L116.820766,154.958258 L116.597606,155.065375 L116.374446,155.171501 L116.150295,155.277627 L115.927135,155.38276 L115.701991,155.486902 L115.477839,155.591044 L115.252696,155.694194 L115.027552,155.796353 L114.801417,155.898511 L114.575281,155.998686 L114.349146,156.099852 L114.122018,156.199035 L113.894891,156.298218 L113.666772,156.396409 L113.438653,156.4946 L113.210534,156.591799 L112.982415,156.688006 L112.753304,156.783222 L112.523201,156.878437 L112.29409,156.972661 L112.063988,157.066885 L111.833885,157.159125 L111.60279,157.252356 L111.371696,157.343605 L111.13961,157.434853 L110.908515,157.525109 L110.676429,157.614374 L110.443351,157.702646 L110.211264,157.790919 L109.977194,157.879192 L109.744116,157.965481 L109.510046,158.05177 L109.275976,158.137067 L109.041906,158.221372 L108.806844,158.305678 L108.571782,158.388991 L108.335729,158.471313 L108.100667,158.553635 L107.864613,158.634965 L107.627568,158.715303 L107.390522,158.794649 L107.153477,158.873995 L106.916431,158.95235 L106.678394,159.030704 L106.440357,159.107075 L106.20232,159.183446 L105.96329,159.258825 L105.724261,159.334203 L105.485232,159.407599 L105.245211,159.480994 L105.00519,159.554389 L104.765169,159.625801 L104.524157,159.697213 L104.284136,159.767632 L104.042131,159.83706 L103.801118,159.906488 L103.559114,159.974924 L103.317109,160.042369 L103.075105,160.108821 L102.832108,160.175274 L102.589112,160.240734 L102.345124,160.305203 L102.102127,160.369672 L101.858139,160.433149 L101.614151,160.495634 L101.369171,160.557127 L101.124191,160.617629 L100.879211,160.67813 L100.634231,160.73764 L100.388259,160.796158 L100.142287,160.854676 L99.896315,160.912202 L99.6503432,160.968736 L99.1564158,161.079821 L98.9084603,161.13338 L98.6614966,161.186938 L98.4135411,161.240497 L98.1645938,161.292072 L97.9166383,161.343647 L97.6676909,161.39423 L97.4187436,161.443822 L97.1697963,161.492421 L96.9198571,161.541021 L96.669918,161.588629 L96.4199788,161.635245 L96.1700397,161.680869 L95.9191087,161.726493 L95.6681777,161.771125 L95.4172468,161.814765 L95.165324,161.857414 L94.914393,161.900063 L94.6624702,161.940728 L94.4095556,161.981393 L94.1576328,162.022058 L93.9047182,162.060739 L93.6518035,162.09942 L93.3988889,162.136118 L93.1449825,162.172815 L92.891076,162.209513 L92.6371696,162.244227 L92.3832632,162.278941 L92.1283649,162.312663 L91.8744585,162.345393 L91.6195602,162.377132 L91.3636701,162.40887 L91.1087718,162.438625 L90.8528818,162.46838 L90.5969917,162.497143 L90.3411016,162.525906 L90.0842197,162.552686 L89.8283296,162.579465 L89.5714477,162.605252 L89.3145658,162.630048 L89.0566921,162.653852 L88.7988183,162.677656 L88.5419364,162.699476 L88.2830709,162.721296 L88.0251971,162.742125 L87.7673234,162.762953 L87.5084579,162.781798 L87.2495923,162.800643 L86.9897349,162.818495 L86.7308694,162.835357 L86.471012,162.851226 L86.2111547,162.866103 L85.9512973,162.880981 L85.6914399,162.893874 L85.4305907,162.906768 L85.1707333,162.91867 L84.9098841,162.930572 L84.6480431,162.94049 L84.3871939,162.950409 L84.1253529,162.959335 L83.8645037,162.966278 L83.6026627,162.974212 L83.3398299,162.980163 L83.0779889,162.985123 L82.815156,162.990082 L82.5523232,162.994049 L82.2894903,162.997025 L82.0266575,162.999008 L81.7638247,163 L81.2361753,163 L80.9733425,162.999008 L80.7105097,162.997025 L80.4476768,162.994049 L80.184844,162.990082 L79.9220111,162.985123 L79.6601701,162.980163 L79.3983291,162.974212 L79.1364881,162.966278 L78.8746471,162.959335 L78.6128061,162.950409 L78.3519569,162.94049 L78.0911077,162.930572 L77.8302585,162.91867 L77.5694093,162.906768 L77.3085601,162.893874 L77.0487027,162.880981 L76.7888453,162.866103 L76.528988,162.851226 L76.2691306,162.835357 L76.0102651,162.818495 L75.7504077,162.800643 L75.4915421,162.781798 L75.2336684,162.762953 L74.9748029,162.742125 L74.7169291,162.721296 L74.4590554,162.699476 L74.2011817,162.677656 L73.9433079,162.653852 L73.686426,162.630048 L73.4285523,162.605252 L73.1726622,162.579465 L72.9157803,162.552686 L72.6588984,162.525906 L72.4030083,162.497143 L72.1471182,162.46838 L71.8912282,162.438625 L71.6363299,162.40887 L71.3814316,162.377132 L71.1255415,162.345393 L70.8716351,162.312663 L70.6167368,162.278941 L70.3628304,162.244227 L70.108924,162.209513 L69.8550175,162.172815 L69.6021029,162.136118 L69.3481965,162.09942 L69.0952818,162.060739 L68.8423672,162.022058 L68.3385216,161.940728 L68.0865988,161.900063 L67.5827532,161.814765 L67.3318223,161.771125 L67.0808913,161.726493 L66.8309521,161.680869 L66.5800212,161.635245 L66.330082,161.588629 L66.0801429,161.541021 L65.8311955,161.492421 L65.5812564,161.443822 L65.3323091,161.39423 L65.0833617,161.343647 L64.8354062,161.292072 L64.5874507,161.240497 L64.3394952,161.186938 L64.0915397,161.13338 L63.844576,161.079821 L63.3506486,160.968736 L63.103685,160.912202 L62.8577131,160.854676 L62.6117412,160.796158 L62.3657694,160.73764 L62.1207893,160.67813 L61.8758093,160.617629 L61.6308292,160.557127 L61.3858492,160.495634 L61.141861,160.433149 L60.8978728,160.369672 L60.6548764,160.305203 L60.4108881,160.240734 L60.1678917,160.175274 L59.9258872,160.108821 L59.6828908,160.042369 L59.4408862,159.974924 L59.1988816,159.906488 L58.9578689,159.83706 L58.7168561,159.767632 L58.4758434,159.697213 L58.2348306,159.625801 L57.9948097,159.554389 L57.7547887,159.480994 L57.5147678,159.407599 L57.2757387,159.334203 L57.0367096,159.258825 L56.7976805,159.183446 L56.5596432,159.107075 L56.3216059,159.030704 L56.0835686,158.95235 L55.8465231,158.873995 L55.6094777,158.794649 L55.3724322,158.715303 L55.1363786,158.634965 L54.9003249,158.553635 L54.6642713,158.471313 L54.4282176,158.388991 L54.1931558,158.305678 L53.958094,158.221372 L53.724024,158.137067 L53.489954,158.05177 L53.255884,157.965481 L53.0228058,157.879192 L52.7897276,157.790919 L52.5566495,157.702646 L52.3235713,157.614374 L52.0914849,157.525109 L51.8603904,157.434853 L51.628304,157.343605 L51.3972095,157.252356 L51.1671068,157.159125 L50.9360123,157.066885 L50.7059096,156.972661 L50.4767987,156.878437 L50.246696,156.783222 L50.0185769,156.688006 L49.789466,156.591799 L49.5613469,156.4946 L49.3332279,156.396409 L49.1051088,156.298218 L48.8779816,156.199035 L48.6518461,156.099852 L48.4247189,155.998686 L48.1985835,155.898511 L47.9734399,155.796353 L47.7473044,155.694194 L47.5221608,155.591044 L47.2980091,155.486902 L47.0738573,155.38276 L46.8497055,155.277627 L46.6255537,155.171501 L46.4023938,155.065375 L46.1802256,154.958258 L45.9570657,154.851141 L45.7348975,154.74204 L45.5137212,154.63393 L45.2925449,154.523837 L45.0713686,154.413744 L44.8501923,154.30266 L44.6300078,154.190583 L44.4108151,154.078507 L44.1906306,153.965438 L43.9724298,153.85237 L43.7532371,153.73831 L43.5350363,153.623257 L43.3168354,153.508205 L43.0996264,153.392162 L42.8824174,153.275126 L42.6662002,153.15809 L42.449983,153.040063 L42.2337658,152.921043 L42.0185404,152.802024 L41.803315,152.682013 L41.5880896,152.56101 L41.3738561,152.440007 L41.1596225,152.318012 L40.9463808,152.196017 L40.5208891,151.949052 L40.0963893,151.700103 L39.6738731,151.448179 L39.2533406,151.194271 L38.8337998,150.937387 L38.4162428,150.67852 L38.0006693,150.417669 L37.5860877,150.152851 L37.1734898,149.887041 L36.7628754,149.618256 L36.3532529,149.347487 L35.9466059,149.073742 L35.5409507,148.798014 L35.1362873,148.51931 L34.7345994,148.238623 L34.3339033,147.955952 L33.9351908,147.670305 L33.538462,147.382675 L33.1437168,147.093061 L32.7509553,146.800472 L32.3591856,146.505899 L31.9693996,146.209343 L31.5815971,145.909811 L31.1957784,145.608295 L30.8119432,145.304795 L30.4300918,144.998321 L30.0492321,144.690854 L29.6713479,144.380412 L29.2944555,144.066994 L28.9205386,143.752585 L28.5476135,143.4352 L28.1766721,143.115831 L27.8077143,142.794479 L27.441732,142.471143 L27.0767415,142.145823 L26.7137346,141.817528 L26.3527114,141.487249 L25.9936718,141.154987 L25.6366159,140.820741 L25.2815436,140.484511 L24.9284549,140.146298 L24.5783418,139.806101 L24.2292204,139.462928 L23.8820827,139.118764 L23.5379205,138.771624 L23.19475,138.422501 L22.8545551,138.071393 L22.5163438,137.719294 L22.1791243,137.36422 L21.8448803,137.007162 L21.5136117,136.64812 L21.183335,136.287095 L20.8550419,135.924086 L20.5297242,135.559093 L20.2063903,135.193108 L19.8840481,134.824148 L19.5656732,134.453205 L19.2482902,134.080277 L18.9338826,133.706358 L18.6204668,133.329463 L18.3100265,132.951577 L18.0025617,132.570715 L17.6960887,132.188861 L17.3925912,131.805024 L17.0910773,131.419203 L16.791547,131.031398 L16.4949922,130.641609 L16.2004211,130.249837 L15.9078336,129.857073 L15.6182215,129.462326 L15.3305931,129.065595 L15.0449484,128.66688 L14.7622791,128.266181 L14.4815935,127.864491 L14.2028915,127.459825 L13.927165,127.054167 L13.6534221,126.647518 L13.3826547,126.237893 L13.1138709,125.827276 L12.8470708,125.414675 L12.5832461,125.000091 L12.3223969,124.584515 L12.0635314,124.166956 L11.8066495,123.747412 L11.552743,123.326877 L11.3008202,122.904359 L11.0518729,122.479856 L10.8049092,122.054362 L10.6819233,121.841119 L10.4399187,121.412649 L10.3189164,121.197422 L10.198906,120.982196 L10.0798873,120.766969 L9.96086867,120.550751 L9.84284184,120.334532 L9.72580684,120.118314 L9.60877184,119.901103 L9.49272867,119.683893 L9.26262596,119.247488 L9.14856642,119.028294 L9.03450689,118.8091 L8.922431,118.589906 L8.80936329,118.370712 L8.69827922,118.150527 L8.58719515,117.929349 L8.36701066,117.486994 L8.25791024,117.265816 L8.14980164,117.043647 L8.04268486,116.820485 L7.93556808,116.598316 L7.82944312,116.375154 L7.72331816,116.151001 L7.61818503,115.926848 L7.4099024,115.478542 L7.30675291,115.253397 L7.20459524,115.02726 L7.10243757,114.802115 L7.00127172,114.575978 L6.9010977,114.34885 L6.80191549,114.122713 L6.70273329,113.894592 L6.60454291,113.667464 L6.50635253,113.439343 L6.40915397,113.211223 L6.31294723,112.982111 L6.1225174,112.523886 L6.02829431,112.294774 L5.93407122,112.06467 L5.84083995,111.833574 L5.7486005,111.60347 L5.65735287,111.372374 L5.56610524,111.140286 L5.47584944,110.908198 L5.29732147,110.444023 L5.21004113,110.210943 L5.12176897,109.977863 L5.03548046,109.744784 L4.94919194,109.510712 L4.86389524,109.276641 L4.77959037,109.041578 L4.6952855,108.807506 L4.61197245,108.572443 L4.44732999,108.100333 L4.36600058,107.864278 L4.285663,107.628223 L4.20532541,107.391176 L4.04861753,106.917082 L3.97026359,106.679043 L3.817523,106.202966 L3.66676605,105.724905 L3.59337122,105.485874 L3.44658156,105.005829 L3.37517037,104.765807 L3.30375919,104.524793 L3.23333982,104.283778 L3.09448474,103.80175 L3.02604902,103.559744 L2.95860512,103.317738 L2.89116122,103.07474 L2.82570097,102.832734 L2.76024071,102.589736 L2.69577228,102.345746 L2.63130385,102.102749 L2.56782724,101.858759 L2.50534245,101.613777 L2.44384949,101.369788 L2.3228472,100.879825 L2.26333788,100.634843 L2.20382855,100.38887 L2.0887772,99.8969229 L2.03224334,99.6499577 L1.92115928,99.1560273 L1.86760089,98.9090621 L1.76048411,98.4131481 L1.65733462,97.9172341 L1.60675169,97.6682852 L1.55716059,97.4193364 L1.50856131,97.1693957 L1.45996203,96.9204469 L1.41235457,96.6705062 L1.36573894,96.4205655 L1.3191233,96.169633 L1.27449131,95.9196924 L1.22985932,95.6687598 L1.18621915,95.4168355 L1.1435708,95.165903 L1.10092246,94.9139787 L1.05926593,94.6620544 L1.01959305,94.41013 L0.978928345,94.1582057 L0.901566227,93.6523734 L0.864868812,93.3984654 L0.828171397,93.1455492 L0.791473981,92.8916413 L0.722046439,92.3838253 L0.68832449,92.1289255 L0.655594363,91.8740257 L0.592117753,91.364226 L0.532608431,90.8534346 L0.475082753,90.3416513 L0.421524364,89.8278844 L0.395736991,89.5710009 L0.37094144,89.3141174 L0.323333982,88.7993587 L0.279693813,88.2836081 L0.238037288,87.7668656 L0.20034805,87.2491314 L0.182495254,86.9902643 L0.165634279,86.7313971 L0.149765127,86.4715382 L0.120010466,85.9518203 L0.106124957,85.6919613 L0.094223093,85.4311105 L0.0813294066,85.1702598 L0.0704193643,84.909409 L0.0505829236,84.3877074 L0.0416565253,84.1258648 L0.0337219491,83.8640222 L0.0267791949,83.6021796 L0.0208282627,83.340337 L0.0109100424,82.8156599 L0.00694275422,82.5528255 L0.00396728813,82.2899911 L0.00198364406,82.0271566 L0,81.5004959 L0.00198364406,80.9738352 L0.00396728813,80.7110008 L0.00694275422,80.4471745 L0.0109100424,80.1853319 L0.0208282627,79.6606548 L0.0267791949,79.3978204 L0.0337219491,79.1359778 L0.0416565253,78.8741352 L0.0505829236,78.6132844 L0.0704193643,78.090591 L0.0813294066,77.8297402 L0.094223093,77.5698813 L0.106124957,77.3090305 L0.120010466,77.0491715 L0.134887796,76.7883208 L0.149765127,76.5294536 L0.165634279,76.2695947 L0.182495254,76.0097357 L0.20034805,75.7508686 L0.238037288,75.2331344 L0.25886555,74.9752591 L0.279693813,74.7163919 L0.323333982,74.2006413 L0.37094144,73.6858826 L0.395736991,73.4289991 L0.421524364,73.1721156 L0.475082753,72.6593405 L0.532608431,72.1475572 L0.592117753,71.6367658 L0.655594363,71.1259743 L0.68832449,70.8710745 L0.722046439,70.6171665 L0.791473981,70.1093506 L0.864868812,69.6015346 L0.901566227,69.3486184 L0.978928345,68.8427861 L1.01959305,68.5908618 L1.05926593,68.3379456 L1.10092246,68.0860213 L1.18621915,67.5831645 L1.22985932,67.332232 L1.3191233,66.830367 L1.41235457,66.3304856 L1.45996203,66.080545 L1.50856131,65.8306043 L1.55716059,65.5816554 L1.60675169,65.3327066 L1.65733462,65.0837578 L1.70890936,64.8358007 L1.76048411,64.5868519 L1.8140425,64.3388949 L1.86760089,64.0919297 L1.92115928,63.8439727 L2.03224334,63.3500423 L2.0887772,63.1040689 L2.20382855,62.6121222 L2.26333788,62.3661488 L2.3228472,62.1211673 L2.44384949,61.6312042 L2.50534245,61.3862227 L2.56782724,61.142233 L2.63130385,60.8982433 L2.69577228,60.6542536 L2.76024071,60.4112557 L2.89116122,59.92526 L3.02604902,59.4412479 L3.09448474,59.1992418 L3.16391228,58.9582276 L3.23333982,58.7162216 L3.30375919,58.4761992 L3.37517037,58.2351849 L3.44658156,57.9951626 L3.59337122,57.5151178 L3.66676605,57.2760872 L3.817523,56.7980261 L3.97026359,56.3219486 L4.04861753,56.0839099 L4.12697147,55.846863 L4.20532541,55.6088242 L4.285663,55.3727691 L4.36600058,55.1357222 L4.44732999,54.8996672 L4.52965122,54.6636121 L4.61197245,54.4285488 L4.6952855,54.1934856 L4.77959037,53.9584223 L4.86389524,53.7243509 L4.94919194,53.4902795 L5.12176897,53.0221366 L5.21004113,52.789057 L5.29732147,52.5569693 L5.38658545,52.3238897 L5.47584944,52.0918019 L5.56610524,51.8597141 L5.7486005,51.3975223 L5.84083995,51.1664263 L5.93407122,50.9363222 L6.1225174,50.476114 L6.31294723,50.0178894 L6.40915397,49.789769 L6.50635253,49.5616485 L6.70273329,49.1054076 L6.9010977,48.6511503 L7.00127172,48.4250135 L7.10243757,48.1988767 L7.20459524,47.9727399 L7.30675291,47.747595 L7.4099024,47.52245 L7.51404371,47.297305 L7.61818503,47.0731519 L7.72331816,46.8489987 L7.93556808,46.4026761 L8.04268486,46.1795148 L8.14980164,45.9573453 L8.25791024,45.7351758 L8.36701066,45.5130063 L8.47710291,45.2918287 L8.58719515,45.0716428 L8.69827922,44.8504652 L8.80936329,44.6302794 L8.922431,44.4100935 L9.03450689,44.1908995 L9.14856642,43.9717055 L9.26262596,43.7535033 L9.49272867,43.317099 L9.60877184,43.0998886 L9.84284184,42.665468 L9.96086867,42.4492494 L10.0798873,42.2340227 L10.198906,42.0178042 L10.3189164,41.8025775 L10.6819233,41.1598729 L10.8049092,40.9466299 L11.0518729,40.5201438 L11.3008202,40.0966333 L11.552743,39.6741145 L11.8066495,39.2525876 L12.0635314,38.8340361 L12.3223969,38.4164765 L12.5832461,37.9999087 L12.8470708,37.5863164 L13.1138709,37.1737159 L13.3826547,36.7621073 L13.6534221,36.3534741 L13.927165,35.9458328 L14.2028915,35.5401751 L14.4815935,35.1365011 L14.7622791,34.7348107 L15.0449484,34.3341122 L15.3305931,33.9353973 L15.6182215,33.5386661 L15.9078336,33.1439185 L16.2004211,32.7501628 L16.4949922,32.3593825 L16.791547,31.9695941 L17.0910773,31.5817893 L17.3925912,31.1959682 L17.6960887,30.8121307 L18.0025617,30.4302769 L18.3100265,30.0494149 L18.6204668,29.6715284 L18.9338826,29.2946338 L19.2482902,28.9197228 L19.5656732,28.5477872 L19.8840481,28.1768436 L20.2063903,27.8078835 L20.5297242,27.4409071 L20.8550419,27.0759144 L21.183335,26.7138972 L21.5136117,26.3528717 L21.8448803,25.99383 L22.1791243,25.6367719 L22.5163438,25.2816974 L22.8545551,24.9286066 L23.19475,24.5774995 L23.5379205,24.2293678 L23.8820827,23.882228 L24.2292204,23.5380637 L24.5783418,23.1948912 L24.9284549,22.8546941 L25.2815436,22.5154889 L25.6366159,22.1792592 L25.9936718,21.8450132 L26.3527114,21.5127508 L26.7137346,21.1834639 L27.0767415,20.8551688 L27.441732,20.5298492 L27.8077143,20.2055214 L28.1766721,19.8841691 L28.5476135,19.5648004 L28.9205386,19.2484073 L29.2944555,18.933006 L29.6713479,18.6205801 L30.0492321,18.3101379 L30.4300918,18.0016794 L30.8119432,17.6961964 L31.1957784,17.392697 L31.5815971,17.0911812 L31.9693996,16.7916492 L32.3591856,16.4950926 L32.7509553,16.2005196 L33.1437168,15.9079304 L33.538462,15.6183166 L33.9351908,15.3306864 L34.3339033,15.0450399 L34.7345994,14.7623689 L35.1362873,14.4816816 L35.5409507,14.2029779 L35.9466059,13.9272497 L36.3532529,13.6535052 L36.7628754,13.3827361 L37.1734898,13.1139507 L37.5860877,12.847149 L38.0006693,12.5833227 L38.4162428,12.3214801 L38.8337998,12.0626129 L39.2533406,11.8067213 L39.6738731,11.5518215 L40.0963893,11.300889 L40.5208891,11.0509483 L40.9463808,10.804975 L41.1596225,10.6819883 L41.3738561,10.5599934 L41.5880896,10.4389904 L41.803315,10.3189792 L42.0185404,10.198968 L42.2337658,10.0799486 L42.449983,9.96092928 L42.6662002,9.84290174 L42.8824174,9.72586602 L43.0996264,9.60883031 L43.3168354,9.49278643 L43.5350363,9.37773437 L43.7532371,9.26268232 L43.9724298,9.14862209 L44.1906306,9.03456186 L44.4108151,8.92149346 L44.6300078,8.80941689 L44.8501923,8.69833215 L45.0713686,8.5872474 L45.5137212,8.36706157 L45.7348975,8.25796049 L45.9570657,8.14985123 L46.1802256,8.04174197 L46.4023938,7.93462454 L46.6255537,7.82849893 L46.8497055,7.72336516 L47.0738573,7.61823138 L47.2980091,7.51309761 L47.5221608,7.40994749 L47.7473044,7.30679737 L47.9734399,7.20463908 L48.1985835,7.10248079 L48.4247189,7.00131432 L48.6518461,6.90113969 L48.8779816,6.80096505 L49.1051088,6.70277408 L49.3332279,6.60359127 L49.789466,6.40919297 L50.0185769,6.31298565 L50.246696,6.21677832 L50.4767987,6.12156283 L50.7059096,6.02733916 L50.9360123,5.93410732 L51.1671068,5.84087549 L51.3972095,5.74863548 L51.628304,5.65738729 L51.8603904,5.56613911 L52.0914849,5.47588276 L52.3235713,5.38661823 L52.5566495,5.29735371 L52.7897276,5.20908101 L53.0228058,5.12180014 L53.255884,5.0355111 L53.489954,4.94922205 L53.724024,4.86392484 L53.958094,4.77862763 L54.1931558,4.69531407 L54.4282176,4.61200051 L54.6642713,4.52868695 L54.9003249,4.44735705 L55.1363786,4.36602715 L55.3724322,4.28568908 L55.6094777,4.205351 L55.8465231,4.12600476 L56.0835686,4.04765034 L56.3216059,3.97028775 L56.5596432,3.89391699 L56.7976805,3.81754623 L57.2757387,3.66678836 L57.5147678,3.59240126 L57.7547887,3.51900598 L57.9948097,3.44660253 L58.2348306,3.37519091 L58.4758434,3.30377929 L58.9578689,3.16293971 L59.1988816,3.09450357 L59.4408862,3.02606743 L59.6828908,2.95862312 L59.9258872,2.89117882 L60.1678917,2.82472633 L60.4108881,2.75926568 L60.6548764,2.69479686 L60.8978728,2.63131986 L61.141861,2.56784287 L61.3858492,2.5053577 L61.6308292,2.44386436 L61.8758093,2.38237102 L62.1207893,2.32286133 L62.3657694,2.26235982 L62.6117412,2.20384196 L63.103685,2.08878991 L63.3506486,2.03225571 L63.5976123,1.97671334 L63.844576,1.92117097 L64.0915397,1.86662042 L64.3394952,1.81306171 L64.5874507,1.76049482 L64.8354062,1.70891976 L65.0833617,1.6573447 L65.3323091,1.60676147 L65.5812564,1.55717007 L65.8311955,1.50757866 L66.0801429,1.45997091 L66.330082,1.41236317 L66.5800212,1.36574725 L66.8309521,1.31913133 L67.3318223,1.2298668 L67.5827532,1.18622637 L67.834676,1.14258593 L68.0865988,1.10092915 L68.3385216,1.05927238 L68.5904444,1.01860742 L68.8423672,0.978934302 L69.0952818,0.940253007 L69.3481965,0.901571713 L69.6021029,0.863882246 L69.8550175,0.827184608 L70.108924,0.791478797 L70.6167368,0.722050833 L70.8716351,0.688328678 L71.1255415,0.655598352 L71.3814316,0.623859854 L71.6363299,0.592121356 L71.8912282,0.561374686 L72.1471182,0.531619844 L72.4030083,0.50285683 L72.6588984,0.475085644 L72.9157803,0.447314458 L73.1726622,0.421526928 L73.4285523,0.395739399 L73.686426,0.370943697 L73.9433079,0.346147995 L74.2011817,0.32333595 L74.4590554,0.300523904 L74.7169291,0.278703687 L74.9748029,0.257875297 L75.2336684,0.238038736 L75.4915421,0.219194003 L75.7504077,0.20034927 L76.0102651,0.182496364 L76.2691306,0.165635287 L76.528988,0.149766038 L76.7888453,0.133896789 L77.0487027,0.120011196 L77.3085601,0.106125603 L77.5694093,0.0932318383 L77.8302585,0.0813299015 L78.0911077,0.0704197928 L78.3519569,0.0605015121 L78.6128061,0.0505832314 L78.8746471,0.0416567788 L79.1364881,0.0337221543 L79.3983291,0.0267793578 L79.6601701,0.0208283894 L79.9220111,0.014877421 L80.184844,0.0109101087 L80.4476768,0.00694279647 L80.7105097,0.00396731227 L80.9733425,0.00198365613 L81.2361753,0.000991828067 L81.5,0 L81.7638247,0.000991828067 Z M81.2579954,6.9437883 L81.0179745,6.94478012 L80.7769617,6.94676378 L80.535949,6.94874744 L80.2949362,6.95271475 L80.0539235,6.95668206 L79.8139025,6.9616412 L79.5738816,6.96759217 L79.3338607,6.97354314 L79.0938398,6.98147776 L78.8548106,6.98941239 L78.6147897,6.99734701 L78.3767524,7.00726529 L78.1377233,7.01718357 L77.899686,7.02809368 L77.6606569,7.03999562 L77.4216278,7.05288938 L77.1845823,7.06578315 L76.9465451,7.07966874 L76.7094996,7.09454616 L76.4714623,7.11041541 L76.233425,7.12628466 L75.9973714,7.14314574 L75.7613177,7.16099864 L75.5242723,7.17885155 L75.2872268,7.19868811 L75.052165,7.21852467 L74.8161113,7.23836123 L74.5810495,7.26018145 L74.3449959,7.28200167 L74.1089422,7.30481371 L73.8748722,7.32861759 L73.6398104,7.35242146 L73.4057404,7.37721716 L73.1696868,7.40300469 L72.9366086,7.42978405 L72.7025386,7.45656341 L72.4694604,7.48433459 L72.237374,7.51309761 L72.003304,7.54285245 L71.769234,7.57260729 L71.5361559,7.60335396 L71.3040695,7.63509246 L71.072975,7.66683096 L70.8398968,7.70055311 L70.6088023,7.73328344 L70.3767159,7.76799742 L70.1436377,7.8027114 L69.9155187,7.83841721 L69.6844241,7.87511485 L69.4523378,7.91181249 L69.2232269,7.94950196 L68.9921324,7.98917508 L68.7610378,8.02785637 L68.5319269,8.0675295 L68.3038079,8.10819445 L68.0737052,8.14985123 L67.8455861,8.191508 L67.6184588,8.23415661 L67.389348,8.27779705 L67.1592452,8.32242931 L66.932118,8.36706157 L66.7059826,8.41268566 L66.4778635,8.45830975 L66.2487526,8.5059175 L66.0226172,8.55352525 L65.7974736,8.601133 L65.5703463,8.6507244 L65.3422273,8.7003158 L65.1170837,8.75089903 L64.8929319,8.80148227 L64.6658047,8.85305733 L64.4416529,8.90562421 L64.2184929,8.9581911 L63.9923575,9.01274164 L63.7662221,9.06729219 L63.5430621,9.12184273 L63.320894,9.1773851 L63.0957504,9.23491113 L62.8735822,9.29144533 L62.6524059,9.34897136 L62.4282541,9.40748921 L62.2070778,9.46600707 L61.9829261,9.52650858 L61.7587743,9.58800192 L61.5415653,9.64751161 L61.3193971,9.70999678 L61.0952453,9.77248194 L60.8760527,9.83595894 L60.65686,9.89943594 L60.4386592,9.96291293 L60.216491,10.0283736 L59.9943229,10.0948261 L59.776122,10.1612785 L59.558913,10.227731 L59.341704,10.2951753 L59.1215195,10.3646033 L58.8993514,10.4340313 L58.6871014,10.5024674 L58.4679088,10.5728872 L58.2477243,10.6452906 L58.0315071,10.7167023 L57.8162817,10.7881139 L57.6020481,10.8605173 L57.3828555,10.9349044 L57.1686219,11.0082997 L56.9504211,11.0846705 L56.7361875,11.1590576 L56.5239376,11.2354283 L56.3057367,11.3127909 L56.0934868,11.3901535 L55.8762778,11.4685079 L55.6630361,11.5468624 L55.451778,11.6262086 L55.2395281,11.7055548 L55.0292618,11.7849011 L54.8140364,11.8672228 L54.5978192,11.9505364 L54.1772867,12.1151798 L53.9680122,12.1984934 L53.7537787,12.2837906 L53.5435124,12.368096 L53.3362216,12.4533932 L53.121988,12.5406741 L52.9137054,12.6269631 L52.4991238,12.8015249 L52.2868739,12.8917812 L52.074624,12.9830294 L51.8673332,13.0722939 L51.6659933,13.1595748 L51.455727,13.2528066 L51.2444689,13.3460385 L51.0441209,13.435303 L50.8348464,13.5295267 L50.6235883,13.625734 L50.4252239,13.7169822 L50.2219004,13.810214 L50.012626,13.908405 L49.8043433,14.0056041 L49.600028,14.1018115 L49.3976963,14.1980188 L49.1953646,14.2952179 L48.9940247,14.3934089 L48.7867339,14.4945754 L48.5853941,14.5937582 L48.3840542,14.692941 L48.1837061,14.7931156 L47.9833581,14.8942821 L47.5727438,15.102566 L47.3723957,15.2057161 L47.1799822,15.3058907 L46.9756669,15.4120163 L46.7773025,15.5161583 L46.5799299,15.6212921 L46.3756146,15.7303931 L46.178242,15.8365187 L45.9818612,15.9426443 L45.7854805,16.0497618 L45.5831488,16.1608465 L45.386768,16.2689558 L45.1913791,16.3780569 L44.9959901,16.4881498 L44.801593,16.5982427 L44.6012449,16.7123029 L44.4098233,16.821404 L44.0200372,17.0475408 L43.631243,17.2756613 L43.2444324,17.5067572 L42.8615891,17.7378531 L42.477754,17.9729164 L42.0909434,18.211947 L41.7120674,18.4499857 L41.3361668,18.6900081 L40.9572908,18.9349896 L40.5803984,19.180963 L40.2044979,19.4299118 L39.8335564,19.6788607 L39.4616232,19.9327687 L39.0926654,20.1856848 L38.7276749,20.4415765 L38.3567334,20.7044109 L37.9927348,20.9642699 L37.6317115,21.2261125 L37.2677128,21.4929142 L36.9096651,21.759716 L36.5526092,22.0275095 L36.1945614,22.3012541 L35.8375055,22.5769823 L35.4854087,22.8517187 L35.1343037,23.1284387 L34.7861741,23.4081342 L34.4390364,23.6888216 L34.0909069,23.9754599 L33.7437692,24.26309 L33.404566,24.5477447 L33.0653629,24.8373585 L32.7231843,25.1319314 L32.3859648,25.4255125 L32.050729,25.7210773 L31.7135095,26.022593 L31.3812491,26.3221251 L31.0549396,26.6206653 L30.7236711,26.928132 L30.3963698,27.2336151 L30.0760113,27.5381063 L29.7497018,27.8515239 L29.4273597,28.162958 L29.1089848,28.4763756 L28.7906099,28.7927688 L28.4791778,29.1061865 L28.1617948,29.4295224 L27.848379,29.7508747 L27.5428978,30.0712352 L27.2344412,30.3965548 L26.9279682,30.723858 L26.6234788,31.0531449 L26.3199813,31.3844155 L26.0194592,31.7166779 L25.7238962,32.0479485 L25.4273414,32.38517 L25.1317785,32.7233834 L24.8381991,33.0635804 L24.5466035,33.4067529 L24.2639342,33.7419908 L23.9772976,34.0881388 L23.6886774,34.4402378 L23.4079918,34.7863858 L23.1302816,35.1335256 L22.8505878,35.4866164 L22.5738694,35.8416909 L22.3011184,36.1937898 L22.0313428,36.5478724 L21.7605754,36.9088979 L21.4907998,37.2709151 L21.2269751,37.6299569 L20.9651341,37.9919741 L20.7023013,38.3589505 L20.4414521,38.7279105 L20.185562,39.0948869 L19.9316556,39.4628551 L19.6807246,39.8318152 L19.4317772,40.2027589 L19.1808463,40.5806454 L18.9328908,40.9605155 L18.6898944,41.3364183 L18.4518571,41.7093457 L18.2108443,42.094175 L17.9737989,42.475037 L17.7407207,42.8578826 L17.504667,43.2466792 L17.2785316,43.6275412 L17.0484289,44.0203051 L16.8183262,44.4160445 L16.7151767,44.5965572 L16.602109,44.7949228 L16.4840822,45.0041985 L16.3779572,45.191654 L16.2738159,45.3801014 L16.1567809,45.5913608 L15.9425473,45.9811492 L15.8403897,46.1705883 L15.7322811,46.3719294 L15.6192134,46.5851725 L15.5170557,46.7765953 L15.4168817,46.9670263 L15.3057976,47.1812611 L15.1996726,47.3845859 L15.1004904,47.5770005 L15.0023001,47.770407 L14.7900501,48.1909421 L14.6928516,48.3843486 L14.5966448,48.5787469 L14.4905199,48.7959572 L14.3943131,48.9913474 L14.1959487,49.4049397 L14.1017256,49.6003298 L14.0045271,49.8086137 L13.9053449,50.0168976 L13.7178905,50.4225553 L13.6216838,50.631831 L13.531428,50.8301966 L13.4381967,51.0404642 L13.3429818,51.2507317 L13.2557015,51.4500891 L13.1624702,51.6603567 L13.0702307,51.8726079 L12.9789831,52.0848591 L12.8926946,52.2842165 L12.712183,52.7107026 L12.6278781,52.9120437 L12.5396059,53.1252867 L12.4513338,53.3395216 L12.3690126,53.5418545 L12.2876832,53.7441875 L12.2023865,53.9594142 L12.1121307,54.1875346 L12.0308012,54.3908594 L11.9524473,54.5941841 L11.7858212,55.0286048 L11.7035,55.2458152 L11.6261379,55.4511236 L11.5497676,55.656432 L11.4704218,55.8746341 L11.3900842,56.0928363 L11.3117303,56.3120303 L11.2323845,56.5312243 L11.0855948,56.9458085 L11.0102164,57.1659943 L10.9338461,57.387172 L10.8624349,57.5954558 L10.7880482,57.8166335 L10.7146534,58.038803 L10.6452259,58.2480787 L10.5728229,58.4702482 L10.5043871,58.6795239 L10.4339678,58.9026852 L10.3625566,59.1268384 L10.2970963,59.3371059 L10.1622085,59.7725185 L10.0947646,59.9976634 L10.0273207,60.2218166 L9.96384413,60.4350596 L9.83689091,60.8734476 L9.70795405,61.3257212 L9.64844473,61.5399561 L9.58992723,61.7541909 L9.52744244,61.9813196 L9.46594947,62.20944 L9.40544833,62.4375605 L9.34792265,62.6527872 L9.29238062,62.8690057 L9.23386312,63.098118 L9.17633744,63.3272302 L9.12178723,63.5434488 L9.06922066,63.7606591 L8.95813659,64.2208673 L8.90656185,64.4390695 L8.80242053,64.8883676 L8.75382125,65.1065698 L8.65067176,65.5717372 L8.6030643,65.7909312 L8.5534732,66.0240108 L8.50487392,66.2570904 L8.45825829,66.4772762 L8.41461812,66.6984538 L8.36701066,66.9325253 L8.32138685,67.1665967 L8.27774668,67.3877743 L8.23609015,67.6099438 L8.19244998,67.8450071 L8.14880981,68.0810622 L8.10814511,68.3032317 L8.06946405,68.5254011 L8.02879935,68.7624481 L7.98813464,68.9985031 L7.95044541,69.2226563 L7.91374799,69.4468094 L7.87506693,69.6838563 L7.83836952,69.9218951 L7.80266392,70.1460482 L7.73323638,70.6102237 L7.63405418,71.3144217 L7.6033077,71.5405585 L7.57355304,71.7666953 L7.54379837,71.9938239 L7.51404371,72.2338463 L7.48428905,72.4748605 L7.45750986,72.702981 L7.43073066,72.9301096 L7.37717227,73.4141217 L7.35237672,73.6422421 L7.32857299,73.8713544 L7.30576109,74.1004667 L7.26013727,74.5864625 L7.23930901,74.8165666 L7.21947257,75.0466707 L7.19864431,75.2906604 L7.15996325,75.765746 L7.1262413,76.2279379 L7.11037215,76.4729194 L7.09450299,76.7050072 L7.08160931,76.937095 L7.06574015,77.1959621 L7.05185465,77.4290417 L7.02805092,77.8952009 L7.0181327,78.1282805 L6.99829626,78.6222109 L6.98936986,78.8562823 L6.98143528,79.0903537 L6.97449253,79.3393026 L6.96754977,79.573374 L6.96259066,79.8084372 L6.95267244,80.3063349 L6.94870516,80.5285044 L6.94672151,80.7774533 L6.94374604,81.0273939 L6.94374604,81.9735979 L6.94672151,82.2225467 L6.94870516,82.4724874 L6.95267244,82.6946569 L6.96259066,83.1925546 L6.96754977,83.426626 L6.97449253,83.6616893 L6.98143528,83.9096463 L6.98936986,84.1437177 L6.99829626,84.3777891 L7.0181327,84.8727113 L7.02805092,85.1057909 L7.05185465,85.5719501 L7.06574015,85.8040379 L7.08160931,86.0638968 L7.09450299,86.2959846 L7.11037215,86.5280724 L7.1262413,86.7730539 L7.15996325,87.2352458 L7.19864431,87.7103314 L7.21947257,87.9543211 L7.23930901,88.1844253 L7.26013727,88.4145294 L7.30576109,88.9005251 L7.32857299,89.1296374 L7.35237672,89.3577579 L7.37717227,89.5868701 L7.43073066,90.0698904 L7.48428905,90.5251395 L7.54379837,91.0071679 L7.57355304,91.2333047 L7.6033077,91.4604334 L7.63405418,91.6865702 L7.66777613,91.9256007 L7.70149808,92.1656231 L7.73323638,92.3907681 L7.80266392,92.8539518 L7.83836952,93.0790968 L7.87506693,93.3171355 L7.91374799,93.5541824 L7.95044541,93.7783356 L7.98813464,94.0014969 L8.02879935,94.2385438 L8.06946405,94.4745989 L8.10814511,94.6977602 L8.14880981,94.9199297 L8.19244998,95.1559847 L8.23609015,95.391048 L8.27774668,95.6122257 L8.32138685,95.8343951 L8.36701066,96.0684666 L8.41461812,96.302538 L8.45825829,96.5227238 L8.50487392,96.7429096 L8.5534732,96.9769811 L8.6030643,97.2100607 L8.65067176,97.4292547 L8.69927104,97.6484487 L8.75382125,97.8934302 L8.80242053,98.1126242 L8.90656185,98.5619223 L8.95813659,98.7791327 L9.01367863,99.0102286 L9.06922066,99.2403327 L9.12178723,99.4565512 L9.23386312,99.9028739 L9.29238062,100.131986 L9.34792265,100.347213 L9.40544833,100.563431 L9.46594947,100.791552 L9.52744244,101.01868 L9.58992723,101.246801 L9.64844473,101.461036 L9.70795405,101.674279 L9.77242248,101.901407 L9.83689091,102.127544 L9.96384413,102.565932 L10.1622085,103.228473 L10.2970963,103.663886 L10.3625566,103.874153 L10.4339678,104.097315 L10.5043871,104.320476 L10.6452259,104.752913 L10.7146534,104.962189 L10.7880482,105.184358 L10.8624349,105.405536 L10.9338461,105.61382 L11.0102164,105.834006 L11.0855948,106.054192 L11.1589897,106.262475 L11.2323845,106.468776 L11.3117303,106.688962 L11.3900842,106.907164 L11.4704218,107.126358 L11.5497676,107.34456 L11.6261379,107.549868 L11.7035,107.755177 L11.7858212,107.972387 L11.8691343,108.189597 L11.9524473,108.405816 L12.0308012,108.610132 L12.1121307,108.813457 L12.2023865,109.041578 L12.2876832,109.256804 L12.3690126,109.459137 L12.4513338,109.66147 L12.5396059,109.875705 L12.6278781,110.088948 L12.712183,110.290289 L12.8024388,110.503532 L12.8926946,110.715783 L12.9789831,110.916133 L13.0702307,111.128384 L13.1624702,111.339643 L13.2557015,111.550903 L13.3429818,111.75026 L13.4381967,111.960528 L13.531428,112.170795 L13.6216838,112.368169 L13.8140973,112.78672 L13.9053449,112.984094 L14.0045271,113.192378 L14.1017256,113.39967 L14.1959487,113.596052 L14.3010819,113.814254 L14.3943131,114.009644 L14.4905199,114.204043 L14.5966448,114.422245 L14.6928516,114.615651 L14.7900501,114.81005 L15.0023001,115.230585 L15.1004904,115.422999 L15.1996726,115.615414 L15.3048058,115.818739 L15.5170557,116.224397 L15.6192134,116.415819 L15.7322811,116.628071 L15.9425473,117.019843 L16.1567809,117.409631 L16.2738159,117.619899 L16.3779572,117.808346 L16.4840822,117.996793 L16.602109,118.206069 L16.7151767,118.404435 L16.8183262,118.584947 L17.0484289,118.980687 L17.2785316,119.373451 L17.504667,119.753321 L17.7407207,120.143109 L17.9737989,120.525955 L18.2108443,120.906817 L18.4518571,121.291646 L18.6898944,121.663582 L18.9328908,122.040476 L19.1808463,122.419355 L19.4317772,122.797241 L19.6807246,123.168185 L19.9316556,123.538137 L20.185562,123.906105 L20.4414521,124.272089 L20.7023013,124.642041 L20.9651341,125.009018 L21.2269751,125.370043 L21.4907998,125.729085 L21.7605754,126.092094 L22.0313428,126.452128 L22.3011184,126.80621 L22.5738694,127.159301 L22.8505878,127.514375 L23.1302816,127.867466 L23.4079918,128.214606 L23.6886774,128.559762 L23.9772976,128.911861 L24.2639342,129.258009 L24.5466035,129.594239 L24.8381991,129.93642 L25.1317785,130.277608 L25.4273414,130.615822 L25.7238962,130.953043 L26.0194592,131.283322 L26.3199813,131.616576 L26.6234788,131.947847 L26.9279682,132.277134 L27.2344412,132.604437 L27.5428978,132.929757 L27.848379,133.249125 L28.1617948,133.570478 L28.4791778,133.893814 L28.7906099,134.208223 L29.1089848,134.523624 L29.4273597,134.838034 L29.7497018,135.149468 L30.0760113,135.462886 L30.3963698,135.767377 L30.7236711,136.07286 L31.0549396,136.380327 L31.3812491,136.678867 L31.7135095,136.978399 L32.050729,137.278923 L32.3859648,137.574488 L32.7231843,137.868069 L33.0653629,138.163633 L33.404566,138.452255 L33.7437692,138.73691 L34.0909069,139.025532 L34.4390364,139.31217 L34.7861741,139.592858 L35.1343037,139.871561 L35.4854087,140.149273 L35.8375055,140.42401 L36.1945614,140.699738 L36.5526092,140.97249 L36.9096651,141.241276 L37.2677128,141.508078 L37.6317115,141.774879 L37.9927348,142.036722 L38.3557416,142.296581 L38.7276749,142.559415 L39.0926654,142.814315 L39.4616232,143.068223 L39.8335564,143.321139 L40.2044979,143.570088 L40.5803984,143.819037 L40.9572908,144.066002 L41.3361668,144.309992 L41.7120674,144.550014 L42.0909434,144.788053 L42.477754,145.028075 L42.8615891,145.263139 L43.2444324,145.494235 L43.631243,145.724339 L44.0200372,145.953451 L44.4098233,146.179588 L44.6012449,146.288689 L44.801593,146.402749 L44.9959901,146.512842 L45.386768,146.731044 L45.5831488,146.840145 L45.7854805,146.95123 L45.9818612,147.058347 L46.178242,147.164473 L46.3756146,147.270599 L46.5799299,147.3797 L46.7773025,147.483842 L46.9756669,147.587984 L47.1799822,147.695101 L47.3723957,147.795276 L47.5727438,147.897434 L47.7780509,148.002568 L47.9843499,148.10671 L48.1837061,148.207876 L48.3840542,148.308051 L48.5853941,148.407234 L48.7867339,148.506416 L48.9940247,148.607583 L49.1953646,148.704782 L49.3976963,148.801981 L49.600028,148.89918 L49.8043433,148.994396 L50.012626,149.092587 L50.2219004,149.189786 L50.4252239,149.28401 L50.6245801,149.375258 L50.8348464,149.470473 L51.0441209,149.565689 L51.2444689,149.654953 L51.455727,149.748185 L51.6659933,149.841417 L51.8673332,149.928698 L52.074624,150.017962 L52.2868739,150.109211 L52.4991238,150.199467 L52.7064146,150.286748 L52.9137054,150.373037 L53.121988,150.459326 L53.3362216,150.547599 L53.5445042,150.631904 L53.7537787,150.717201 L53.9670204,150.802498 L54.1772867,150.885812 L54.3875529,150.968134 L54.5978192,151.049464 L54.8140364,151.132777 L55.0292618,151.215099 L55.2395281,151.295437 L55.451778,151.374783 L55.6630361,151.453138 L55.8762778,151.531492 L56.0934868,151.610838 L56.3057367,151.688201 L56.5239376,151.765563 L56.7361875,151.840942 L56.9504211,151.916321 L57.1686219,151.9917 L57.3838473,152.066087 L57.6020481,152.140474 L57.8162817,152.212878 L58.0324989,152.28429 L58.2477243,152.355701 L58.4679088,152.427113 L58.6871014,152.498524 L58.8993514,152.566961 L59.1215195,152.636389 L59.341704,152.705816 L59.558913,152.773261 L59.776122,152.839713 L59.9943229,152.905174 L60.4386592,153.038079 L60.65686,153.101556 L60.8760527,153.165033 L61.0952453,153.227518 L61.3193971,153.290995 L61.5415653,153.35348 L61.7587743,153.41299 L61.9829261,153.473491 L62.2070778,153.533993 L62.4282541,153.593503 L62.6524059,153.65202 L62.8735822,153.709546 L63.0957504,153.766081 L63.320894,153.823607 L63.5430621,153.878157 L63.7662221,153.9337 L63.9923575,153.98825 L64.2184929,154.042801 L64.4416529,154.095368 L64.6658047,154.146943 L64.8929319,154.19951 L65.1170837,154.250093 L65.3422273,154.299684 L65.5703463,154.350267 L65.7974736,154.398867 L66.0226172,154.447467 L66.2487526,154.495074 L66.4778635,154.54169 L66.7059826,154.588306 L66.932118,154.63393 L67.1592452,154.678563 L67.389348,154.722203 L67.6184588,154.766835 L67.8455861,154.808492 L68.0737052,154.851141 L68.3038079,154.891806 L68.5319269,154.932471 L68.7610378,154.972144 L68.9921324,155.011817 L69.2232269,155.050498 L69.4523378,155.088188 L69.6844241,155.125877 L69.9155187,155.162575 L70.1436377,155.197289 L70.3767159,155.232994 L70.6088023,155.266717 L70.8398968,155.300439 L71.072975,155.333169 L71.3040695,155.365899 L71.5361559,155.396646 L71.769234,155.427393 L72.003304,155.458139 L72.237374,155.486902 L72.4694604,155.515665 L72.7025386,155.543437 L72.9366086,155.571208 L73.1696868,155.596995 L73.4057404,155.622783 L73.6398104,155.647579 L73.8748722,155.672374 L74.1089422,155.695186 L74.3449959,155.717998 L74.5800577,155.74081 L74.8161113,155.761639 L75.052165,155.782467 L75.2872268,155.802304 L75.5242723,155.821148 L75.7613177,155.839993 L75.9973714,155.857846 L76.233425,155.874707 L76.4714623,155.890576 L76.7085078,155.906446 L76.9465451,155.920331 L77.1845823,155.935209 L77.4216278,155.948102 L77.6606569,155.960004 L77.8986942,155.971906 L78.1377233,155.982816 L78.3767524,155.993727 L78.6147897,156.002653 L78.8548106,156.011579 L79.0938398,156.019514 L79.3338607,156.026457 L79.5738816,156.0334 L79.8139025,156.039351 L80.0549153,156.04431 L80.2949362,156.048277 L80.535949,156.051253 L80.7769617,156.054228 L81.0179745,156.056212 L81.2579954,156.057204 L81.7410128,156.057204 L81.9830173,156.056212 L82.2240301,156.054228 L82.4650428,156.051253 L82.7050638,156.048277 L82.9460765,156.04431 L83.1860975,156.039351 L83.4261184,156.0334 L83.6661393,156.026457 L83.9061602,156.019514 L84.1451894,156.011579 L84.3842185,156.002653 L84.6242394,155.993727 L84.8622767,155.982816 L85.100314,155.971906 L85.3393431,155.960004 L85.5773804,155.948102 L85.8164095,155.934217 L86.0534549,155.920331 L86.2905004,155.906446 L86.5285377,155.890576 L86.7645913,155.874707 L87.0026286,155.857846 L87.2396741,155.839993 L87.4757277,155.821148 L87.7117814,155.802304 L87.9498187,155.782467 L88.1838887,155.761639 L88.4189505,155.74081 L88.655996,155.717998 L88.8910578,155.695186 L89.1261196,155.672374 L89.3591978,155.647579 L89.5942596,155.622783 L89.8293214,155.596995 L90.0653751,155.570216 L90.2964696,155.543437 L90.5305396,155.515665 L90.7646096,155.486902 L90.996696,155.458139 L91.230766,155.427393 L91.4628523,155.397638 L91.6959305,155.365899 L91.9300005,155.333169 L92.1591114,155.300439 L92.3911977,155.266717 L92.6242759,155.232994 L92.8533868,155.19828 L93.086465,155.161583 L93.3185513,155.124885 L93.5476622,155.088188 L93.7767731,155.050498 L94.0088595,155.011817 L94.2379704,154.973135 L94.4650976,154.933462 L94.6961921,154.891806 L94.9262948,154.851141 L95.1563976,154.808492 L95.3845166,154.765843 L95.6116439,154.722203 L95.8407548,154.678563 L96.067882,154.63393 L96.2940174,154.588306 L96.5231283,154.54169 L96.7512474,154.495074 L96.9773828,154.447467 L97.2025264,154.398867 L97.4306455,154.350267 L97.6557891,154.300676 L97.8819245,154.250093 L98.1110354,154.198518 L98.3312199,154.147935 L98.5573553,154.095368 L98.7844825,154.041809 L99.0076425,153.98825 L99.2308025,153.9337 L99.4559461,153.878157 L99.6830733,153.822615 L99.9012742,153.767073 L100.126418,153.709546 L100.572738,153.593503 L100.793914,153.533993 L101.014098,153.474483 L101.237258,153.413982 L101.46141,153.352488 L101.681595,153.290995 L101.900787,153.22851 L102.123947,153.165033 L102.346115,153.100564 L102.565308,153.036095 L102.783509,152.971626 L103.002702,152.906166 L103.219911,152.840705 L103.441087,152.773261 L103.662263,152.703833 L103.879472,152.636389 L104.09569,152.567952 L104.315874,152.497533 L104.532091,152.427113 L104.752276,152.355701 L104.968493,152.28429 L105.182726,152.212878 L105.402911,152.138491 L105.617145,152.066087 L106.045612,151.917313 L106.262821,151.840942 L106.481022,151.76358 L106.695255,151.688201 L106.907505,151.610838 L107.119755,151.533476 L107.332005,151.455121 L107.548222,151.374783 L107.764439,151.293453 L107.975697,151.214107 L108.186955,151.132777 L108.397222,151.051447 L108.612447,150.968134 L108.827672,150.883828 L109.03298,150.802498 L109.241262,150.718193 L109.455496,150.631904 L109.669729,150.545615 L109.879004,150.459326 L110.086295,150.373037 L110.294577,150.286748 L110.501868,150.199467 L110.714118,150.109211 L110.920417,150.019946 L111.126716,149.930682 L111.338966,149.838442 L111.544273,149.748185 L111.74958,149.656937 L111.959846,149.562713 L112.165154,149.470473 L112.370461,149.377242 L112.579735,149.282026 L112.784051,149.187802 L113.190698,148.997371 L113.39898,148.89918 L113.602304,148.801981 L113.803644,148.704782 L114.011926,148.604607 L114.208307,148.509392 L114.414606,148.407234 L114.615946,148.308051 L114.816294,148.207876 L115.022593,148.103734 L115.221949,148.002568 L115.422297,147.90041 L115.620662,147.798251 L115.825969,147.692126 L116.222698,147.483842 L116.427013,147.375732 L116.624385,147.270599 L116.815807,147.167449 L117.018139,147.058347 L117.221462,146.947263 L117.4109,146.843121 L117.61224,146.731044 L117.808621,146.621943 L118.003018,146.512842 L118.204358,146.398782 L118.392804,146.291664 L118.583234,146.182563 L118.982938,145.951467 L119.368757,145.724339 L119.755568,145.494235 L120.142378,145.261155 L120.523238,145.028075 L120.906081,144.790037 L121.286941,144.550014 L121.6678,144.308008 L122.042709,144.066002 L122.419602,143.819037 L122.795502,143.570088 L123.166444,143.321139 L123.535401,143.070207 L123.906343,142.814315 L124.276292,142.55644 L124.641283,142.298565 L125.007265,142.036722 L125.36928,141.774879 L125.72832,141.510061 L126.09331,141.2383 L126.451358,140.970507 L126.805439,140.699738 L127.159519,140.426985 L127.510624,140.152249 L127.864705,139.871561 L128.216801,139.589882 L128.564931,139.309195 L128.909093,139.025532 L129.253255,138.739885 L129.595434,138.452255 L129.938604,138.159666 L130.277808,137.868069 L130.615027,137.574488 L130.950263,137.278923 L131.283515,136.981374 L131.618751,136.678867 L131.949028,136.376359 L132.273353,136.075835 L132.602638,135.767377 L132.927956,135.458918 L133.247323,135.153435 L133.571648,134.838034 L133.892007,134.523624 L134.20939,134.208223 L134.525781,133.890838 L134.83523,133.574445 L135.150629,133.249125 L135.462061,132.925789 L135.766551,132.604437 L136.073024,132.277134 L136.377513,131.947847 L136.680019,131.616576 L136.981533,131.283322 L137.277096,130.953043 L137.57365,130.615822 L137.869213,130.277608 L138.158825,129.940387 L138.449429,129.598206 L138.739041,129.254042 L139.02667,128.907894 L139.308347,128.564721 L139.591016,128.214606 L139.873686,127.863499 L140.149412,127.514375 L140.423155,127.163268 L140.69789,126.80621 L140.972624,126.44816 L141.240416,126.092094 L141.5092,125.729085 L141.774017,125.370043 L142.034866,125.009018 L142.297699,124.642041 L142.555572,124.277049 L142.810471,123.911064 L143.067353,123.538137 L143.322251,123.164218 L143.57219,122.792282 L143.819154,122.419355 L144.064134,122.045435 L144.30713,121.669533 L144.551118,121.285695 L144.789156,120.906817 L145.025209,120.525955 L145.263247,120.13815 L145.495333,119.753321 L145.72246,119.373451 L145.949587,118.985646 L146.184649,118.578996 L146.291766,118.393525 L146.397891,118.206069 L146.509967,118.007703 L146.622043,117.808346 L146.733127,117.608989 L146.837268,117.420541 L146.94736,117.220192 L147.062412,117.008933 L147.166553,116.818502 L147.267719,116.628071 L147.375828,116.426729 L147.482944,116.224397 L147.589069,116.022064 L147.695194,115.818739 L147.795368,115.627316 L147.89951,115.422999 L148.004643,115.219675 L148.204991,114.82096 L148.409306,114.410343 L148.504521,114.215945 L148.604695,114.009644 L148.705861,113.803344 L148.799092,113.606962 L148.897283,113.39967 L148.996465,113.192378 L149.093663,112.984094 L149.191854,112.774819 L149.283101,112.577445 L149.373357,112.380071 L149.46758,112.170795 L149.562795,111.960528 L149.656026,111.75026 L149.750249,111.539001 L149.83753,111.339643 L149.929769,111.128384 L150.022009,110.916133 L150.108297,110.715783 L150.192602,110.515434 L150.460394,109.875705 L150.542715,109.673372 L150.634955,109.446244 L150.717276,109.243911 L150.798605,109.041578 L150.883902,108.825359 L150.968207,108.610132 L151.052512,108.393914 L151.131858,108.189597 L151.214179,107.972387 L151.292533,107.767079 L151.37287,107.549868 L151.455192,107.331666 L151.53057,107.126358 L151.609916,106.907164 L151.689262,106.688962 L151.763648,106.481669 L151.836051,106.274377 L151.918372,106.04229 L152.067146,105.61382 L152.137565,105.405536 L152.282371,104.975083 L152.354774,104.752913 L152.428169,104.530744 L152.495613,104.320476 L152.567024,104.097315 L152.637443,103.874153 L152.703895,103.663886 L152.840767,103.21558 L152.905235,103.003328 L152.968712,102.791077 L153.039131,102.553038 L153.102608,102.340787 L153.163109,102.127544 L153.228569,101.901407 L153.288079,101.687173 L153.351555,101.461036 L153.415032,101.233907 L153.473549,101.01868 L153.534051,100.791552 L153.591576,100.576325 L153.64811,100.361098 L153.710595,100.119092 L153.766137,99.9028739 L153.820687,99.6866553 L153.877221,99.4565512 L153.933755,99.227439 L153.990289,98.996343 L154.042855,98.7791327 L154.09443,98.5619223 L154.145013,98.3437201 L154.197579,98.1126242 L154.250146,97.8805364 L154.298745,97.6613424 L154.349328,97.4292547 L154.399911,97.1961751 L154.446527,96.9769811 L154.493142,96.7567952 L154.54075,96.5227238 L154.588357,96.2896442 L154.632989,96.0684666 L154.67663,95.8472889 L154.721262,95.6122257 L154.766885,95.3771624 L154.808542,95.1559847 L154.849207,94.9338153 L154.890863,94.6977602 L154.933511,94.4617051 L154.972192,94.2385438 L155.009882,94.0153825 L155.049555,93.7783356 L155.089227,93.5402968 L155.124933,93.3171355 L155.160639,93.0919905 L155.196344,92.8539518 L155.233042,92.6159131 L155.266764,92.3907681 L155.299494,92.1656231 L155.364954,91.6994639 L155.394709,91.4733271 L155.428431,91.220411 L155.458185,90.9932823 L155.485956,90.7661537 L155.515711,90.5251395 L155.543482,90.2980109 L155.569269,90.0698904 L155.59704,89.8288762 L155.621836,89.6007557 L155.64564,89.3716435 L155.672419,89.1157518 L155.695231,88.8866395 L155.717051,88.6575272 L155.740855,88.4145294 L155.761683,88.1844253 L155.781519,87.9543211 L155.801356,87.7103314 L155.821192,87.4792355 L155.838053,87.2491314 L155.856898,87.0041499 L155.873759,86.7591683 L155.89062,86.5280724 L155.904505,86.2959846 L155.920374,86.0500113 L155.93426,85.8179235 L155.947154,85.5719501 L155.960047,85.3388705 L155.970957,85.1057909 L155.982859,84.8588257 L155.992777,84.6257462 L156.001704,84.3916747 L156.019557,83.8967525 L156.026499,83.6616893 L156.038401,83.1925546 L156.047328,82.7075507 L156.053278,82.2225467 L156.055262,81.9864917 L156.057246,81.5004959 L156.055262,81.0135083 L156.053278,80.7774533 L156.050303,80.5285044 L156.047328,80.2924493 L156.04336,80.0573861 L156.038401,79.8084372 L156.026499,79.3393026 L156.019557,79.1042393 L156.001704,78.6093171 L155.992777,78.3752457 L155.982859,78.1421661 L155.970957,77.8952009 L155.960047,77.6621213 L155.947154,77.4290417 L155.93426,77.1830683 L155.920374,76.9509806 L155.904505,76.7050072 L155.89062,76.4729194 L155.873759,76.2418235 L155.856898,75.996842 L155.838053,75.7518604 L155.821192,75.5207645 L155.801356,75.2906604 L155.781519,75.0466707 L155.761683,74.8165666 L155.740855,74.5864625 L155.717051,74.3434646 L155.695231,74.1143523 L155.672419,73.88524 L155.64564,73.6293484 L155.621836,73.4002361 L155.59704,73.1721156 L155.569269,72.9301096 L155.543482,72.702981 L155.515711,72.4748605 L155.485956,72.2338463 L155.458185,72.0077095 L155.428431,71.7805809 L155.394709,71.5266729 L155.364954,71.3005361 L155.299494,70.8353687 L155.266764,70.6102237 L155.233042,70.3850788 L155.196344,70.1460482 L155.160639,69.9080095 L155.089227,69.4597032 L155.009882,68.9856094 L154.972192,68.7624481 L154.933511,68.5392867 L154.890863,68.3032317 L154.849207,68.0671766 L154.808542,67.8450071 L154.766885,67.6228376 L154.721262,67.3877743 L154.67663,67.1537029 L154.632989,66.9325253 L154.588357,66.7113476 L154.54075,66.4772762 L154.493142,66.2441966 L154.399911,65.8038249 L154.349328,65.5717372 L154.298745,65.3386576 L154.250146,65.1204554 L154.197579,64.8883676 L154.145013,64.6572717 L154.09443,64.4390695 L154.042855,64.2208673 L153.990289,64.003657 L153.877221,63.5434488 L153.820687,63.3143365 L153.766137,63.098118 L153.710595,62.8818994 L153.64811,62.6398934 L153.591576,62.4246667 L153.534051,62.20944 L153.473549,61.9813196 L153.415032,61.7670847 L153.228569,61.0995844 L153.163109,60.8734476 L153.102608,60.6602046 L153.039131,60.4479534 L152.968712,60.2089228 L152.905235,59.9976634 L152.840767,59.7854122 L152.703895,59.3371059 L152.637443,59.1268384 L152.567024,58.9026852 L152.495613,58.6795239 L152.428169,58.4702482 L152.354774,58.2480787 L152.282371,58.0259092 L152.137565,57.5954558 L152.067146,57.387172 L151.994743,57.1788881 L151.918372,56.9587022 L151.836051,56.7256226 L151.763648,56.5193224 L151.689262,56.3120303 L151.609916,56.0928363 L151.53057,55.8746341 L151.455192,55.6683339 L151.37287,55.4511236 L151.292533,55.2329214 L151.214179,55.0286048 L151.131858,54.8113945 L151.052512,54.6070779 L150.883902,54.1746408 L150.798605,53.9594142 L150.717276,53.7560894 L150.634955,53.5537565 L150.542715,53.3276197 L150.460394,53.1252867 L150.376089,52.9239457 L150.281866,52.6978089 L150.192602,52.4855576 L150.108297,52.2842165 L150.022009,52.0848591 L149.83753,51.6603567 L149.750249,51.4619911 L149.656026,51.2507317 L149.562795,51.0404642 L149.46758,50.8301966 L149.373357,50.6199291 L149.283101,50.4225553 L149.191854,50.2251815 L149.093663,50.0168976 L148.996465,49.8086137 L148.897283,49.6003298 L148.799092,49.3930377 L148.705861,49.1976476 L148.604695,48.9913474 L148.504521,48.7850471 L148.409306,48.5906488 L148.307148,48.3843486 L148.204991,48.1790402 L148.101841,47.9747236 L148.004643,47.7813171 L147.89951,47.5770005 L147.795368,47.3736758 L147.695194,47.1812611 L147.482944,46.7765953 L147.375828,46.5742624 L147.267719,46.3719294 L147.166553,46.1814985 L147.062412,45.9920593 L146.94736,45.7807999 L146.733127,45.3910115 L146.622043,45.191654 L146.397891,44.7949228 L146.291766,44.6074673 L146.184649,44.4210036 L145.949587,44.015346 L145.72246,43.6275412 L145.495333,43.2466792 L145.263247,42.8628417 L145.025209,42.475037 L144.789156,42.094175 L144.551118,41.7143048 L144.30713,41.3314592 L144.064134,40.9555564 L143.819154,40.5806454 L143.57219,40.207718 L143.322251,39.8367743 L143.067353,39.4628551 L142.811463,39.0899278 L142.555572,38.7239432 L142.297699,38.3589505 L142.034866,37.9919741 L141.774017,37.6299569 L141.5092,37.2709151 L141.240416,36.9088979 L140.972624,36.5528316 L140.69789,36.1937898 L140.423155,35.8367317 L140.149412,35.4866164 L139.873686,35.1374929 L139.591016,34.7863858 L139.308347,34.4362705 L139.02667,34.0921061 L138.739041,33.74695 L138.449429,33.4017938 L138.158825,33.0596131 L137.869213,32.7233834 L137.57365,32.38517 L137.277096,32.0479485 L136.981533,31.7166779 L136.680019,31.3844155 L136.377513,31.0531449 L136.073024,30.723858 L135.766551,30.3965548 L135.462061,30.0752025 L135.150629,29.7508747 L134.83523,29.4255551 L134.525781,29.1101538 L134.20939,28.7927688 L133.892007,28.4763756 L133.571648,28.162958 L133.247323,27.8475566 L132.928948,27.5410818 L132.602638,27.2336151 L132.273353,26.9241647 L131.949028,26.6236408 L131.618751,26.3221251 L131.283515,26.0196175 L130.950263,25.7210773 L130.615027,25.4255125 L130.277808,25.1319314 L129.938604,24.8403339 L129.595434,24.5477447 L129.253255,24.2601145 L128.909093,23.9754599 L128.564931,23.691797 L128.216801,23.4101179 L127.864705,23.1284387 L127.510624,22.8487432 L127.159519,22.5740068 L126.805439,22.3012541 L126.451358,22.030485 L126.09331,21.7616996 L125.72832,21.4899387 L125.36928,21.2261125 L125.007265,20.9642699 L124.641283,20.7014354 L124.276292,20.4435601 L123.906343,20.1856848 L123.535401,19.930785 L123.166444,19.6788607 L122.795502,19.4299118 L122.419602,19.180963 L122.042709,18.9349896 L121.6678,18.6919917 L121.286941,18.4499857 L120.906081,18.2099633 L120.523238,17.9729164 L120.142378,17.7398368 L119.755568,17.5067572 L119.368757,17.2756613 L118.982938,17.0495245 L118.583234,16.8174367 L118.392804,16.7083356 L118.204358,16.6012182 L118.003018,16.4881498 L117.808621,16.3780569 L117.61224,16.2689558 L117.4109,16.157871 L117.221462,16.0527373 L117.018139,15.9426443 L116.815807,15.8325514 L116.624385,15.7303931 L116.427013,15.6242675 L116.222698,15.5161583 L116.024333,15.4120163 L115.825969,15.3088662 L115.620662,15.2027406 L115.422297,15.0995905 L115.221949,14.998424 L115.022593,14.8962657 L114.816294,14.7931156 L114.615946,14.692941 L114.414606,14.5937582 L114.208307,14.4915999 L114.011926,14.3963844 L113.803644,14.2952179 L113.602304,14.1980188 L113.39898,14.1018115 L113.190698,14.0036205 L112.784051,13.8131895 L112.579735,13.7189658 L112.370461,13.6227585 L112.165154,13.5295267 L111.959846,13.4372867 L111.74958,13.3440548 L111.544273,13.2528066 L111.337974,13.1615584 L111.126716,13.0693184 L110.920417,12.9800539 L110.714118,12.8917812 L110.501868,12.8015249 L110.294577,12.714244 L110.086295,12.6269631 L109.878012,12.5406741 L109.669729,12.4553769 L109.455496,12.368096 L109.242254,12.281807 L109.03298,12.1984934 L108.827672,12.1171635 L108.397222,11.9485527 L108.186955,11.8672228 L107.975697,11.7868847 L107.764439,11.7065467 L107.548222,11.6262086 L107.332005,11.5448787 L107.119755,11.4675161 L106.907505,11.3901535 L106.695255,11.3127909 L106.481022,11.2364202 L106.262821,11.1590576 L106.045612,11.0826868 L105.831378,11.0082997 L105.617145,10.9349044 L105.402911,10.8615092 L105.182726,10.7881139 L104.968493,10.7167023 L104.752276,10.6452906 L104.532091,10.5728872 L104.315874,10.5034592 L104.09569,10.4330394 L103.879472,10.3646033 L103.662263,10.2961672 L103.441087,10.227731 L103.219911,10.1602867 L103.002702,10.0938342 L102.784501,10.0283736 L102.565308,9.96390476 L102.346115,9.90042776 L102.122956,9.83595894 L101.900787,9.77149012 L101.681595,9.70999678 L101.46141,9.64850343 L101.237258,9.58701009 L101.014098,9.52551675 L100.793914,9.46600707 L100.572738,9.40748921 L100.351561,9.34996319 L100.125426,9.29144533 L99.9012742,9.2339193 L99.6830733,9.17837693 L99.4559461,9.12184273 L99.2308025,9.06630036 L99.0076425,9.01274164 L98.7844825,8.95918293 L98.5573553,8.90562421 L98.3312199,8.85305733 L98.1110354,8.80247409 L97.8829163,8.75089903 L97.6557891,8.7003158 L97.4306455,8.6507244 L97.2025264,8.601133 L96.9773828,8.55352525 L96.7522392,8.5059175 L96.5231283,8.45830975 L96.2940174,8.41268566 L96.067882,8.36706157 L95.8407548,8.32242931 L95.6116439,8.27779705 L95.3845166,8.23514844 L95.1563976,8.19249983 L94.9262948,8.14985123 L94.6961921,8.10819445 L94.4650976,8.0675295 L94.2369785,8.02785637 L94.0088595,7.98917508 L93.7767731,7.94950196 L93.548654,7.91181249 L93.3185513,7.87511485 L93.086465,7.83841721 L92.8543786,7.8027114 L92.6242759,7.76799742 L92.3911977,7.73328344 L92.1591114,7.69956128 L91.9300005,7.66782279 L91.6959305,7.63509246 L91.4628523,7.60335396 L91.230766,7.57260729 L90.9976878,7.54285245 L90.7646096,7.51309761 L90.5305396,7.48433459 L90.2964696,7.45656341 L90.0653751,7.42978405 L89.8293214,7.40300469 L89.5952514,7.37721716 L89.3591978,7.35242146 L89.1261196,7.32861759 L88.8910578,7.30481371 L88.6550041,7.28200167 L88.4189505,7.26018145 L88.1838887,7.23836123 L87.9498187,7.21852467 L87.7117814,7.19868811 L87.4757277,7.17885155 L87.2396741,7.16099864 L87.0026286,7.14314574 L86.7645913,7.12628466 L86.5285377,7.11041541 L86.2905004,7.09454616 L86.0534549,7.07966874 L85.8164095,7.06578315 L85.5773804,7.05288938 L85.3393431,7.03999562 L85.100314,7.02809368 L84.8622767,7.01718357 L84.6242394,7.00726529 L84.3842185,6.99734701 L84.1451894,6.98941239 L83.9051684,6.98147776 L83.6661393,6.97354314 L83.4261184,6.96759217 L83.1860975,6.9616412 L82.9460765,6.95668206 L82.7050638,6.95271475 L82.4650428,6.94874744 L82.2240301,6.94676378 L81.9830173,6.94478012 L81.7410128,6.9437883 L81.5,6.94279647 L81.2579954,6.9437883 L81.2579954,6.9437883 Z" id="Fill-1" fill="#266DD3"></path>
                <g id="web-dev" transform="translate(186.000000, 90.000000)" fill="#707070">
                    <g id="Group-2">
                        <polyline id="Fill-14" points="44.987 11.884 34.726 39.007 31.271 39.007 22.712 16.783 14.152 39.007 10.697 39.007 0.488 11.884 3.994 11.884 12.502 34.933 21.216 11.884 24.362 11.884 33.024 34.933 41.635 11.884 44.987 11.884"></polyline>
                        <path d="M73.347,26.58 L50.659,26.58 C50.865,29.399 51.948,31.676 53.908,33.412 C55.867,35.148 58.342,36.016 61.333,36.016 C63.017,36.016 64.564,35.715 65.973,35.114 C67.383,34.512 68.603,33.627 69.634,32.458 L71.697,34.83 C70.494,36.274 68.99,37.374 67.185,38.13 C65.38,38.886 63.395,39.264 61.23,39.264 C58.445,39.264 55.979,38.671 53.83,37.486 C51.682,36.3 50.006,34.658 48.803,32.561 C47.6,30.464 46.998,28.092 46.998,25.445 C46.998,22.798 47.574,20.427 48.725,18.33 C49.877,16.233 51.458,14.6 53.469,13.431 C55.48,12.262 57.74,11.678 60.25,11.678 C62.759,11.678 65.011,12.262 67.005,13.431 C68.999,14.6 70.563,16.224 71.697,18.304 C72.831,20.384 73.399,22.764 73.399,25.445 L73.347,26.58 Z M60.25,14.823 C57.637,14.823 55.446,15.657 53.676,17.324 C51.905,18.991 50.9,21.166 50.659,23.847 L69.892,23.847 C69.652,21.166 68.646,18.991 66.876,17.324 C65.105,15.657 62.897,14.823 60.25,14.823 L60.25,14.823 Z" id="Fill-15"></path>
                        <path d="M94.849,11.678 C97.393,11.678 99.696,12.254 101.759,13.405 C103.821,14.557 105.437,16.181 106.606,18.278 C107.774,20.375 108.359,22.764 108.359,25.445 C108.359,28.127 107.774,30.516 106.606,32.613 C105.437,34.71 103.821,36.343 101.759,37.511 C99.696,38.68 97.393,39.264 94.849,39.264 C92.58,39.264 90.544,38.783 88.739,37.821 C86.934,36.858 85.482,35.466 84.382,33.644 L84.382,39.007 L80.875,39.007 L80.875,0.746 L84.536,0.746 L84.536,17.041 C85.671,15.287 87.123,13.955 88.894,13.044 C90.664,12.133 92.649,11.678 94.849,11.678 Z M94.591,36.016 C96.482,36.016 98.201,35.578 99.748,34.701 C101.295,33.824 102.506,32.578 103.383,30.963 C104.259,29.347 104.698,27.508 104.698,25.445 C104.698,23.383 104.259,21.544 103.383,19.928 C102.506,18.312 101.295,17.066 99.748,16.19 C98.201,15.313 96.482,14.875 94.591,14.875 C92.666,14.875 90.939,15.313 89.409,16.19 C87.879,17.066 86.676,18.312 85.8,19.928 C84.923,21.544 84.485,23.383 84.485,25.445 C84.485,27.508 84.923,29.347 85.8,30.963 C86.676,32.578 87.879,33.824 89.409,34.701 C90.939,35.578 92.666,36.016 94.591,36.016 L94.591,36.016 Z" id="Fill-16"></path>
                        <path d="M154.096,0.746 L154.096,39.007 L150.589,39.007 L150.589,33.644 C149.489,35.466 148.037,36.858 146.232,37.821 C144.428,38.783 142.391,39.264 140.122,39.264 C137.578,39.264 135.275,38.68 133.213,37.511 C131.15,36.343 129.534,34.71 128.366,32.613 C127.197,30.516 126.612,28.127 126.612,25.445 C126.612,22.764 127.197,20.375 128.366,18.278 C129.534,16.181 131.15,14.557 133.213,13.405 C135.275,12.254 137.578,11.678 140.122,11.678 C142.322,11.678 144.307,12.133 146.078,13.044 C147.848,13.955 149.3,15.287 150.435,17.041 L150.435,0.746 L154.096,0.746 Z M140.431,36.016 C142.322,36.016 144.032,35.578 145.562,34.701 C147.092,33.824 148.295,32.578 149.171,30.963 C150.048,29.347 150.486,27.508 150.486,25.445 C150.486,23.383 150.048,21.544 149.171,19.928 C148.295,18.312 147.092,17.066 145.562,16.19 C144.032,15.313 142.322,14.875 140.431,14.875 C138.506,14.875 136.779,15.313 135.249,16.19 C133.72,17.066 132.516,18.312 131.64,19.928 C130.763,21.544 130.325,23.383 130.325,25.445 C130.325,27.508 130.763,29.347 131.64,30.963 C132.516,32.578 133.72,33.824 135.249,34.701 C136.779,35.578 138.506,36.016 140.431,36.016 L140.431,36.016 Z" id="Fill-17"></path>
                        <path d="M187.922,26.58 L165.234,26.58 C165.44,29.399 166.523,31.676 168.482,33.412 C170.442,35.148 172.917,36.016 175.907,36.016 C177.592,36.016 179.139,35.715 180.548,35.114 C181.957,34.512 183.178,33.627 184.209,32.458 L186.272,34.83 C185.068,36.274 183.564,37.374 181.76,38.13 C179.955,38.886 177.97,39.264 175.804,39.264 C173.02,39.264 170.553,38.671 168.405,37.486 C166.256,36.3 164.58,34.658 163.377,32.561 C162.174,30.464 161.573,28.092 161.573,25.445 C161.573,22.798 162.148,20.427 163.3,18.33 C164.452,16.233 166.033,14.6 168.044,13.431 C170.055,12.262 172.315,11.678 174.824,11.678 C177.334,11.678 179.585,12.262 181.579,13.431 C183.573,14.6 185.137,16.224 186.272,18.304 C187.406,20.384 187.973,22.764 187.973,25.445 L187.922,26.58 Z M174.824,14.823 C172.212,14.823 170.02,15.657 168.25,17.324 C166.48,18.991 165.474,21.166 165.234,23.847 L184.467,23.847 C184.226,21.166 183.221,18.991 181.45,17.324 C179.68,15.657 177.471,14.823 174.824,14.823 L174.824,14.823 Z" id="Fill-18"></path>
                        <polyline id="Fill-19" points="217.725 11.884 205.66 39.007 201.895 39.007 189.881 11.884 193.697 11.884 203.855 34.985 214.116 11.884 217.725 11.884"></polyline>
                        <path d="M245.725,26.58 L223.036,26.58 C223.243,29.399 224.326,31.676 226.285,33.412 C228.244,35.148 230.719,36.016 233.71,36.016 C235.395,36.016 236.941,35.715 238.351,35.114 C239.76,34.512 240.981,33.627 242.012,32.458 L244.074,34.83 C242.871,36.274 241.367,37.374 239.563,38.13 C237.758,38.886 235.773,39.264 233.607,39.264 C230.823,39.264 228.356,38.671 226.208,37.486 C224.059,36.3 222.383,34.658 221.18,32.561 C219.977,30.464 219.375,28.092 219.375,25.445 C219.375,22.798 219.951,20.427 221.103,18.33 C222.254,16.233 223.836,14.6 225.847,13.431 C227.858,12.262 230.118,11.678 232.627,11.678 C235.137,11.678 237.388,12.262 239.382,13.431 C241.376,14.6 242.94,16.224 244.074,18.304 C245.209,20.384 245.776,22.764 245.776,25.445 L245.725,26.58 Z M232.627,14.823 C230.015,14.823 227.823,15.657 226.053,17.324 C224.283,18.991 223.277,21.166 223.036,23.847 L242.27,23.847 C242.029,21.166 241.024,18.991 239.253,17.324 C237.483,15.657 235.274,14.823 232.627,14.823 L232.627,14.823 Z" id="Fill-20"></path>
                        <polygon id="Fill-21" points="253.253 39.007 256.914 39.007 256.914 0.746 253.253 0.746"></polygon>
                        <path d="M278.21,39.264 C275.597,39.264 273.242,38.671 271.145,37.486 C269.048,36.3 267.398,34.658 266.195,32.561 C264.992,30.464 264.391,28.092 264.391,25.445 C264.391,22.798 264.992,20.427 266.195,18.33 C267.398,16.233 269.048,14.6 271.145,13.431 C273.242,12.262 275.597,11.678 278.21,11.678 C280.822,11.678 283.177,12.262 285.274,13.431 C287.371,14.6 289.012,16.233 290.198,18.33 C291.384,20.427 291.977,22.798 291.977,25.445 C291.977,28.092 291.384,30.464 290.198,32.561 C289.012,34.658 287.371,36.3 285.274,37.486 C283.177,38.671 280.822,39.264 278.21,39.264 Z M278.21,36.016 C280.135,36.016 281.862,35.578 283.392,34.701 C284.922,33.824 286.116,32.578 286.975,30.963 C287.835,29.347 288.265,27.508 288.265,25.445 C288.265,23.383 287.835,21.544 286.975,19.928 C286.116,18.312 284.922,17.066 283.392,16.19 C281.862,15.313 280.135,14.875 278.21,14.875 C276.285,14.875 274.557,15.313 273.027,16.19 C271.498,17.066 270.295,18.312 269.418,19.928 C268.541,21.544 268.103,23.383 268.103,25.445 C268.103,27.508 268.541,29.347 269.418,30.963 C270.295,32.578 271.498,33.824 273.027,34.701 C274.557,35.578 276.285,36.016 278.21,36.016 L278.21,36.016 Z" id="Fill-22"></path>
                        <path d="M313.428,11.678 C315.971,11.678 318.275,12.254 320.337,13.405 C322.4,14.557 324.015,16.181 325.184,18.278 C326.353,20.375 326.937,22.764 326.937,25.445 C326.937,28.161 326.353,30.567 325.184,32.664 C324.015,34.761 322.408,36.385 320.363,37.537 C318.318,38.689 316.006,39.264 313.428,39.264 C311.228,39.264 309.242,38.809 307.472,37.898 C305.702,36.987 304.249,35.655 303.115,33.902 L303.115,49.01 L299.454,49.01 L299.454,11.884 L302.96,11.884 L302.96,17.247 C304.06,15.459 305.513,14.084 307.317,13.122 C309.122,12.159 311.159,11.678 313.428,11.678 Z M313.17,36.016 C315.061,36.016 316.779,35.578 318.326,34.701 C319.873,33.824 321.085,32.578 321.961,30.963 C322.838,29.347 323.276,27.508 323.276,25.445 C323.276,23.383 322.838,21.552 321.961,19.954 C321.085,18.355 319.873,17.109 318.326,16.215 C316.779,15.322 315.061,14.875 313.17,14.875 C311.245,14.875 309.517,15.322 307.988,16.215 C306.458,17.109 305.255,18.355 304.378,19.954 C303.502,21.552 303.063,23.383 303.063,25.445 C303.063,27.508 303.502,29.347 304.378,30.963 C305.255,32.578 306.458,33.824 307.988,34.701 C309.517,35.578 311.245,36.016 313.17,36.016 L313.17,36.016 Z" id="Fill-23"></path>
                        <path d="M358.03,26.58 L335.342,26.58 C335.548,29.399 336.631,31.676 338.591,33.412 C340.55,35.148 343.025,36.016 346.016,36.016 C347.7,36.016 349.247,35.715 350.657,35.114 C352.066,34.512 353.286,33.627 354.318,32.458 L356.38,34.83 C355.177,36.274 353.673,37.374 351.868,38.13 C350.064,38.886 348.078,39.264 345.913,39.264 C343.128,39.264 340.662,38.671 338.513,37.486 C336.365,36.3 334.689,34.658 333.486,32.561 C332.283,30.464 331.681,28.092 331.681,25.445 C331.681,22.798 332.257,20.427 333.409,18.33 C334.56,16.233 336.141,14.6 338.152,13.431 C340.163,12.262 342.424,11.678 344.933,11.678 C347.443,11.678 349.694,12.262 351.688,13.431 C353.682,14.6 355.246,16.224 356.38,18.304 C357.515,20.384 358.082,22.764 358.082,25.445 L358.03,26.58 Z M344.933,14.823 C342.321,14.823 340.129,15.657 338.359,17.324 C336.588,18.991 335.583,21.166 335.342,23.847 L354.575,23.847 C354.335,21.166 353.329,18.991 351.559,17.324 C349.789,15.657 347.58,14.823 344.933,14.823 L344.933,14.823 Z" id="Fill-24"></path>
                        <path d="M369.065,17.195 C369.924,15.373 371.205,13.998 372.906,13.07 C374.608,12.142 376.714,11.678 379.223,11.678 L379.223,15.236 L378.346,15.184 C375.493,15.184 373.259,16.061 371.643,17.814 C370.027,19.567 369.22,22.025 369.22,25.188 L369.22,39.007 L365.559,39.007 L365.559,11.884 L369.065,11.884 L369.065,17.195" id="Fill-25"></path>
                    </g>
                </g>
            </g>
        </g>
    </g>
</svg>