<?xml version="1.0" encoding="UTF-8"?>
<svg width="380px" height="252px" viewBox="0 0 380 252" version="1.1" xmlns="http://www.w3.org/2000/svg" xmlns:xlink="http://www.w3.org/1999/xlink">
    <!-- Generator: Sketch 43.1 (39012) - http://www.bohemiancoding.com/sketch -->
    <title>vert</title>
    <desc>Created with Sketch.</desc>
    <defs></defs>
    <g id="Page-1" stroke="none" stroke-width="1" fill="none" fill-rule="evenodd">
        <g id="logo-Josh---Outlined-mark" transform="translate(-86.000000, -450.000000)">
            <g id="vert" transform="translate(86.000000, 450.000000)">
                <path d="M190.200553,0 L190.40073,0.000749733965 L190.600908,0.0022492019 L190.801086,0.00449840379 L191.000514,0.00749733965 L191.200692,0.0112460095 L191.40012,0.0149946793 L191.599548,0.0202428171 L191.798226,0.0254909548 L191.997654,0.0314888265 L192.196332,0.0382364322 L192.395011,0.0449840379 L192.593689,0.0532311115 L192.792367,0.0614781852 L192.990296,0.0704749927 L193.188224,0.0802215343 L193.386153,0.0907178098 L193.584082,0.101963819 L193.78201,0.113209829 L193.979189,0.125955306 L194.176368,0.138700784 L194.570725,0.165691206 L194.767155,0.180685886 L194.964333,0.195680565 L195.160763,0.212174712 L195.356442,0.228668859 L195.552871,0.245163007 L195.74855,0.263156622 L195.94423,0.281899971 L196.139909,0.30064332 L196.335589,0.320136403 L196.530518,0.34037922 L196.725448,0.361371771 L196.920378,0.382364322 L197.115307,0.404106607 L197.309487,0.426598626 L197.503667,0.449840379 L197.697847,0.473831866 L197.892027,0.498573087 L198.085457,0.523314308 L198.279637,0.548805263 L198.473067,0.575045951 L198.665748,0.602036374 L198.859178,0.629026797 L199.051858,0.656766954 L199.244539,0.685256844 L199.436469,0.714496469 L199.62915,0.744485828 L199.821081,0.774475186 L200.013011,0.805214279 L200.204192,0.836703105 L200.396123,0.868941666 L200.587304,0.90192996 L200.778485,0.934918255 L200.968916,0.968656283 L201.160097,1.00314405 L201.350529,1.03838154 L201.54021,1.07361904 L201.730642,1.10960627 L201.920323,1.14634323 L202.110005,1.18382993 L202.299686,1.22206636 L202.488618,1.2603028 L202.67755,1.29928896 L202.866482,1.33902486 L203.054664,1.37876076 L203.243596,1.41999613 L203.431778,1.4612315 L203.61921,1.5032166 L203.807392,1.5452017 L203.994824,1.58868627 L204.182257,1.63217084 L204.368939,1.67640515 L204.556372,1.72138918 L204.743054,1.76637322 L204.928987,1.81210699 L205.11567,1.8585905 L205.301603,1.90582374 L205.486786,1.95305698 L205.672719,2.00103995 L205.857902,2.04977266 L206.043085,2.0992551 L206.228268,2.14873754 L206.412702,2.19896972 L206.597135,2.24995163 L206.781569,2.30168327 L206.965252,2.35341492 L207.148936,2.40589629 L207.33262,2.45912741 L207.515554,2.51235852 L208.064356,2.67655026 L208.24654,2.7327803 L208.428724,2.78901035 L208.610159,2.84599013 L208.973028,2.96144916 L209.154462,3.01992841 L209.335147,3.0791574 L209.515832,3.13838638 L209.696517,3.19911483 L209.876452,3.25984328 L210.056387,3.32057173 L210.235572,3.38279965 L210.415507,3.44502757 L210.594693,3.50800522 L210.773128,3.57098288 L210.952314,3.63471026 L211.129999,3.69918739 L211.308435,3.76441424 L211.486121,3.8296411 L211.663807,3.89561768 L211.841493,3.96234401 L212.195365,4.09729612 L212.372301,4.16552191 L212.548488,4.2337477 L212.724674,4.30347296 L212.900111,4.37319822 L213.075547,4.44292348 L213.426421,4.58537293 L213.601108,4.65659766 L213.775045,4.72932185 L213.949732,4.80204605 L214.123669,4.87551998 L214.296857,4.94899391 L214.470794,5.02321757 L214.643981,5.09819096 L214.816419,5.17391409 L214.989607,5.24963723 L215.161295,5.32611009 L215.333732,5.40258295 L215.50542,5.48055529 L215.677108,5.55777789 L216.018985,5.71522202 L216.189923,5.79469382 L216.530301,5.95513689 L216.699739,6.03610816 L216.869928,6.11782916 L217.038617,6.19955016 L217.208056,6.2820209 L217.376745,6.36449163 L217.544684,6.44846184 L217.880563,6.61640224 L218.048503,6.70112218 L218.215692,6.78659185 L218.382132,6.87281126 L218.549322,6.95903067 L218.715762,7.04599981 L218.881452,7.13296895 L219.047142,7.22068782 L219.212832,7.30915643 L219.542713,7.48759311 L219.706904,7.57756119 L219.871845,7.66752926 L220.035286,7.75824707 L220.199476,7.84971462 L220.362168,7.94118216 L220.525609,8.03339944 L220.6883,8.12561672 L220.850991,8.21933346 L221.012933,8.31230047 L221.174874,8.40676695 L221.336066,8.50123343 L221.65845,8.69166586 L221.818892,8.78763181 L221.979334,8.88434749 L222.139026,8.98106317 L222.298719,9.07852859 L222.457661,9.175994 L222.617354,9.27420915 L222.775547,9.37317404 L223.091933,9.57260327 L223.407569,9.77278224 L223.720956,9.97596014 L224.033593,10.1798878 L224.34473,10.3860646 L224.654369,10.5944907 L224.963257,10.8044162 L225.270646,11.0158412 L225.576536,11.2295153 L225.880926,11.444689 L226.184566,11.6621118 L226.485958,11.8810341 L226.786599,12.1014559 L227.085741,12.3233772 L227.383384,12.5475476 L227.679527,12.7739673 L227.97492,13.0011367 L228.268065,13.2305553 L228.560459,13.4614733 L228.851354,13.6946406 L229.14,13.9285576 L229.427896,14.1647238 L229.714293,14.4031392 L229.99919,14.6423043 L230.283337,14.8837187 L230.565236,15.1266325 L230.845634,15.3710458 L231.124534,15.6169585 L231.401934,15.8651204 L231.678584,16.1140321 L231.952985,16.365193 L232.225886,16.6178533 L232.497288,16.8720132 L232.767191,17.1284222 L233.035594,17.3855809 L233.302498,17.6449889 L233.567902,17.9058963 L233.831807,18.1675534 L234.094212,18.4314598 L234.355118,18.6968656 L234.613774,18.9637709 L234.871681,19.2321757 L235.127339,19.5020799 L235.381497,19.7742333 L235.634156,20.0471365 L235.885316,20.3215391 L236.134975,20.5974412 L236.382386,20.8748428 L236.629047,21.1544936 L236.873459,21.4348941 L237.116371,21.716794 L237.357784,22.0001935 L237.596948,22.2850924 L237.834612,22.5714908 L238.070777,22.8593886 L238.305442,23.1487859 L238.537858,23.4396827 L238.768775,23.7313292 L238.998192,24.0252249 L239.22611,24.3198704 L239.451778,24.6160153 L239.675948,24.9144094 L239.898617,25.2135533 L240.119038,25.5134468 L240.337959,25.8155896 L240.55463,26.1184822 L240.769803,26.4236239 L240.983476,26.7295153 L241.195649,27.0369063 L241.405573,27.3450469 L241.613248,27.654687 L241.819424,27.9665764 L242.0241,28.2784657 L242.226527,28.5926042 L242.427455,28.9074925 L242.527169,29.0656864 L242.626133,29.2238802 L242.725097,29.3828238 L242.823312,29.5417674 L242.921526,29.7014608 L243.018991,29.8604044 L243.115706,30.0208474 L243.403602,30.5021766 L243.498818,30.6633694 L243.593284,30.825312 L243.780716,31.1491971 L243.966649,31.4745816 L244.058866,31.6372739 L244.2418,31.9641579 L244.332517,32.1283496 L244.422485,32.2925414 L244.512452,32.4574828 L244.60167,32.6216746 L244.690138,32.7873658 L244.778606,32.9523072 L244.866324,33.1187482 L244.954043,33.2844394 L245.041011,33.4508803 L245.12723,33.6173213 L245.298169,33.9517026 L245.382888,34.1188933 L245.467607,34.2868337 L245.551577,34.4547741 L245.718017,34.7921544 L245.800487,34.9608445 L245.963928,35.2997243 L246.044149,35.4699139 L246.12512,35.6401035 L246.284063,35.9804827 L246.363534,36.1514221 L246.519478,36.4948002 L246.673922,36.8381784 L246.750395,37.0106172 L246.826117,37.183056 L246.976063,37.5294331 L247.050286,37.7026217 L247.12451,37.8765599 L247.197983,38.0504982 L247.270707,38.2244365 L247.414655,38.5738125 L247.485879,38.7485005 L247.626828,39.099376 L247.696553,39.2755635 L247.834503,39.6279385 L247.902729,39.8048757 L247.970204,39.9810632 L248.03693,40.1587501 L248.103656,40.3356873 L248.169632,40.5133743 L248.234859,40.6910612 L248.300085,40.8694979 L248.364562,41.0479346 L248.428289,41.2263713 L248.492016,41.4055577 L248.554993,41.5847441 L248.617221,41.7639305 L248.740176,42.1238028 L248.800905,42.303739 L248.860883,42.4844249 L248.920861,42.664361 L248.97934,42.8457967 L249.037819,43.0264825 L249.096298,43.2079182 L249.153277,43.3893538 L249.267236,43.7537245 L249.378196,44.1180952 L249.432926,44.3010303 L249.486907,44.4839654 L249.540887,44.6676502 L249.593369,44.851335 L249.646599,45.0350198 L249.698331,45.2187047 L249.800294,45.5875738 L249.850526,45.7720083 L249.900758,45.9571926 L249.94949,46.1416272 L249.998222,46.3275612 L250.046955,46.5127455 L250.141421,46.8846135 L250.187154,47.0705475 L250.233637,47.2572313 L250.323605,47.6305988 L250.367839,47.8180323 L250.411323,48.0054658 L250.496792,48.3803328 L250.538777,48.568516 L250.580012,48.7566992 L250.620498,48.9448825 L250.660983,49.1338154 L250.699969,49.3219986 L250.739705,49.5116813 L250.777941,49.7006143 L250.852914,50.0799797 L250.889651,50.2696624 L250.925638,50.4593451 L250.961625,50.6497775 L251.0306,51.0306424 L251.098075,51.4130067 L251.162552,51.795371 L251.194041,51.9873029 L251.255519,52.3711667 L251.284758,52.5630986 L251.313998,52.7557802 L251.342487,52.9484618 L251.397967,53.3338251 L251.424958,53.5272565 L251.451198,53.7206878 L251.476689,53.9141192 L251.50143,54.1083003 L251.549413,54.4959127 L251.572654,54.6900938 L251.617638,55.0792058 L251.659623,55.4690674 L251.679866,55.664748 L251.699358,55.8596788 L251.718102,56.0553594 L251.736095,56.25104 L251.754089,56.4474703 L251.771333,56.6431508 L251.787827,56.8395811 L251.819315,57.2324417 L251.847805,57.626052 L251.8613,57.8232321 L251.874045,58.0204121 L251.898037,58.4155219 L251.919029,58.8113814 L251.928776,59.0093112 L251.946769,59.4059205 L251.961764,59.8032795 L251.968511,60.0027087 L251.974509,60.2013882 L251.979757,60.4008175 L251.988754,60.7996759 L251.994752,61.1992841 L251.997001,61.3994631 L251.998501,61.5988923 L252,62 L251.998501,62.4003579 L251.997001,62.6005369 L251.994752,62.8007159 L251.988754,63.2003241 L251.979757,63.5991825 L251.974509,63.7986118 L251.968511,63.9972913 L251.961764,64.1967205 L251.946769,64.5933298 L251.928776,64.9906888 L251.919029,65.1886186 L251.898037,65.5844781 L251.874045,65.9795879 L251.8613,66.1767679 L251.847805,66.373948 L251.819315,66.7675583 L251.787827,67.1604189 L251.771333,67.3568492 L251.754089,67.5525297 L251.736095,67.74896 L251.718102,67.9446406 L251.699358,68.1403212 L251.679866,68.335252 L251.659623,68.5309326 L251.617638,68.9207942 L251.572654,69.3099062 L251.549413,69.5040873 L251.50143,69.8916997 L251.476689,70.0858808 L251.451198,70.2793122 L251.424958,70.4727435 L251.397967,70.6661749 L251.342487,71.0515382 L251.313998,71.2442198 L251.284758,71.4369014 L251.255519,71.6288333 L251.194041,72.0126971 L251.162552,72.204629 L251.098075,72.5869933 L251.0306,72.9693576 L250.961625,73.3502225 L250.925638,73.5406549 L250.889651,73.7303376 L250.852914,73.9200203 L250.777941,74.2993857 L250.739705,74.4883187 L250.699969,74.6772516 L250.660983,74.8661846 L250.620498,75.0551175 L250.580012,75.2433008 L250.538777,75.431484 L250.496792,75.6196672 L250.411323,75.9945342 L250.367839,76.1819677 L250.323605,76.3694012 L250.233637,76.7427687 L250.187154,76.9294525 L250.141421,77.1153865 L250.046955,77.4872545 L249.998222,77.6724388 L249.94949,77.8583728 L249.900758,78.0428074 L249.850526,78.2279917 L249.800294,78.4124262 L249.698331,78.7812953 L249.646599,78.9649802 L249.593369,79.148665 L249.540887,79.3323498 L249.486907,79.5160346 L249.432926,79.6989697 L249.378196,79.8811551 L249.322716,80.0640902 L249.267236,80.2462755 L249.153277,80.6106462 L249.096298,80.7920818 L249.037819,80.9735175 L248.920861,81.3348892 L248.800905,81.696261 L248.740176,81.8761972 L248.617221,82.2360695 L248.554993,82.4152559 L248.492016,82.5944423 L248.428289,82.7736287 L248.364562,82.9520654 L248.300085,83.1305021 L248.234859,83.308189 L248.169632,83.4866257 L248.103656,83.6643127 L248.03693,83.8412499 L247.970204,84.0189368 L247.902729,84.1951243 L247.834503,84.3720615 L247.696553,84.7244365 L247.626828,84.900624 L247.556354,85.0760617 L247.485879,85.2507497 L247.414655,85.4261875 L247.270707,85.7755635 L247.197983,85.9495018 L247.12451,86.1234401 L247.050286,86.2973783 L246.976063,86.4705669 L246.826117,86.816944 L246.750395,86.9893828 L246.673922,87.1618216 L246.519478,87.5051998 L246.363534,87.8485779 L246.284063,88.0195173 L246.12512,88.3598965 L246.044149,88.5300861 L245.963928,88.7002757 L245.800487,89.0391555 L245.718017,89.2078456 L245.551577,89.5452259 L245.467607,89.7131663 L245.382888,89.8811067 L245.298169,90.0482974 L245.12723,90.3826787 L245.041011,90.5491197 L244.954043,90.7155606 L244.866324,90.8812518 L244.778606,91.0476928 L244.60167,91.3775757 L244.512452,91.5425172 L244.422485,91.7074586 L244.332517,91.8716504 L244.2418,92.0358421 L244.058866,92.3627261 L243.966649,92.5254184 L243.780716,92.8508029 L243.593284,93.174688 L243.498818,93.3366306 L243.403602,93.4978234 L243.115706,93.9791526 L243.018991,94.1388459 L242.921526,94.2985392 L242.823312,94.4582326 L242.725097,94.6171762 L242.626133,94.7761198 L242.527169,94.9343136 L242.427455,95.0925075 L242.226527,95.4073958 L242.0241,95.7207846 L241.819424,96.0334236 L241.613248,96.3445632 L241.405573,96.6549531 L241.195649,96.9630937 L240.983476,97.2704847 L240.769803,97.5763761 L240.55463,97.8815178 L240.337959,98.1844104 L240.119038,98.4865532 L239.898617,98.7864467 L239.675948,99.0855906 L239.451778,99.383235 L239.22611,99.6801296 L238.998192,99.9747751 L238.768775,100.268671 L238.537858,100.560317 L238.305442,100.851214 L238.070777,101.140611 L237.834612,101.428509 L237.596948,101.714908 L237.357784,101.999807 L237.116371,102.283206 L236.873459,102.565106 L236.629047,102.845506 L236.382386,103.125157 L236.134975,103.402559 L235.885316,103.678461 L235.634156,103.952864 L235.381497,104.225767 L235.127339,104.49792 L234.871681,104.767824 L234.613774,105.036229 L234.355118,105.303134 L234.094212,105.56854 L233.831807,105.832447 L233.567902,106.094104 L233.302498,106.355011 L233.035594,106.614419 L232.767191,106.871578 L232.497288,107.127237 L232.225886,107.382147 L231.952985,107.634807 L231.678584,107.885968 L231.401934,108.13488 L231.124534,108.383042 L230.845634,108.628954 L230.565236,108.873368 L230.283337,109.116281 L229.99919,109.357696 L229.714293,109.596861 L229.427896,109.835276 L229.14,110.071442 L228.851354,110.305359 L228.560459,110.538527 L228.268065,110.769445 L227.97492,110.998863 L227.679527,111.226033 L227.383384,111.452452 L227.085741,111.675873 L226.786599,111.898544 L226.485958,112.118966 L226.184566,112.337888 L225.880926,112.555311 L225.576536,112.770485 L225.270646,112.984159 L224.963257,113.195584 L224.654369,113.405509 L224.34473,113.613935 L224.033593,113.820112 L223.720956,114.02404 L223.407569,114.227218 L223.091933,114.427397 L222.775547,114.626826 L222.617354,114.725041 L222.457661,114.824006 L222.298719,114.921471 L222.139026,115.018937 L221.979334,115.115653 L221.818892,115.212368 L221.65845,115.308334 L221.497258,115.40355 L221.336066,115.498767 L221.174874,115.593233 L220.850991,115.780667 L220.6883,115.874383 L220.525609,115.966601 L220.362168,116.058818 L220.199476,116.150285 L220.035286,116.241753 L219.871845,116.332471 L219.706904,116.422439 L219.542713,116.512407 L219.212832,116.690844 L219.047142,116.778562 L218.881452,116.867031 L218.715762,116.954 L218.549322,117.040969 L218.382132,117.127189 L218.215692,117.213408 L218.048503,117.298878 L217.880563,117.383598 L217.376745,117.635508 L217.208056,117.717979 L217.038617,117.80045 L216.869928,117.882171 L216.699739,117.963892 L216.530301,118.044863 L216.189923,118.205306 L216.018985,118.284778 L215.848047,118.3635 L215.677108,118.441472 L215.333732,118.597417 L215.161295,118.67389 L214.989607,118.750363 L214.816419,118.826086 L214.643981,118.901809 L214.470794,118.976782 L214.296857,119.051006 L214.123669,119.12448 L213.949732,119.197954 L213.775045,119.270678 L213.601108,119.343402 L213.426421,119.414627 L213.250984,119.485852 L213.075547,119.557077 L212.900111,119.626802 L212.724674,119.696527 L212.548488,119.766252 L212.372301,119.834478 L212.195365,119.902704 L211.841493,120.037656 L211.663807,120.103633 L211.486121,120.169609 L211.308435,120.235586 L211.129999,120.300813 L210.952314,120.36454 L210.773128,120.429017 L210.594693,120.491995 L210.415507,120.554972 L210.235572,120.6172 L210.056387,120.679428 L209.876452,120.740157 L209.696517,120.800885 L209.515832,120.860864 L209.335147,120.920843 L209.154462,120.980072 L208.973028,121.038551 L208.610159,121.15401 L208.428724,121.21099 L208.24654,121.26722 L208.064356,121.3227 L207.881422,121.37818 L207.698488,121.432911 L207.515554,121.486892 L207.33262,121.540873 L207.148936,121.594104 L206.965252,121.646585 L206.781569,121.698317 L206.597135,121.750048 L206.412702,121.80103 L206.228268,121.851262 L206.043085,121.900745 L205.857902,121.950227 L205.672719,121.99896 L205.486786,122.046943 L205.301603,122.094176 L205.11567,122.141409 L204.928987,122.187893 L204.743054,122.233627 L204.556372,122.278611 L204.368939,122.323595 L204.182257,122.367829 L203.994824,122.411314 L203.807392,122.454798 L203.61921,122.496783 L203.431778,122.538769 L203.243596,122.580004 L203.054664,122.62049 L202.866482,122.660975 L202.67755,122.700711 L202.488618,122.739697 L202.299686,122.777934 L202.110005,122.81617 L201.920323,122.852907 L201.730642,122.889644 L201.54021,122.926381 L201.350529,122.961618 L201.160097,122.996856 L200.968916,123.031344 L200.778485,123.065082 L200.587304,123.09807 L200.396123,123.131058 L200.204192,123.162547 L200.013011,123.194036 L199.821081,123.225525 L199.62915,123.255514 L199.436469,123.285504 L199.244539,123.314743 L199.051858,123.343233 L198.859178,123.370973 L198.665748,123.397964 L198.473067,123.424954 L198.279637,123.451195 L198.085457,123.476686 L197.892027,123.501427 L197.697847,123.526168 L197.503667,123.55016 L197.309487,123.572652 L197.115307,123.595893 L196.920378,123.617636 L196.725448,123.638628 L196.530518,123.659621 L196.335589,123.679864 L196.139909,123.699357 L195.94423,123.7181 L195.74855,123.736843 L195.552871,123.754087 L195.356442,123.771331 L195.160763,123.787825 L194.964333,123.804319 L194.767155,123.819314 L194.570725,123.834309 L194.373547,123.847804 L194.176368,123.861299 L193.979189,123.874045 L193.78201,123.88679 L193.386153,123.909282 L193.188224,123.919778 L192.990296,123.929525 L192.792367,123.938522 L192.593689,123.946769 L192.395011,123.955016 L192.196332,123.961764 L191.997654,123.968511 L191.798226,123.974509 L191.599548,123.979757 L191.40012,123.985005 L191.200692,123.988754 L191.000514,123.992503 L190.801086,123.995502 L190.600908,123.997001 L190.40073,123.99925 L190.200553,124 L189.799447,124 L189.59927,123.99925 L189.399092,123.997001 L189.198914,123.995502 L188.999486,123.992503 L188.800058,123.988754 L188.59988,123.985005 L188.401202,123.979757 L188.201774,123.974509 L188.002346,123.968511 L187.803668,123.961764 L187.604989,123.955016 L187.406311,123.946769 L187.207633,123.938522 L187.009704,123.929525 L186.811776,123.919778 L186.613847,123.909282 L186.415918,123.898036 L186.21799,123.88679 L186.020811,123.874045 L185.823632,123.861299 L185.626453,123.847804 L185.429275,123.834309 L185.232845,123.819314 L185.036416,123.804319 L184.839987,123.787825 L184.643558,123.771331 L184.447129,123.754087 L184.25145,123.736843 L184.05577,123.7181 L183.860091,123.699357 L183.664411,123.679864 L183.469482,123.659621 L183.274552,123.638628 L183.079622,123.617636 L182.884693,123.595893 L182.690513,123.572652 L182.496333,123.55016 L182.302153,123.526168 L182.107973,123.501427 L181.914543,123.476686 L181.721113,123.451195 L181.527683,123.424954 L181.334252,123.397964 L181.141572,123.370973 L180.948142,123.343233 L180.755461,123.314743 L180.563531,123.285504 L180.37085,123.255514 L180.178919,123.225525 L179.986989,123.194036 L179.795808,123.162547 L179.603877,123.131058 L179.412696,123.09807 L179.221515,123.065082 L179.031084,123.031344 L178.840652,122.996856 L178.650221,122.961618 L178.45979,122.926381 L178.269358,122.889644 L178.079677,122.852907 L177.889995,122.81617 L177.701064,122.777934 L177.511382,122.739697 L177.32245,122.700711 L177.133518,122.660975 L176.945336,122.62049 L176.756404,122.580004 L176.568222,122.538769 L176.38079,122.496783 L176.192608,122.454798 L176.005176,122.411314 L175.817743,122.367829 L175.631061,122.323595 L175.257695,122.233627 L175.071013,122.187893 L174.88508,122.141409 L174.698397,122.094176 L174.513214,122.046943 L174.327281,121.99896 L174.142098,121.950227 L173.956915,121.900745 L173.772481,121.851262 L173.587298,121.80103 L173.402865,121.750048 L173.219181,121.698317 L173.034748,121.646585 L172.851064,121.594104 L172.66738,121.540873 L172.484446,121.486892 L172.301512,121.432911 L172.118578,121.37818 L171.936394,121.3227 L171.75346,121.26722 L171.572025,121.21099 L171.389841,121.15401 L171.026972,121.038551 L170.845538,120.980072 L170.664853,120.920843 L170.484168,120.860864 L170.304233,120.800885 L170.123548,120.740157 L169.943613,120.679428 L169.764428,120.6172 L169.584493,120.554972 L169.406057,120.491995 L169.226872,120.429017 L169.048436,120.36454 L168.870001,120.300813 L168.691565,120.235586 L168.513879,120.169609 L168.158507,120.037656 L167.804635,119.902704 L167.628449,119.834478 L167.451512,119.766252 L167.276076,119.696527 L167.099889,119.626802 L166.924453,119.557077 L166.749016,119.485852 L166.574329,119.414627 L166.398892,119.343402 L166.224955,119.270678 L166.050268,119.197954 L165.876331,119.12448 L165.703143,119.051006 L165.529206,118.976782 L165.356019,118.901809 L165.011143,118.750363 L164.666268,118.597417 L164.322892,118.441472 L164.151953,118.3635 L163.981015,118.284778 L163.810077,118.205306 L163.639888,118.125085 L163.469699,118.044863 L163.300261,117.963892 L163.130822,117.882171 L162.961383,117.80045 L162.792694,117.717979 L162.624005,117.635508 L162.455316,117.551538 L162.119437,117.383598 L161.951497,117.298878 L161.784308,117.213408 L161.617868,117.127189 L161.450678,117.040969 L161.284988,116.954 L161.118548,116.867031 L160.952858,116.778562 L160.787168,116.690844 L160.622227,116.601625 L160.457287,116.512407 L160.293096,116.422439 L160.128905,116.332471 L159.964714,116.241753 L159.637832,116.058818 L159.474391,115.966601 L159.3117,115.874383 L159.149009,115.780667 L158.825126,115.593233 L158.663934,115.498767 L158.502742,115.40355 L158.34155,115.308334 L158.181108,115.212368 L158.020666,115.115653 L157.860974,115.018937 L157.701281,114.921471 L157.542339,114.824006 L157.383396,114.725041 L157.224453,114.626826 L156.908067,114.427397 L156.593181,114.227218 L156.279044,114.02404 L155.966407,113.820112 L155.65527,113.613935 L155.345631,113.405509 L155.036743,113.195584 L154.729354,112.984159 L154.423464,112.770485 L154.119074,112.555311 L153.816183,112.337888 L153.514042,112.118966 L153.213401,111.898544 L152.914259,111.675873 L152.616616,111.452452 L152.320473,111.226033 L152.02508,110.998863 L151.731935,110.769445 L151.439541,110.538527 L151.148646,110.305359 L150.86,110.071442 L150.572104,109.835276 L150.285707,109.596861 L150.00081,109.357696 L149.717412,109.116281 L149.434764,108.873368 L149.154366,108.628954 L148.875466,108.383042 L148.598066,108.13488 L148.322166,107.885968 L148.047015,107.634807 L147.774114,107.382147 L147.502712,107.127237 L147.232809,106.871578 L146.964406,106.614419 L146.697502,106.355011 L146.432098,106.094104 L146.168193,105.832447 L145.905788,105.56854 L145.644882,105.303134 L145.386226,105.036229 L145.128319,104.767824 L144.872661,104.49792 L144.618503,104.225767 L144.365844,103.952864 L144.114684,103.678461 L143.865025,103.402559 L143.617614,103.125157 L143.370953,102.845506 L143.126541,102.565106 L142.883629,102.283206 L142.642966,101.999807 L142.403052,101.714908 L142.165388,101.428509 L141.929223,101.140611 L141.694558,100.851214 L141.462142,100.560317 L141.231225,100.268671 L141.001808,99.9747751 L140.77389,99.6801296 L140.548222,99.383235 L140.324052,99.0855906 L140.101383,98.7864467 L139.880962,98.4865532 L139.662041,98.1844104 L139.44537,97.8815178 L139.230197,97.5763761 L139.016524,97.2704847 L138.805101,96.9630937 L138.595176,96.6549531 L138.386752,96.3445632 L138.180576,96.0334236 L137.9759,95.7207846 L137.773473,95.4073958 L137.572545,95.0925075 L137.472831,94.9343136 L137.373867,94.7761198 L137.274903,94.6171762 L137.176688,94.4582326 L137.078474,94.2985392 L136.981759,94.1388459 L136.884294,93.9791526 L136.596398,93.4978234 L136.501932,93.3366306 L136.313,93.0127455 L136.219284,92.8508029 L136.033351,92.5254184 L135.941134,92.3627261 L135.849667,92.1992841 L135.75895,92.0358421 L135.577515,91.7074586 L135.487548,91.5425172 L135.39833,91.3775757 L135.221394,91.0476928 L135.133676,90.8812518 L135.045957,90.7155606 L134.959738,90.5491197 L134.87277,90.3826787 L134.701831,90.0482974 L134.617112,89.8811067 L134.532393,89.7131663 L134.448423,89.5452259 L134.281983,89.2078456 L134.199513,89.0391555 L134.117792,88.8697156 L134.036821,88.7002757 L133.87488,88.3598965 L133.715937,88.0195173 L133.637216,87.8485779 L133.558494,87.6768888 L133.480522,87.5051998 L133.326078,87.1618216 L133.249605,86.9893828 L133.173883,86.816944 L133.023937,86.4705669 L132.949714,86.2973783 L132.87549,86.1234401 L132.802017,85.9495018 L132.729293,85.7755635 L132.585345,85.4261875 L132.514121,85.2507497 L132.443646,85.0760617 L132.373172,84.900624 L132.303447,84.7244365 L132.165497,84.3720615 L132.098021,84.1951243 L132.029796,84.0189368 L131.96307,83.8412499 L131.896344,83.6643127 L131.830368,83.4866257 L131.765141,83.308189 L131.699915,83.1305021 L131.635438,82.9520654 L131.571711,82.7736287 L131.507984,82.5944423 L131.445007,82.4152559 L131.382779,82.2360695 L131.259824,81.8761972 L131.199095,81.696261 L131.139117,81.5155751 L131.02066,81.1542033 L130.962181,80.9735175 L130.903702,80.7920818 L130.846723,80.6106462 L130.789743,80.4284609 L130.677284,80.0640902 L130.621804,79.8811551 L130.567074,79.6989697 L130.513093,79.5160346 L130.406631,79.148665 L130.301669,78.7812953 L130.199706,78.4124262 L130.149474,78.2279917 L130.099242,78.0428074 L130.05051,77.8583728 L130.001778,77.6724388 L129.953795,77.4872545 L129.905812,77.3013205 L129.812846,76.9294525 L129.721379,76.5560849 L129.676395,76.3694012 L129.632911,76.1819677 L129.588677,75.9945342 L129.503208,75.6196672 L129.461972,75.431484 L129.419988,75.2433008 L129.379502,75.0551175 L129.339017,74.8661846 L129.222059,74.2993857 L129.147086,73.9200203 L129.110349,73.7303376 L129.074362,73.5406549 L129.038375,73.3502225 L128.9694,72.9693576 L128.901925,72.5869933 L128.837448,72.204629 L128.805959,72.0126971 L128.744481,71.6288333 L128.715242,71.4369014 L128.686002,71.2442198 L128.657513,71.0515382 L128.602033,70.6661749 L128.575042,70.4727435 L128.549552,70.2793122 L128.523311,70.0858808 L128.49857,69.8916997 L128.450587,69.5040873 L128.427346,69.3099062 L128.404854,69.1149753 L128.36137,68.7258634 L128.340377,68.5309326 L128.320884,68.335252 L128.300642,68.1403212 L128.281898,67.9446406 L128.245911,67.5525297 L128.228667,67.3568492 L128.212173,67.1604189 L128.196429,66.9639886 L128.181435,66.7675583 L128.16644,66.5703783 L128.152195,66.373948 L128.1387,66.1767679 L128.125955,65.9795879 L128.101963,65.5844781 L128.080971,65.1886186 L128.071224,64.9906888 L128.053231,64.5933298 L128.038236,64.1967205 L128.031489,63.9972913 L128.025491,63.7986118 L128.020243,63.5991825 L128.011246,63.2003241 L128.005248,62.8007159 L128.002999,62.6005369 L128.001499,62.4003579 L128,62 L128.001499,61.5988923 L128.002999,61.3994631 L128.005248,61.1992841 L128.011246,60.7996759 L128.020243,60.4008175 L128.025491,60.2013882 L128.031489,60.0027087 L128.038236,59.8032795 L128.053231,59.4059205 L128.071224,59.0093112 L128.080971,58.8113814 L128.101963,58.4155219 L128.125955,58.0204121 L128.1387,57.8232321 L128.152195,57.626052 L128.16644,57.4296217 L128.181435,57.2324417 L128.196429,57.0360114 L128.212173,56.8395811 L128.228667,56.6431508 L128.245911,56.4474703 L128.281898,56.0553594 L128.300642,55.8596788 L128.320884,55.664748 L128.340377,55.4690674 L128.36137,55.2741366 L128.404854,54.8850247 L128.427346,54.6900938 L128.450587,54.4959127 L128.49857,54.1083003 L128.523311,53.9141192 L128.549552,53.7206878 L128.575042,53.5272565 L128.602033,53.3338251 L128.657513,52.9484618 L128.686002,52.7557802 L128.715242,52.5630986 L128.744481,52.3711667 L128.805959,51.9873029 L128.837448,51.795371 L128.901925,51.4130067 L128.9694,51.0306424 L129.038375,50.6497775 L129.074362,50.4593451 L129.110349,50.2696624 L129.147086,50.0799797 L129.222059,49.7006143 L129.261045,49.5116813 L129.300031,49.3219986 L129.339017,49.1338154 L129.379502,48.9448825 L129.419988,48.7566992 L129.461972,48.568516 L129.503208,48.3803328 L129.588677,48.0054658 L129.632911,47.8180323 L129.676395,47.6305988 L129.721379,47.4439151 L129.812846,47.0705475 L129.905812,46.6986795 L129.953795,46.5127455 L130.001778,46.3275612 L130.05051,46.1416272 L130.099242,45.9571926 L130.149474,45.7720083 L130.199706,45.5875738 L130.301669,45.2187047 L130.406631,44.851335 L130.513093,44.4839654 L130.567074,44.3010303 L130.621804,44.1180952 L130.677284,43.9359098 L130.789743,43.5715391 L130.846723,43.3893538 L130.903702,43.2079182 L130.962181,43.0264825 L131.02066,42.8457967 L131.079889,42.664361 L131.139117,42.4844249 L131.199095,42.303739 L131.259824,42.1238028 L131.382779,41.7639305 L131.445007,41.5847441 L131.507984,41.4055577 L131.571711,41.2263713 L131.635438,41.0479346 L131.699915,40.8694979 L131.765141,40.6910612 L131.830368,40.5133743 L131.896344,40.3356873 L131.96307,40.1587501 L132.029796,39.9810632 L132.098021,39.8048757 L132.165497,39.6279385 L132.303447,39.2755635 L132.373172,39.099376 L132.514121,38.7485005 L132.585345,38.5738125 L132.729293,38.2244365 L132.802017,38.0504982 L132.87549,37.8765599 L132.949714,37.7026217 L133.023937,37.5294331 L133.173883,37.183056 L133.249605,37.0106172 L133.326078,36.8381784 L133.480522,36.4948002 L133.558494,36.3231112 L133.637216,36.1514221 L133.715937,35.9804827 L133.87488,35.6401035 L134.036821,35.2997243 L134.117792,35.1302844 L134.199513,34.9608445 L134.281983,34.7921544 L134.448423,34.4547741 L134.532393,34.2868337 L134.617112,34.1188933 L134.701831,33.9517026 L134.87277,33.6173213 L134.959738,33.4508803 L135.045957,33.2844394 L135.133676,33.1187482 L135.221394,32.9523072 L135.309862,32.7873658 L135.39833,32.6216746 L135.487548,32.4574828 L135.577515,32.2925414 L135.75895,31.9641579 L135.849667,31.8007159 L135.941134,31.6372739 L136.033351,31.4745816 L136.219284,31.1491971 L136.313,30.9872545 L136.501932,30.6633694 L136.596398,30.5021766 L136.884294,30.0208474 L136.981759,29.8604044 L137.078474,29.7014608 L137.176688,29.5417674 L137.274903,29.3828238 L137.373867,29.2238802 L137.472831,29.0656864 L137.572545,28.9074925 L137.773473,28.5926042 L137.9759,28.2784657 L138.180576,27.9665764 L138.386752,27.654687 L138.595176,27.3450469 L138.805101,27.0369063 L139.016524,26.7295153 L139.230197,26.4236239 L139.44537,26.1184822 L139.662041,25.8155896 L139.880962,25.5134468 L140.101383,25.2135533 L140.324052,24.9144094 L140.548222,24.6160153 L140.77389,24.3198704 L141.001808,24.0252249 L141.231225,23.7313292 L141.462142,23.4396827 L141.694558,23.1487859 L141.929223,22.8593886 L142.165388,22.5714908 L142.403052,22.2850924 L142.642966,22.0001935 L142.883629,21.716794 L143.126541,21.4348941 L143.370953,21.1544936 L143.617614,20.8748428 L143.865025,20.5974412 L144.114684,20.3215391 L144.365844,20.0471365 L144.618503,19.7742333 L144.872661,19.5020799 L145.128319,19.2321757 L145.386226,18.9637709 L145.644882,18.6968656 L145.905788,18.4314598 L146.168193,18.1675534 L146.432098,17.9058963 L146.697502,17.6449889 L146.964406,17.3855809 L147.232809,17.1284222 L147.502712,16.8720132 L147.774114,16.6178533 L148.047015,16.365193 L148.322166,16.1140321 L148.598066,15.8651204 L148.875466,15.6169585 L149.154366,15.3710458 L149.434764,15.1266325 L149.717412,14.8837187 L150.00081,14.6423043 L150.285707,14.4031392 L150.572104,14.1647238 L150.86,13.9285576 L151.148646,13.6946406 L151.439541,13.4614733 L151.731935,13.2305553 L152.02508,13.0011367 L152.320473,12.7739673 L152.616616,12.5475476 L152.914259,12.3233772 L153.213401,12.1014559 L153.514042,11.8810341 L153.816183,11.6621118 L154.119074,11.444689 L154.423464,11.2295153 L154.729354,11.0158412 L155.036743,10.8044162 L155.345631,10.5944907 L155.65527,10.3860646 L155.966407,10.1798878 L156.279044,9.97596014 L156.593181,9.77278224 L156.908067,9.57260327 L157.224453,9.37317404 L157.383396,9.27420915 L157.542339,9.175994 L157.701281,9.07852859 L157.860974,8.98106317 L158.020666,8.88434749 L158.181108,8.78763181 L158.34155,8.69166586 L158.663934,8.50123343 L158.825126,8.40676695 L158.987067,8.31230047 L159.149009,8.21933346 L159.3117,8.12561672 L159.474391,8.03339944 L159.637832,7.94118216 L159.964714,7.75824707 L160.128905,7.66752926 L160.293096,7.57756119 L160.457287,7.48759311 L160.787168,7.30915643 L160.952858,7.22068782 L161.118548,7.13296895 L161.284988,7.04599981 L161.450678,6.95903067 L161.617868,6.87281126 L161.784308,6.78659185 L161.951497,6.70112218 L162.119437,6.61640224 L162.455316,6.44846184 L162.624005,6.36449163 L162.792694,6.2820209 L162.961383,6.19955016 L163.300261,6.03610816 L163.469699,5.95513689 L163.810077,5.79469382 L163.981015,5.71522202 L164.322892,5.55777789 L164.49458,5.48055529 L164.666268,5.40258295 L164.838705,5.32611009 L165.011143,5.24963723 L165.183581,5.17391409 L165.356019,5.09819096 L165.529206,5.02321757 L165.703143,4.94899391 L165.876331,4.87551998 L166.050268,4.80204605 L166.224955,4.72932185 L166.398892,4.65659766 L166.574329,4.58537293 L166.749016,4.51414821 L166.924453,4.44292348 L167.099889,4.37319822 L167.276076,4.30347296 L167.451512,4.2337477 L167.628449,4.16552191 L167.804635,4.09729612 L167.981571,4.02982006 L168.158507,3.96234401 L168.336193,3.89561768 L168.513879,3.8296411 L168.691565,3.76441424 L168.870001,3.69918739 L169.048436,3.63471026 L169.226872,3.57098288 L169.406057,3.50800522 L169.584493,3.44502757 L169.764428,3.38279965 L169.943613,3.32057173 L170.123548,3.25984328 L170.304233,3.19911483 L170.484168,3.13838638 L170.664853,3.0791574 L170.845538,3.01992841 L171.026972,2.96144916 L171.389841,2.84599013 L171.572025,2.78901035 L171.75346,2.7327803 L171.936394,2.67655026 L172.118578,2.62181968 L172.484446,2.51235852 L172.66738,2.45912741 L172.851064,2.40589629 L173.034748,2.35341492 L173.219181,2.30168327 L173.402865,2.24995163 L173.587298,2.19896972 L173.772481,2.14873754 L173.956915,2.0992551 L174.142098,2.04977266 L174.327281,2.00103995 L174.513214,1.95305698 L174.698397,1.90582374 L174.88508,1.8585905 L175.071013,1.81210699 L175.257695,1.76637322 L175.631061,1.67640515 L175.817743,1.63217084 L176.005176,1.58868627 L176.192608,1.5452017 L176.38079,1.5032166 L176.568222,1.4612315 L176.756404,1.41999613 L176.945336,1.37876076 L177.133518,1.33902486 L177.32245,1.29928896 L177.511382,1.2603028 L177.701064,1.22206636 L177.889995,1.18382993 L178.079677,1.14634323 L178.269358,1.10960627 L178.45979,1.07361904 L178.650221,1.03838154 L178.840652,1.00314405 L179.031084,0.968656283 L179.221515,0.934918255 L179.412696,0.90192996 L179.603877,0.868941666 L179.795808,0.836703105 L179.986989,0.805214279 L180.178919,0.774475186 L180.37085,0.744485828 L180.563531,0.714496469 L180.755461,0.685256844 L180.948142,0.656766954 L181.141572,0.629026797 L181.334252,0.602036374 L181.527683,0.575045951 L181.721113,0.548805263 L181.914543,0.523314308 L182.107973,0.498573087 L182.302153,0.473831866 L182.496333,0.449840379 L182.690513,0.426598626 L182.884693,0.404106607 L183.079622,0.382364322 L183.274552,0.361371771 L183.469482,0.34037922 L183.664411,0.320136403 L183.860091,0.30064332 L184.05577,0.281899971 L184.25145,0.263156622 L184.447129,0.245163007 L184.643558,0.228668859 L185.036416,0.195680565 L185.232845,0.180685886 L185.429275,0.165691206 L185.823632,0.138700784 L186.020811,0.125955306 L186.21799,0.113209829 L186.415918,0.101963819 L186.613847,0.0907178098 L186.811776,0.0802215343 L187.009704,0.0704749927 L187.207633,0.0614781852 L187.406311,0.0532311115 L187.604989,0.0449840379 L187.803668,0.0382364322 L188.002346,0.0314888265 L188.201774,0.0254909548 L188.401202,0.0202428171 L188.59988,0.0149946793 L188.800058,0.0112460095 L188.999486,0.00749733965 L189.198914,0.00449840379 L189.399092,0.0022492019 L189.59927,0.000749733965 L189.799447,0 L190.200553,0 Z M189.816691,5.24813776 L189.632258,5.24888749 L189.449324,5.25038696 L189.26564,5.25263616 L189.082706,5.25488536 L188.899772,5.25863403 L188.716838,5.2623827 L188.534654,5.26613137 L188.35172,5.27137951 L188.168786,5.27662765 L187.986602,5.28262552 L187.804417,5.28937313 L187.622983,5.29687047 L187.441548,5.3043678 L187.259364,5.31261488 L187.07718,5.32161169 L186.896495,5.33135823 L186.71506,5.34110477 L186.534376,5.35235078 L186.352941,5.36359679 L186.172256,5.3748428 L185.992321,5.38758828 L185.811637,5.40033375 L185.630952,5.41382896 L185.451017,5.42732418 L185.272581,5.44231885 L185.091147,5.45731353 L184.911211,5.47305795 L184.733526,5.48955209 L184.553591,5.50604624 L184.375155,5.52329012 L184.19597,5.54128374 L184.016035,5.56002709 L183.838349,5.57877044 L183.660663,5.59826352 L183.482227,5.61850634 L183.303792,5.63949889 L183.125356,5.66049144 L182.94767,5.68223372 L182.770734,5.70472574 L182.593048,5.72721776 L182.416112,5.75045951 L182.240675,5.774451 L182.062989,5.79919222 L181.886053,5.82393344 L181.708367,5.85017413 L181.532931,5.87566509 L181.357494,5.90265551 L181.180558,5.92964593 L181.005871,5.95738609 L180.829684,5.98587598 L180.652748,6.01436587 L180.480311,6.04360549 L180.304874,6.07359485 L180.129437,6.10433395 L179.9555,6.13507304 L179.780063,6.16656187 L179.604627,6.19880043 L179.431439,6.23103899 L179.258252,6.26402728 L179.085814,6.29776531 L178.911877,6.33150334 L178.73719,6.36674083 L178.564752,6.40197833 L178.393064,6.43721583 L178.219127,6.47395279 L178.045189,6.51068976 L177.873501,6.54742672 L177.702563,6.58491342 L177.532374,6.62314985 L177.359187,6.66288575 L177.185999,6.70187192 L177.013562,6.74235755 L176.843373,6.78284318 L176.675434,6.82257908 L176.503746,6.86456419 L176.332058,6.90654929 L176.162619,6.94853439 L175.990931,6.99201896 L175.822242,7.03550353 L175.651303,7.07973783 L175.482614,7.12397214 L175.314675,7.16895618 L175.143736,7.21468995 L174.976547,7.26042372 L174.805608,7.30765696 L174.638419,7.35414047 L174.471229,7.40137371 L174.30179,7.45010641 L174.134601,7.49808939 L173.965911,7.54757183 L173.798722,7.59705427 L173.633781,7.64653671 L173.464343,7.69751862 L173.298652,7.74850053 L173.130713,7.80023218 L172.965023,7.85196382 L172.800832,7.9044452 L172.632143,7.95767631 L172.467952,8.01090742 L172.303761,8.06488827 L172.136572,8.12036858 L171.969382,8.17584889 L171.805191,8.23057947 L171.645499,8.28531005 L171.479809,8.34228983 L171.313369,8.40001935 L171.150677,8.45774886 L170.987986,8.51472864 L170.823046,8.57395763 L170.660354,8.63243688 L170.499163,8.69166586 L170.333472,8.75239431 L170.172281,8.81237303 L170.00809,8.87385121 L169.846898,8.9353294 L169.526014,9.05828577 L169.366321,9.12051369 L169.202131,9.18499081 L169.039439,9.24946793 L168.879747,9.31319532 L168.720055,9.37767244 L168.561862,9.44214956 L168.39917,9.50887588 L168.240228,9.57485247 L168.082785,9.64082906 L167.920843,9.70905485 L167.76265,9.77578117 L167.605207,9.84325723 L167.448514,9.91148302 L167.287322,9.98195801 L167.130628,10.0509335 L166.973935,10.1199091 L166.813493,10.1918835 L166.657549,10.2616088 L166.502355,10.3328335 L166.342663,10.4055577 L166.186719,10.4775322 L166.032275,10.5495066 L165.877081,10.6222308 L165.722636,10.694955 L165.564443,10.7706781 L165.257054,10.9191255 L165.099611,10.9955983 L164.945917,11.0713215 L164.792972,11.1470446 L164.635529,11.2257667 L164.483334,11.3022395 L164.331139,11.3794621 L164.178943,11.4566847 L164.027498,11.5346571 L163.871554,11.6156283 L163.720109,11.6943504 L163.569413,11.7738222 L163.418718,11.8540437 L163.264274,11.9365145 L163.113578,12.0174857 L162.964382,12.098457 L162.809188,12.1824272 L162.66449,12.261899 L162.516044,12.3443697 L162.363099,12.4298394 L162.213903,12.5130599 L162.066206,12.5970301 L161.913261,12.6839992 L161.617868,12.8534391 L161.470921,12.9396585 L161.323974,13.0251282 L161.172528,13.1143465 L161.026331,13.2013157 L160.880134,13.2890345 L160.734686,13.3760037 L160.589239,13.4644723 L160.439293,13.5559398 L160.293846,13.6451582 L160.149148,13.7343765 L160.00445,13.8243446 L159.861252,13.9143127 L159.717304,14.0057802 L159.424909,14.1917142 L159.139262,14.3761488 L158.852116,14.5635823 L158.568718,14.7517655 L158.284571,14.9429477 L158.000423,15.1356293 L157.720774,15.3283109 L157.438876,15.5247412 L157.161476,15.7211715 L156.882577,15.9206008 L156.607426,16.12003 L156.333775,16.3209587 L156.058624,16.5256361 L155.784223,16.7325626 L155.513571,16.9379897 L155.245168,17.1456661 L154.974515,17.357091 L154.707612,17.568516 L154.442207,17.7806907 L154.176053,17.9966141 L153.912149,18.2125375 L153.651243,18.4299603 L153.388088,18.6511319 L153.128681,18.8715536 L152.870774,19.0934749 L152.614367,19.3168956 L152.359459,19.5418158 L152.105301,19.7682355 L151.853392,19.9969043 L151.599233,20.2285721 L151.349573,20.4602399 L151.103662,20.6904082 L150.854002,20.9273242 L150.608091,21.1627406 L150.363679,21.4004063 L150.120017,21.6388217 L149.881603,21.8764874 L149.638691,22.1209006 L149.398777,22.3645642 L149.164112,22.6067283 L148.925698,22.8556399 L148.690283,23.1030521 L148.460116,23.3497146 L148.22845,23.6001258 L147.997533,23.8520364 L147.771115,24.1024475 L147.543947,24.3573571 L147.317529,24.6137661 L147.093359,24.8716746 L146.86994,25.1310825 L146.651019,25.3882413 L146.430599,25.6506482 L146.211678,25.9138048 L145.997255,26.1754619 L145.781333,26.4416175 L145.56691,26.7092725 L145.356986,26.9746783 L145.147812,27.2415836 L144.938637,27.5137371 L144.730212,27.7866402 L144.527036,28.0572942 L144.323859,28.3294476 L144.121432,28.6068492 L143.919005,28.8850005 L143.721076,29.1616523 L143.524647,29.4390539 L143.330467,29.7172052 L143.135538,30.0013544 L142.941358,30.2862533 L142.751676,30.568903 L142.563494,30.8523024 L142.376812,31.137951 L142.192378,31.4243494 L142.003446,31.7204943 L141.914229,31.8614443 L141.82726,32.0001451 L141.736543,32.147093 L141.645076,32.2940408 L141.554358,32.4417384 L141.464391,32.589436 L141.379671,32.7296363 L141.201236,33.0265309 L141.113518,33.175728 L141.025049,33.324925 L140.941829,33.4666247 L140.854861,33.6165715 L140.767892,33.7665183 L140.682423,33.9172149 L140.596204,34.0679114 L140.515233,34.2111106 L140.430514,34.3625568 L140.345045,34.5140031 L140.266323,34.657952 L140.182354,34.810148 L140.099134,34.9630937 L140.016663,35.1160395 L139.933443,35.2697349 L139.856221,35.4144336 L139.77525,35.5681291 L139.69353,35.7225742 L139.617807,35.8687724 L139.537586,36.0232176 L139.299172,36.4888024 L139.224949,36.6365 L139.147727,36.7924446 L139.069755,36.949139 L138.997031,37.0968366 L138.844087,37.4117249 L138.772862,37.5601722 L138.622916,37.8765599 L138.548693,38.0355035 L138.478219,38.1847006 L138.405495,38.3443939 L138.332021,38.5033375 L138.263796,38.6540341 L138.191822,38.8137274 L138.120598,38.9741705 L138.048624,39.1346135 L137.981898,39.2868095 L137.912173,39.4472526 L137.846197,39.5994486 L137.708246,39.9233337 L137.64377,40.0762794 L137.572545,40.2479685 L137.508069,40.4009142 L137.445091,40.5553594 L137.379115,40.7180517 L137.313139,40.8814937 L137.247163,41.0456854 L137.185685,41.2001306 L137.121208,41.3643223 L136.997503,41.6844587 L136.937525,41.8404034 L136.875297,42.0053449 L136.813069,42.1710361 L136.751592,42.337477 L136.690114,42.5031682 L136.633134,42.6606124 L136.576155,42.8173068 L136.398469,43.3188788 L136.343739,43.4770727 L136.289758,43.6352665 L136.17505,43.9726468 L136.122569,44.1315904 L136.06334,44.3100271 L136.010859,44.4697204 L135.959128,44.6294138 L135.905147,44.7988536 L135.854166,44.9592967 L135.801684,45.1294863 L135.748454,45.3004257 L135.695973,45.4706153 L135.64649,45.6318081 L135.599258,45.7937506 L135.548276,45.9646899 L135.498044,46.1371288 L135.447812,46.3088178 L135.401329,46.4707604 L135.355595,46.6334526 L135.307613,46.8066412 L135.25963,46.97908 L135.214646,47.142522 L135.171162,47.305964 L135.079695,47.6538406 L135.034711,47.8277789 L134.991977,47.9919706 L134.950742,48.1569121 L134.863773,48.5062881 L134.823288,48.6719793 L134.740817,49.0228548 L134.701831,49.1892957 L134.663595,49.3549869 L134.62386,49.5319242 L134.586373,49.6983651 L134.548137,49.8753023 L134.509151,50.0522395 L134.438676,50.3866209 L134.40194,50.5650576 L134.365953,50.7427445 L134.332215,50.9106849 L134.299227,51.0793751 L134.264739,51.2578117 L134.230252,51.4369982 L134.198763,51.6056883 L134.168024,51.7751282 L134.135786,51.9543146 L134.103547,52.1342507 L134.073558,52.3036906 L134.045068,52.4738802 L133.98509,52.835252 L133.95735,53.0054416 L133.93036,53.176381 L133.87488,53.5392522 L133.849389,53.7101915 L133.824648,53.8818806 L133.800657,54.0543194 L133.751174,54.4186901 L133.727933,54.591129 L133.68145,54.9569991 L133.661207,55.1196914 L133.640215,55.3033762 L133.617723,55.487061 L133.599729,55.650503 L133.580236,55.8341879 L133.559993,56.0186224 L133.54125,56.203057 L133.523257,56.377745 L133.506763,56.552433 L133.488769,56.7376173 L133.473025,56.9123053 L133.443036,57.2624311 L133.428791,57.4483651 L133.413796,57.6342991 L133.37481,58.1733578 L133.364314,58.3495453 L133.352318,58.5369788 L133.341822,58.713916 L133.332076,58.8908532 L133.322329,59.0782867 L133.313332,59.2657202 L133.296838,59.6210941 L133.290091,59.7995308 L133.276596,60.1758973 L133.271348,60.3543339 L133.262351,60.711957 L133.258602,60.8911435 L133.255603,61.0808262 L133.253354,61.2705089 L133.251105,61.4496953 L133.249605,61.6296314 L133.248106,62 L133.249605,62.3703686 L133.251105,62.5503047 L133.253354,62.7294911 L133.255603,62.9191738 L133.258602,63.1088565 L133.262351,63.288043 L133.271348,63.6449163 L133.276596,63.8241027 L133.290091,64.2004692 L133.296838,64.3789059 L133.313332,64.7342798 L133.322329,64.9217133 L133.332076,65.1091468 L133.341822,65.286084 L133.352318,65.4630212 L133.364314,65.6504547 L133.37481,65.8266422 L133.413796,66.3649511 L133.428791,66.5516349 L133.443036,66.7368192 L133.473025,67.0876947 L133.488769,67.2623827 L133.506763,67.447567 L133.523257,67.622255 L133.54125,67.796943 L133.559993,67.9813776 L133.580236,68.1658121 L133.599729,68.349497 L133.617723,68.512939 L133.640215,68.6966238 L133.661207,68.8803086 L133.68145,69.0430009 L133.727933,69.408871 L133.751174,69.5813099 L133.800657,69.9456806 L133.824648,70.1181194 L133.849389,70.2898085 L133.87488,70.4607478 L133.93036,70.823619 L133.95735,70.9945584 L133.98509,71.164748 L134.045068,71.5261198 L134.073558,71.6963094 L134.103547,71.8657493 L134.135786,72.0456854 L134.168024,72.2248718 L134.198763,72.3943117 L134.230252,72.5630018 L134.264739,72.7421883 L134.299227,72.9206249 L134.332215,73.0893151 L134.365953,73.2572555 L134.40194,73.4349424 L134.438676,73.6126294 L134.473914,73.7805698 L134.509151,73.9477605 L134.548137,74.1246977 L134.586373,74.3016349 L134.62386,74.4680758 L134.663595,74.6450131 L134.701831,74.8107043 L134.740817,74.9771452 L134.823288,75.3280207 L134.863773,75.4929622 L134.907257,75.6683999 L134.950742,75.8430879 L134.991977,76.0080294 L135.034711,76.1722211 L135.079695,76.3461594 L135.171162,76.694036 L135.214646,76.857478 L135.25963,77.02092 L135.307613,77.1933588 L135.355595,77.3665474 L135.401329,77.5284899 L135.447812,77.6911822 L135.548276,78.0345603 L135.599258,78.2062494 L135.64649,78.3674422 L135.748454,78.6995743 L135.801684,78.8705137 L135.854166,79.0407033 L135.905147,79.2003966 L135.959128,79.3705862 L136.010859,79.5302796 L136.06334,79.6899729 L136.122569,79.8684096 L136.17505,80.0273532 L136.22903,80.1862968 L136.289758,80.3647335 L136.343739,80.5229273 L136.398469,80.6811212 L136.576155,81.1826932 L136.633134,81.3393876 L136.690114,81.4968318 L136.751592,81.662523 L136.813069,81.8289639 L136.875297,81.9939054 L136.937525,82.1595966 L136.997503,82.3155413 L137.121208,82.6356777 L137.185685,82.7998694 L137.247163,82.9543146 L137.313139,83.1185063 L137.379115,83.2819483 L137.445091,83.4446406 L137.508069,83.5983361 L137.572545,83.7520315 L137.64377,83.9237206 L137.708246,84.0766663 L137.846197,84.4005514 L137.912173,84.5519977 L137.981898,84.7131905 L138.048624,84.8653865 L138.119848,85.0258295 L138.191822,85.1855229 L138.263796,85.3459659 L138.332021,85.4966625 L138.405495,85.6556061 L138.478219,85.8145497 L138.548693,85.9644965 L138.622916,86.1234401 L138.697889,86.2816339 L138.772862,86.4390781 L138.844087,86.5882751 L138.920559,86.7457193 L138.997031,86.9024137 L139.069755,87.050861 L139.147727,87.2075554 L139.224949,87.3635 L139.299172,87.5104479 L139.378644,87.6663926 L139.537586,87.9767824 L139.617807,88.1319774 L139.69353,88.2774258 L139.77525,88.4318709 L139.856221,88.5855664 L139.933443,88.7310148 L140.016663,88.8839605 L140.099134,89.0369063 L140.182354,89.189852 L140.265574,89.342048 L140.345045,89.4852472 L140.430514,89.6374432 L140.515233,89.7888894 L140.596204,89.9320886 L140.681673,90.0827851 L140.768642,90.2334817 L140.854861,90.3834285 L140.941829,90.5333753 L141.025049,90.675075 L141.113518,90.824272 L141.201236,90.9734691 L141.379671,91.2703637 L141.464391,91.410564 L141.554358,91.5582616 L141.645076,91.7059592 L141.736543,91.852907 L141.82726,91.9998549 L141.914229,92.1385557 L142.003446,92.2795057 L142.192378,92.5756506 L142.376812,92.862049 L142.563494,93.1469479 L142.751676,93.431097 L142.941358,93.7137467 L143.135538,93.9986456 L143.330467,94.2827948 L143.524647,94.5609461 L143.721076,94.8383477 L143.919005,95.1149995 L144.121432,95.3931508 L144.323859,95.6705524 L144.526286,95.9427058 L144.730212,96.2133598 L144.938637,96.4862629 L145.147812,96.7584164 L145.356986,97.0253217 L145.56691,97.2907275 L145.781333,97.5583825 L145.996505,97.8245381 L146.211678,98.0861952 L146.430599,98.3493518 L146.651019,98.6117587 L146.86994,98.8689175 L147.093359,99.1283254 L147.317529,99.3862339 L147.543947,99.6426429 L147.771115,99.8975525 L147.997533,100.147964 L148.2277,100.399874 L148.460116,100.650285 L148.690283,100.896948 L148.925698,101.14436 L149.164112,101.393272 L149.398777,101.635436 L149.638691,101.879099 L149.881603,102.123513 L150.120017,102.361178 L150.363679,102.599594 L150.608091,102.837259 L150.854002,103.072676 L151.103662,103.309592 L151.348824,103.53976 L151.599233,103.771428 L151.853392,104.003096 L152.10605,104.231765 L152.359459,104.458184 L152.614367,104.683104 L152.870774,104.906525 L153.128681,105.128446 L153.388088,105.348868 L153.651243,105.57004 L153.912149,105.787463 L154.176053,106.003386 L154.442207,106.219309 L154.707612,106.431484 L154.974515,106.642909 L155.245168,106.853584 L155.513571,107.061261 L155.784223,107.267437 L156.058624,107.474364 L156.333775,107.679041 L156.607426,107.87997 L156.882577,108.079399 L157.161476,108.278828 L157.438876,108.475259 L157.720774,108.671689 L158.000423,108.864371 L158.284571,109.057052 L158.568718,109.248234 L158.852116,109.436418 L159.139262,109.623851 L159.424909,109.808286 L159.716554,109.99422 L160.00445,110.175655 L160.149148,110.265623 L160.293846,110.354842 L160.439293,110.44406 L160.589239,110.535528 L160.880134,110.710965 L161.026331,110.798684 L161.172528,110.885653 L161.323974,110.974872 L161.617868,111.145811 L161.765564,111.231281 L161.914011,111.316001 L162.066206,111.40297 L162.213903,111.48694 L162.363099,111.570161 L162.516044,111.65563 L162.66449,111.738101 L162.809188,111.817573 L162.964382,111.901543 L163.113578,111.982514 L163.264274,112.063486 L163.418718,112.145956 L163.569413,112.226178 L163.720109,112.30565 L163.871554,112.384372 L164.027498,112.465343 L164.178943,112.543315 L164.330389,112.620538 L164.483334,112.69776 L164.636278,112.774233 L164.792972,112.852955 L164.945917,112.928679 L165.098861,113.003652 L165.257054,113.080875 L165.410749,113.155098 L165.564443,113.229322 L165.722636,113.305045 L165.877081,113.377769 L166.032275,113.450493 L166.186719,113.522468 L166.342663,113.594442 L166.501605,113.667166 L166.657549,113.738391 L166.814242,113.808116 L166.973935,113.880091 L167.130628,113.949066 L167.287322,114.018042 L167.447764,114.088517 L167.605207,114.155993 L167.7634,114.224219 L167.920843,114.290945 L168.082785,114.359171 L168.240228,114.425148 L168.39917,114.491124 L168.561112,114.55785 L168.720804,114.622328 L168.879747,114.686805 L169.039439,114.750532 L169.20288,114.815009 L169.365572,114.879486 L169.526014,114.941714 L169.846898,115.064671 L170.00734,115.125399 L170.172281,115.187627 L170.333472,115.247606 L170.499163,115.308334 L170.660354,115.367563 L170.823046,115.426042 L170.987986,115.485271 L171.150677,115.542251 L171.312619,115.599231 L171.479809,115.65771 L171.645499,115.71469 L171.805191,115.769421 L171.969382,115.824151 L172.136572,115.879631 L172.303761,115.935112 L172.467952,115.989093 L172.632893,116.042324 L172.800082,116.095555 L172.965023,116.148036 L173.130713,116.199768 L173.298652,116.251499 L173.464343,116.302481 L173.633781,116.353463 L173.798722,116.402946 L173.965911,116.452428 L174.134601,116.501911 L174.30179,116.549894 L174.471229,116.598626 L174.638419,116.64586 L174.805608,116.692343 L174.975797,116.739576 L175.143736,116.78531 L175.314675,116.831044 L175.482614,116.876028 L175.651303,116.920262 L175.822242,116.964496 L175.990931,117.007981 L176.162619,117.051466 L176.332058,117.093451 L176.503746,117.135436 L176.675434,117.177421 L176.843373,117.217157 L177.013562,117.257642 L177.186749,117.298128 L177.359187,117.337864 L177.531625,117.37685 L177.702563,117.414337 L177.874251,117.452573 L178.045189,117.48931 L178.219127,117.526047 L178.392314,117.562784 L178.564752,117.598022 L178.73719,117.633259 L178.911877,117.668497 L179.085814,117.702235 L179.258252,117.735973 L179.431439,117.768961 L179.604627,117.8012 L179.780063,117.833438 L179.9555,117.864927 L180.129437,117.895666 L180.305624,117.926405 L180.48106,117.956395 L180.652748,117.985634 L180.829684,118.014124 L181.005871,118.042614 L181.181308,118.070354 L181.357494,118.097344 L181.532181,118.124335 L181.708367,118.149826 L181.886053,118.176067 L182.062989,118.200808 L182.240675,118.225549 L182.416112,118.24954 L182.593048,118.272782 L182.770734,118.295274 L182.94767,118.317766 L183.124606,118.339509 L183.303792,118.360501 L183.482227,118.381494 L183.660663,118.401736 L183.838349,118.42123 L184.016784,118.439973 L184.19597,118.458716 L184.375155,118.47671 L184.553591,118.493954 L184.732776,118.510448 L184.911211,118.526942 L185.091147,118.542686 L185.272581,118.557681 L185.451017,118.571926 L185.630952,118.586171 L185.811637,118.599666 L185.992321,118.612412 L186.172256,118.625157 L186.352941,118.636403 L186.534376,118.647649 L186.71581,118.658895 L186.896495,118.668642 L187.07718,118.678388 L187.259364,118.686635 L187.440799,118.695632 L187.622983,118.70313 L187.804417,118.710627 L187.986602,118.716625 L188.168786,118.723372 L188.35172,118.72862 L188.533904,118.733119 L188.716838,118.737617 L188.899772,118.741366 L189.082706,118.745115 L189.26564,118.747364 L189.449324,118.749613 L189.632258,118.751113 L189.816691,118.751862 L190.184059,118.751862 L190.366993,118.751113 L190.551426,118.749613 L190.73436,118.747364 L190.916544,118.745115 L191.100228,118.741366 L191.283912,118.737617 L191.466096,118.733119 L191.64903,118.72862 L191.831214,118.723372 L192.013398,118.716625 L192.195583,118.710627 L192.377017,118.70313 L192.559201,118.695632 L192.741386,118.686635 L192.92282,118.678388 L193.103505,118.668642 L193.28494,118.658895 L193.466374,118.647649 L193.647059,118.636403 L193.826994,118.625157 L194.008428,118.612412 L194.188363,118.599666 L194.368299,118.586171 L194.548234,118.571926 L194.728918,118.557681 L194.908104,118.542686 L195.088039,118.526942 L195.267974,118.510448 L195.447159,118.493954 L195.624845,118.47671 L195.80478,118.458716 L195.983965,118.439973 L196.161651,118.42123 L196.339337,118.401736 L196.517773,118.381494 L196.696958,118.360501 L196.873894,118.339509 L197.05233,118.317766 L197.230766,118.295274 L197.406202,118.272782 L197.583138,118.24954 L197.761574,118.225549 L197.937011,118.200808 L198.113947,118.176067 L198.290133,118.150576 L198.467069,118.124335 L198.644755,118.097344 L198.819442,118.070354 L198.994879,118.042614 L199.168816,118.014124 L199.345003,117.985634 L199.520439,117.956395 L199.696626,117.926405 L199.871313,117.895666 L200.0445,117.864927 L200.219937,117.833438 L200.393874,117.8012 L200.566312,117.768961 L200.740999,117.735973 L200.916435,117.702235 L201.088873,117.668497 L201.26281,117.633259 L201.437497,117.598022 L201.607686,117.562784 L201.778624,117.526797 L201.954061,117.48931 L202.126499,117.452573 L202.297437,117.414337 L202.470625,117.3761 L202.640813,117.337864 L202.814001,117.298128 L202.984189,117.258392 L203.154378,117.217907 L203.326066,117.176671 L203.498504,117.134686 L203.668692,117.093451 L203.837381,117.051466 L204.009069,117.007981 L204.177758,116.964496 L204.346448,116.921012 L204.517386,116.876028 L204.688324,116.830294 L204.856264,116.78531 L205.024203,116.739576 L205.194392,116.692343 L205.361581,116.64586 L205.528771,116.598626 L205.698959,116.549894 L205.865399,116.501911 L206.031839,116.453178 L206.200528,116.402946 L206.369967,116.352714 L206.535657,116.302481 L206.701348,116.251499 L206.870037,116.199768 L207.035727,116.148036 L207.199918,116.095555 L207.367857,116.042324 L207.532798,115.989093 L207.696239,115.935112 L207.863428,115.879631 L208.027619,115.825651 L208.19106,115.77017 L208.52394,115.656211 L208.687381,115.599231 L208.850072,115.542251 L209.012014,115.485271 L209.173955,115.426792 L209.339646,115.367563 L209.504586,115.306835 L209.666528,115.247606 L209.827719,115.187627 L209.988911,115.126899 L210.153102,115.064671 L210.313544,115.003192 L210.473986,114.941714 L210.638177,114.877987 L210.96131,114.750532 L211.121003,114.686805 L211.279945,114.622328 L211.438888,114.55785 L211.597081,114.492624 L211.759022,114.425148 L211.917965,114.359171 L212.079157,114.290945 L212.23735,114.224219 L212.394793,114.155993 L212.555985,114.087018 L212.712678,114.018042 L212.870121,113.949066 L213.026065,113.880091 L213.186507,113.808116 L213.342451,113.738391 L213.498395,113.667166 L213.653589,113.595942 L213.812531,113.522468 L213.968475,113.450493 L214.12217,113.377769 L214.281862,113.302796 L214.435557,113.229322 L214.590001,113.155098 L214.742946,113.080875 L214.901139,113.003652 L215.054833,112.928679 L215.207028,112.852955 L215.364471,112.774233 L215.517416,112.69776 L215.665113,112.622787 L215.821057,112.543315 L215.977,112.463094 L216.279891,112.30565 L216.430587,112.226178 L216.581282,112.145956 L216.731978,112.065735 L216.886422,111.982514 L217.036368,111.901543 L217.185564,111.819822 L217.339259,111.735852 L217.489205,111.652631 L217.637651,111.570161 L217.786097,111.48694 L217.934544,111.40297 L218.086739,111.316001 L218.234436,111.231281 L218.529829,111.060341 L218.676026,110.974872 L218.827472,110.885653 L218.974419,110.798684 L219.119866,110.710965 L219.266063,110.623247 L219.411511,110.535528 L219.561457,110.44406 L219.850852,110.265623 L219.99555,110.175655 L220.139498,110.084938 L220.281197,109.995719 L220.572092,109.810535 L220.862987,109.622352 L221.147884,109.436418 L221.431282,109.248234 L221.716179,109.057052 L221.999577,108.864371 L222.279226,108.671689 L222.558125,108.476758 L222.840773,108.277329 L223.117423,108.079399 L223.392574,107.87997 L223.669224,107.676792 L223.942126,107.474364 L224.212778,107.269687 L224.48568,107.061261 L224.757831,106.852085 L225.026234,106.642909 L225.292388,106.431484 L225.557793,106.219309 L225.821697,106.004885 L226.087102,105.787463 L226.351756,105.56779 L226.609663,105.351117 L226.86832,105.130696 L227.128476,104.906525 L227.384883,104.683104 L227.64279,104.455935 L227.897698,104.228766 L228.146608,104.003096 L228.397768,103.773677 L228.650427,103.53976 L228.899337,103.307343 L229.145998,103.072676 L229.392659,102.837259 L229.634072,102.602593 L229.879233,102.361178 L230.121396,102.120514 L230.362059,101.879099 L230.601223,101.635436 L230.835888,101.393272 L231.072053,101.147359 L231.306718,100.899947 L231.539884,100.650285 L231.77155,100.399874 L232.001717,100.147964 L232.231134,99.8945535 L232.459052,99.639644 L232.682471,99.3862339 L232.90739,99.1283254 L233.13081,98.8689175 L233.349731,98.6117587 L233.570151,98.3493518 L233.786073,98.0891942 L234.002745,97.8245381 L234.218667,97.5583825 L234.430091,97.2944762 L234.643014,97.0253217 L234.854438,96.7546677 L235.061363,96.4862629 L235.266789,96.2171084 L235.472964,95.9427058 L235.677641,95.6668037 L235.879318,95.3931508 L236.080995,95.1149995 L236.278924,94.8383477 L236.474603,94.5609461 L236.671782,94.2790461 L236.865212,93.9986456 L237.056393,93.7174954 L237.245325,93.4348457 L237.436506,93.1469479 L237.625438,92.8583003 L237.810621,92.5719019 L237.992055,92.2877527 L238.080523,92.146053 L238.177238,91.9916078 L238.268705,91.8454097 L238.354924,91.7059592 L238.536359,91.410564 L238.621078,91.2703637 L238.709546,91.1219164 L238.798764,90.9734691 L238.9757,90.675075 L239.058171,90.5333753 L239.232108,90.2334817 L239.318327,90.0827851 L239.400047,89.9403357 L239.484767,89.7888894 L239.570236,89.6374432 L239.654205,89.4852472 L239.738925,89.3338009 L239.817646,89.189852 L239.984086,88.8839605 L240.066557,88.7310148 L240.143779,88.5855664 L240.225499,88.4318709 L240.30647,88.2774258 L240.382942,88.1319774 L240.462414,87.9767824 L240.542635,87.8215875 L240.622106,87.6663926 L240.775051,87.3635 L240.848524,87.2158025 L240.925747,87.0598578 L241.006717,86.8941666 L241.079441,86.7457193 L241.151415,86.5972719 L241.230886,86.430831 L241.306609,86.2726371 L241.377833,86.1234401 L241.447558,85.9734933 L241.667979,85.4966625 L241.740702,85.3369691 L241.808928,85.1855229 L241.876403,85.0348264 L241.946878,84.8743833 L242.021851,84.7041937 L242.088577,84.5519977 L242.153803,84.4005514 L242.291754,84.0766663 L242.359979,83.9147238 L242.424456,83.7610283 L242.491182,83.5983361 L242.558657,83.4356438 L242.621635,83.2819483 L242.686861,83.1185063 L242.752837,82.9543146 L242.814315,82.7998694 L242.875043,82.6446745 L242.93877,82.4804827 L243.066224,82.1505998 L243.124703,81.9939054 L243.186931,81.8289639 L243.248408,81.662523 L243.306887,81.5058286 L243.366866,81.3393876 L243.427594,81.1729467 L243.483823,81.0155026 L243.543052,80.8483119 L243.598532,80.690118 L243.656261,80.5229273 L243.71399,80.3549869 L243.767971,80.1960433 L243.82495,80.0273532 L243.88118,79.8586631 L243.933661,79.6997195 L243.989141,79.5302796 L244.095603,79.2003966 L244.145834,79.0407033 L244.199065,78.8705137 L244.252296,78.6995743 L244.404491,78.1965029 L244.452474,78.0345603 L244.502706,77.8628712 L244.549939,77.7009287 L244.595672,77.5389862 L244.646654,77.3560511 L244.693137,77.1933588 L244.737371,77.0306665 L244.787603,76.8477315 L244.831837,76.6842894 L244.875321,76.5200977 L244.921055,76.3461594 L244.96304,76.1819677 L245.008023,76.0080294 L245.052257,75.8333414 L245.093492,75.6683999 L245.133978,75.5034585 L245.217948,75.152583 L245.256933,74.9868917 L245.298169,74.8107043 L245.37689,74.4680758 L245.452613,74.1246977 L245.4886,73.957507 L245.523837,73.7903163 L245.562823,73.6028828 L245.59806,73.4349424 L245.631798,73.267002 L245.667785,73.0893151 L245.702273,72.9108784 L245.735261,72.7421883 L245.767499,72.5734981 L245.833475,72.2151253 L245.866464,72.0351891 L245.894953,71.8762455 L245.925692,71.6963094 L245.957181,71.5156235 L245.98567,71.3454339 L246.01341,71.1752443 L246.0419,70.9945584 L246.07114,70.8131228 L246.095881,70.6526797 L246.149861,70.2898085 L246.200843,69.935934 L246.224834,69.7634952 L246.249575,69.5813099 L246.272067,69.408871 L246.295309,69.225936 L246.317801,69.0527474 L246.338793,68.8803086 L246.360535,68.6966238 L246.381528,68.512939 L246.40177,68.3390007 L246.420514,68.1658121 L246.440007,67.9813776 L246.458,67.8066896 L246.476743,67.622255 L246.493987,67.447567 L246.509731,67.272879 L246.542719,66.9025104 L246.557714,66.7270727 L246.571959,66.5516349 L246.586204,66.3649511 L246.599699,66.1895134 L246.637185,65.6399584 L246.648431,65.4630212 L246.667924,65.1091468 L246.687417,64.7342798 L246.694915,64.5670891 L246.702412,64.3789059 L246.710659,64.1907226 L246.723404,63.8338493 L246.733151,63.4664796 L246.741398,63.0983603 L246.747396,62.7294911 L246.749645,62.5503047 L246.751144,62.3703686 L246.751894,62.1904324 L246.751894,61.8095676 L246.751144,61.6296314 L246.749645,61.4496953 L246.747396,61.2705089 L246.744397,61.0808262 L246.741398,60.9016397 L246.737649,60.7224533 L246.733151,60.5335204 L246.727903,60.3445874 L246.723404,60.1661507 L246.716657,59.987714 L246.710659,59.8092774 L246.702412,59.6210941 L246.694915,59.4329109 L246.687417,59.2657202 L246.667924,58.8908532 L246.648431,58.5369788 L246.637185,58.3600416 L246.599699,57.8104866 L246.571959,57.4483651 L246.557714,57.2729273 L246.542719,57.0974896 L246.509731,56.727121 L246.493987,56.552433 L246.476743,56.377745 L246.458,56.1933104 L246.440007,56.0186224 L246.420514,55.8341879 L246.40177,55.6609993 L246.381528,55.487061 L246.360535,55.3033762 L246.338793,55.1196914 L246.317801,54.9465029 L246.295309,54.774064 L246.272067,54.591129 L246.249575,54.4186901 L246.224834,54.2365048 L246.200843,54.064066 L246.149861,53.7101915 L246.095881,53.3473203 L246.07114,53.1868772 L246.0419,53.0054416 L246.01341,52.8247557 L245.98567,52.6545661 L245.957181,52.4843765 L245.925692,52.3036906 L245.894953,52.1237545 L245.866464,51.9648109 L245.833475,51.7848747 L245.767499,51.4265019 L245.735261,51.2578117 L245.702273,51.0891216 L245.667785,50.9106849 L245.631798,50.732998 L245.59806,50.5650576 L245.562823,50.3971172 L245.523837,50.2096837 L245.4886,50.042493 L245.452613,49.8753023 L245.37689,49.5319242 L245.257683,49.0131083 L245.217948,48.847417 L245.133978,48.4965415 L245.093492,48.3316001 L245.052257,48.1666586 L245.008023,47.9919706 L244.96304,47.8180323 L244.921055,47.6538406 L244.875321,47.4799023 L244.831837,47.3157106 L244.787603,47.1522685 L244.737371,46.9693335 L244.693137,46.8066412 L244.646654,46.6431992 L244.595672,46.4610138 L244.549939,46.2990713 L244.502706,46.1371288 L244.452474,45.9646899 L244.404491,45.8034971 L244.35276,45.6318081 L244.301028,45.4608687 L244.252296,45.3004257 L244.199065,45.1294863 L244.095603,44.7988536 L244.043871,44.6391603 L243.989141,44.4697204 L243.933661,44.3002805 L243.88118,44.1413369 L243.82495,43.9726468 L243.767971,43.8039567 L243.71399,43.6450131 L243.656261,43.4770727 L243.598532,43.309882 L243.543052,43.1516881 L243.483823,42.9844974 L243.427594,42.8270533 L243.366866,42.6606124 L243.306887,42.4941714 L243.248408,42.337477 L243.186931,42.1710361 L243.124703,42.0053449 L243.066224,41.8494002 L242.93877,41.5195173 L242.875043,41.3553255 L242.814315,41.2001306 L242.752837,41.0456854 L242.686861,40.8814937 L242.621635,40.7180517 L242.558657,40.5643562 L242.491182,40.4009142 L242.424456,40.2382219 L242.291754,39.9233337 L242.153803,39.5994486 L242.088577,39.4472526 L241.946878,39.1256167 L241.876403,38.9651736 L241.808928,38.8137274 L241.740702,38.6630309 L241.667979,38.5033375 L241.447558,38.0265067 L241.377833,37.8765599 L241.306609,37.7273629 L241.230886,37.569169 L241.151415,37.4027281 L241.079441,37.2542807 L241.006717,37.1058334 L240.925747,36.9401422 L240.848524,36.7841975 L240.775051,36.6365 L240.700828,36.4888024 L240.622106,36.3336074 L240.542635,36.1784125 L240.462414,36.0232176 L240.382942,35.8687724 L240.30647,35.7225742 L240.225499,35.5681291 L240.143779,35.4144336 L240.066557,35.2697349 L239.984086,35.1160395 L239.817646,34.810148 L239.738925,34.6661991 L239.654205,34.5140031 L239.570236,34.3625568 L239.484767,34.2111106 L239.400047,34.0596643 L239.318327,33.9172149 L239.232108,33.7665183 L239.058171,33.4666247 L238.9757,33.324925 L238.798764,33.0265309 L238.709546,32.8780836 L238.621078,32.7296363 L238.535609,32.589436 L238.445642,32.4417384 L238.354924,32.2940408 L238.177238,32.0083922 L238.080523,31.853947 L237.992055,31.7122473 L237.810621,31.4280981 L237.625438,31.1416997 L237.436506,30.8523024 L237.245325,30.5651543 L237.056393,30.2825046 L236.864462,30.0013544 L236.671782,29.7209539 L236.474603,29.4390539 L236.278924,29.1616523 L236.080995,28.8850005 L235.879318,28.6068492 L235.677641,28.3331963 L235.472964,28.0572942 L235.266789,27.7828916 L235.061363,27.5137371 L234.854438,27.2453323 L234.643014,26.9746783 L234.430091,26.7055238 L234.218667,26.4416175 L234.002745,26.1754619 L233.786073,25.9108058 L233.570151,25.6506482 L233.349731,25.3882413 L233.13081,25.1310825 L232.90739,24.8716746 L232.682471,24.6137661 L232.459052,24.360356 L232.231134,24.1054465 L232.001717,23.8520364 L231.77155,23.6001258 L231.539884,23.3497146 L231.306718,23.1000532 L231.072053,22.852641 L230.835888,22.6067283 L230.601223,22.3645642 L230.362059,22.1209006 L230.121396,21.8794863 L229.879233,21.6388217 L229.634072,21.3974074 L229.392659,21.1627406 L229.146747,20.9273242 L228.899337,20.6926574 L228.650427,20.4602399 L228.397768,20.2263229 L228.147358,19.9969043 L227.897698,19.7712344 L227.64279,19.544065 L227.384883,19.3168956 L227.128476,19.0934749 L226.86832,18.8685547 L226.609663,18.6488827 L226.351756,18.4322095 L226.087102,18.2125375 L225.821697,17.9943649 L225.557793,17.7806907 L225.292388,17.568516 L225.026234,17.357091 L224.757831,17.1479153 L224.48568,16.9379897 L224.213528,16.7303134 L223.942126,16.5256361 L223.669224,16.3232079 L223.392574,16.12003 L223.117423,15.9206008 L222.840773,15.722671 L222.558125,15.5232418 L222.279226,15.3283109 L221.999577,15.1356293 L221.716179,14.9429477 L221.431282,14.7517655 L221.147884,14.5635823 L220.862987,14.3776483 L220.572092,14.189465 L220.281197,14.0042807 L220.139498,13.9143127 L219.99555,13.8243446 L219.850852,13.7343765 L219.561457,13.5559398 L219.411511,13.4644723 L219.266063,13.3760037 L219.119866,13.2890345 L218.974419,13.2013157 L218.827472,13.1143465 L218.676026,13.0251282 L218.529829,12.9396585 L218.382132,12.8534391 L218.086739,12.6839992 L217.934544,12.5970301 L217.786097,12.5130599 L217.637651,12.4298394 L217.489205,12.3473687 L217.339259,12.2641482 L217.185564,12.180178 L217.036368,12.098457 L216.886422,12.0174857 L216.731978,11.9342653 L216.581282,11.8540437 L216.431336,11.7738222 L216.279891,11.6943504 L216.128446,11.6156283 L215.97775,11.537656 L215.821057,11.4566847 L215.665113,11.3772129 L215.517416,11.3022395 L215.364471,11.2257667 L215.207778,11.1470446 L215.054833,11.0713215 L214.901139,10.9955983 L214.742946,10.9191255 L214.590001,10.8449018 L214.435557,10.7706781 L214.281862,10.6972042 L214.12217,10.6222308 L213.968475,10.5495066 L213.813281,10.4775322 L213.653589,10.4040582 L213.498395,10.3328335 L213.342451,10.2616088 L213.186507,10.1918835 L213.026815,10.1199091 L212.870121,10.0509335 L212.712678,9.98195801 L212.555985,9.91298249 L212.394043,9.84325723 L212.23735,9.77578117 L212.079157,9.70905485 L211.917215,9.64082906 L211.759772,9.57485247 L211.597081,9.50737641 L211.438888,9.44214956 L211.279945,9.37767244 L211.121003,9.31319532 L210.96131,9.24946793 L210.797869,9.18499081 L210.637427,9.12201316 L210.473986,9.05828577 L210.314294,8.99680758 L210.153102,8.9353294 L209.988911,8.87310148 L209.827719,8.81237303 L209.666528,8.75239431 L209.504586,8.69316533 L209.339646,8.63243688 L209.173955,8.57320789 L209.012764,8.51472864 L208.850072,8.45774886 L208.687381,8.40001935 L208.52394,8.3437893 L208.3575,8.28680952 L208.19106,8.22982974 L208.027619,8.17434942 L207.863428,8.12036858 L207.696239,8.06488827 L207.532798,8.01090742 L207.367857,7.95767631 L207.199918,7.9044452 L207.034977,7.85196382 L206.870037,7.80023218 L206.701348,7.74850053 L206.535657,7.69751862 L206.369967,7.64728645 L206.200528,7.59705427 L206.031839,7.5468221 L205.865399,7.49808939 L205.698959,7.45010641 L205.528771,7.40137371 L205.362331,7.35414047 L205.194392,7.30765696 L205.024203,7.26042372 L204.856264,7.21468995 L204.688324,7.16895618 L204.517386,7.12397214 L204.346448,7.0789881 L204.009069,6.99201896 L203.837381,6.94853439 L203.668692,6.90654929 L203.498504,6.86456419 L203.326816,6.82332882 L203.154378,6.78209345 L202.984189,6.74160782 L202.814001,6.70187192 L202.641563,6.66288575 L202.470625,6.62389958 L202.296687,6.58491342 L202.126499,6.54742672 L201.954811,6.51068976 L201.778624,6.47320306 L201.607686,6.43721583 L201.437497,6.40197833 L201.26281,6.36674083 L201.088873,6.33150334 L200.916435,6.29776531 L200.740999,6.26402728 L200.566312,6.23103899 L200.393874,6.19880043 L200.219937,6.16656187 L200.0445,6.13507304 L199.871313,6.10433395 L199.697375,6.07359485 L199.521189,6.04360549 L199.345003,6.01436587 L199.168816,5.98512625 L198.994879,5.95738609 L198.819442,5.92964593 L198.644005,5.90265551 L198.467069,5.87566509 L198.290133,5.8494244 L198.114697,5.82393344 L197.937011,5.79919222 L197.761574,5.774451 L197.583138,5.75045951 L197.406202,5.72721776 L197.230766,5.70472574 L197.05233,5.68223372 L196.873894,5.66049144 L196.696958,5.63949889 L196.517773,5.61850634 L196.339337,5.59826352 L196.161651,5.57877044 L195.983965,5.56002709 L195.80478,5.54128374 L195.624845,5.52329012 L195.447159,5.50604624 L195.267974,5.48955209 L195.088039,5.47305795 L194.908104,5.45731353 L194.728918,5.44231885 L194.548234,5.42732418 L194.368299,5.41382896 L194.188363,5.40033375 L194.008428,5.38758828 L193.827744,5.3748428 L193.646309,5.36359679 L193.465624,5.35235078 L193.28494,5.34110477 L193.103505,5.33135823 L192.92282,5.32161169 L192.741386,5.31261488 L192.559201,5.3043678 L192.377017,5.29687047 L192.195583,5.28937313 L192.013398,5.28262552 L191.831214,5.27662765 L191.64903,5.27137951 L191.466096,5.26613137 L191.283912,5.2623827 L191.100228,5.25863403 L190.917294,5.25488536 L190.551426,5.25038696 L190.366993,5.24888749 L190.183309,5.24813776 L189.816691,5.24813776 L189.816691,5.24813776 Z" id="Fill-26" fill="#266DD3"></path>
                <path d="M228,26 L228,26 C227.961054,32.4544301 222.700305,37.6660446 216.223981,37.6660446 L191.553734,37.6660446 L191.553734,26 C188.449262,26 185.471367,27.2286333 183.276142,29.4164365 C181.080918,31.6049862 179.847368,34.5720684 179.847368,37.6660446 L191.553734,37.6660446 L191.553734,49.3328357 L179.847368,49.3328357 L179.847368,60.9996268 L191.553734,60.9996268 L191.553734,84.3347018 C191.553734,87.4286781 190.320933,90.3957602 188.125708,92.5835635 C185.930484,94.7713667 182.953337,96 179.848866,96 L179.847368,96 L179.848117,96 C182.952588,96 185.929735,94.7713667 188.125708,92.582817 C190.320933,90.3950138 191.553734,87.4279316 191.553734,84.3332089 L179.847368,84.3332089 L179.847368,37.6652982 C179.847368,34.5713219 181.080918,31.6042398 183.276142,29.4164365 C185.471367,27.2286333 188.448513,26 191.552985,26 L228,26 Z M179.847368,84.3332089 L179.847368,96 L163.776019,96 C157.299695,96 152.038946,90.7883855 152,84.3339554 L152,84.3332089 L179.847368,84.3332089 Z M191.553734,49.3328357 L215.660757,49.3328357 L215.660757,49.3335821 C215.621811,55.7880122 210.361062,60.9996268 203.884738,60.9996268 L191.553734,60.9996268 L191.553734,49.3328357 L191.553734,49.3328357 Z" id="Fill-27" fill="#266DD3"></path>
                <g id="JF" transform="translate(0.000000, 143.000000)" fill="#000000">
                    <path d="M13.922,48.479 C11.173,48.479 8.64,47.936 6.322,46.848 C4.004,45.761 2.106,44.233 0.629,42.263 L5.183,36.786 C7.563,40.068 10.414,41.709 13.738,41.709 C18.21,41.709 20.446,39.063 20.446,33.77 L20.446,11.491 L11.83,11.491 C8.125,11.491 5.122,8.488 5.122,4.783 L28.447,4.783 L28.447,33.339 C28.447,38.386 27.216,42.171 24.754,44.694 C22.292,47.218 18.682,48.479 13.922,48.479" id="Fill-28"></path>
                    <path d="M52.449,48.295 C49.125,48.295 46.13,47.577 43.463,46.141 C40.796,44.704 38.714,42.704 37.217,40.14 C35.719,37.576 34.97,34.673 34.97,31.432 C34.97,28.19 35.719,25.298 37.217,22.754 C38.714,20.21 40.796,18.22 43.463,16.784 C46.13,15.348 49.125,14.63 52.449,14.63 C55.813,14.63 58.829,15.348 61.496,16.784 C64.163,18.22 66.245,20.21 67.742,22.754 C69.24,25.298 69.989,28.19 69.989,31.432 C69.989,34.673 69.24,37.576 67.742,40.14 C66.245,42.704 64.163,44.704 61.496,46.141 C58.829,47.577 55.813,48.295 52.449,48.295 Z M52.449,41.709 C55.28,41.709 57.618,40.766 59.465,38.878 C61.311,36.991 62.234,34.509 62.234,31.432 C62.234,28.354 61.311,25.872 59.465,23.985 C57.618,22.097 55.28,21.154 52.449,21.154 C49.618,21.154 47.289,22.097 45.464,23.985 C43.638,25.872 42.725,28.354 42.725,31.432 C42.725,34.509 43.638,36.991 45.464,38.878 C47.289,40.766 49.618,41.709 52.449,41.709 L52.449,41.709 Z" id="Fill-29"></path>
                    <path d="M86.298,48.295 C83.631,48.295 81.026,47.946 78.482,47.248 C75.938,46.551 73.907,45.669 72.389,44.602 L75.343,38.755 C76.82,39.74 78.595,40.53 80.667,41.125 C82.739,41.72 84.78,42.017 86.79,42.017 C91.385,42.017 93.683,40.807 93.683,38.386 C93.683,37.237 93.098,36.437 91.929,35.986 C90.76,35.534 88.883,35.104 86.298,34.693 C83.59,34.283 81.385,33.811 79.682,33.278 C77.979,32.744 76.502,31.811 75.251,30.478 C73.999,29.144 73.374,27.288 73.374,24.908 C73.374,21.79 74.676,19.297 77.282,17.43 C79.887,15.564 83.405,14.63 87.836,14.63 C90.093,14.63 92.35,14.887 94.606,15.399 C96.863,15.912 98.709,16.599 100.145,17.461 L97.191,23.308 C94.401,21.667 91.262,20.846 87.775,20.846 C85.518,20.846 83.805,21.185 82.636,21.861 C81.467,22.538 80.882,23.431 80.882,24.539 C80.882,25.77 81.508,26.641 82.759,27.154 C84.01,27.667 85.949,28.149 88.575,28.601 C91.201,29.011 93.355,29.483 95.037,30.016 C96.719,30.549 98.166,31.452 99.376,32.724 C100.586,33.996 101.191,35.801 101.191,38.14 C101.191,41.217 99.858,43.679 97.191,45.525 C94.524,47.371 90.893,48.295 86.298,48.295" id="Fill-30"></path>
                    <path d="M125.255,14.63 C129.399,14.63 132.722,15.84 135.225,18.261 C137.728,20.682 138.979,24.272 138.979,29.031 L138.979,47.864 L131.286,47.864 L131.286,30.016 C131.286,27.144 130.609,24.98 129.255,23.523 C127.901,22.067 125.973,21.338 123.47,21.338 C120.639,21.338 118.403,22.19 116.762,23.892 C115.121,25.595 114.3,28.047 114.3,31.247 L114.3,47.864 L106.607,47.864 L106.607,2.198 L114.3,2.198 L114.3,18.815 C115.572,17.461 117.141,16.425 119.008,15.707 C120.875,14.989 122.957,14.63 125.255,14.63" id="Fill-31"></path>
                    <path d="M172.028,11.491 L172.028,24.6 L190.83,24.6 L190.83,24.602 C190.83,26.397 190.117,28.118 188.848,29.388 C187.579,30.657 185.857,31.37 184.062,31.37 L172.028,31.37 L172.028,47.864 L164.028,47.864 L164.028,4.783 L195.476,4.783 C195.476,8.488 192.473,11.491 188.768,11.491 L172.028,11.491" id="Fill-32"></path>
                    <path d="M200.646,47.864 L208.339,47.864 L208.339,14.999 L200.646,14.999 L200.646,47.864 Z M204.523,9.584 C203.128,9.584 201.959,9.142 201.015,8.26 C200.072,7.378 199.6,6.281 199.6,4.968 C199.6,3.655 200.072,2.557 201.015,1.675 C201.959,0.793 203.128,0.352 204.523,0.352 C205.918,0.352 207.088,0.772 208.031,1.614 C208.975,2.455 209.447,3.511 209.447,4.783 C209.447,6.137 208.985,7.276 208.062,8.199 C207.139,9.122 205.959,9.584 204.523,9.584 L204.523,9.584 Z" id="Fill-33"></path>
                    <path d="M227.356,48.295 C224.689,48.295 222.084,47.946 219.54,47.248 C216.996,46.551 214.965,45.669 213.447,44.602 L216.401,38.755 C217.878,39.74 219.653,40.53 221.725,41.125 C223.797,41.72 225.838,42.017 227.848,42.017 C232.444,42.017 234.741,40.807 234.741,38.386 C234.741,37.237 234.157,36.437 232.987,35.986 C231.818,35.534 229.941,35.104 227.356,34.693 C224.648,34.283 222.443,33.811 220.74,33.278 C219.037,32.744 217.56,31.811 216.309,30.478 C215.058,29.144 214.432,27.288 214.432,24.908 C214.432,21.79 215.735,19.297 218.34,17.43 C220.945,15.564 224.464,14.63 228.895,14.63 C231.151,14.63 233.408,14.887 235.665,15.399 C237.921,15.912 239.767,16.599 241.203,17.461 L238.249,23.308 C235.459,21.667 232.321,20.846 228.833,20.846 C226.577,20.846 224.864,21.185 223.694,21.861 C222.525,22.538 221.94,23.431 221.94,24.539 C221.94,25.77 222.566,26.641 223.817,27.154 C225.069,27.667 227.007,28.149 229.633,28.601 C232.259,29.011 234.413,29.483 236.095,30.016 C237.778,30.549 239.224,31.452 240.434,32.724 C241.645,33.996 242.25,35.801 242.25,38.14 C242.25,41.217 240.916,43.679 238.249,45.525 C235.582,47.371 231.951,48.295 227.356,48.295" id="Fill-34"></path>
                    <path d="M262.744,48.295 C259.338,48.295 256.282,47.577 253.574,46.141 C250.866,44.704 248.753,42.704 247.235,40.14 C245.717,37.576 244.958,34.673 244.958,31.432 C244.958,28.19 245.717,25.298 247.235,22.754 C248.753,20.21 250.856,18.22 253.543,16.784 C256.23,15.348 259.297,14.63 262.744,14.63 C265.985,14.63 268.826,15.287 271.268,16.599 C273.709,17.912 275.545,19.8 276.776,22.262 L270.868,25.708 C269.924,24.19 268.744,23.051 267.329,22.292 C265.913,21.533 264.364,21.154 262.682,21.154 C259.81,21.154 257.431,22.087 255.543,23.954 C253.656,25.821 252.712,28.313 252.712,31.432 C252.712,34.55 253.646,37.042 255.512,38.909 C257.379,40.776 259.769,41.709 262.682,41.709 C264.364,41.709 265.913,41.33 267.329,40.571 C268.744,39.812 269.924,38.673 270.868,37.155 L276.776,40.602 C275.504,43.063 273.647,44.961 271.206,46.294 C268.765,47.628 265.944,48.295 262.744,48.295" id="Fill-35"></path>
                    <path d="M300.532,14.63 C304.676,14.63 307.999,15.84 310.502,18.261 C313.005,20.682 314.256,24.272 314.256,29.031 L314.256,47.864 L306.563,47.864 L306.563,30.016 C306.563,27.144 305.886,24.98 304.532,23.523 C303.178,22.067 301.25,21.338 298.747,21.338 C295.916,21.338 293.68,22.19 292.039,23.892 C290.397,25.595 289.577,28.047 289.577,31.247 L289.577,47.864 L281.884,47.864 L281.884,2.198 L289.577,2.198 L289.577,18.815 C290.849,17.461 292.418,16.425 294.285,15.707 C296.152,14.989 298.234,14.63 300.532,14.63" id="Fill-36"></path>
                    <path d="M354.013,31.616 C354.013,32.15 353.972,32.909 353.89,33.893 L328.103,33.893 C328.555,36.314 329.734,38.232 331.642,39.648 C333.55,41.063 335.919,41.771 338.75,41.771 C342.361,41.771 345.336,40.581 347.674,38.201 L351.798,42.94 C350.321,44.704 348.454,46.038 346.197,46.941 C343.941,47.843 341.397,48.295 338.566,48.295 C334.955,48.295 331.775,47.577 329.026,46.141 C326.278,44.704 324.154,42.704 322.657,40.14 C321.159,37.576 320.41,34.673 320.41,31.432 C320.41,28.231 321.139,25.349 322.595,22.785 C324.052,20.22 326.072,18.22 328.657,16.784 C331.242,15.348 334.155,14.63 337.396,14.63 C340.597,14.63 343.458,15.338 345.982,16.753 C348.505,18.169 350.474,20.159 351.89,22.723 C353.305,25.287 354.013,28.252 354.013,31.616 Z M337.396,20.784 C334.935,20.784 332.852,21.513 331.15,22.969 C329.447,24.426 328.411,26.364 328.042,28.785 L346.69,28.785 C346.361,26.405 345.356,24.477 343.674,23 C341.992,21.523 339.899,20.784 337.396,20.784 L337.396,20.784 Z" id="Fill-37"></path>
                    <path d="M367.491,19.8 C369.707,16.353 373.605,14.63 379.185,14.63 L379.185,21.954 C378.528,21.831 377.933,21.769 377.4,21.769 C374.405,21.769 372.066,22.641 370.384,24.385 C368.702,26.129 367.861,28.642 367.861,31.924 L367.861,47.864 L360.168,47.864 L360.168,14.999 L367.491,14.999 L367.491,19.8" id="Fill-38"></path>
                </g>
                <g id="web-dev" transform="translate(0.000000, 202.000000)" fill="#707070">
                    <polyline id="Fill-39" points="45.128 12.024 34.867 39.146 31.412 39.146 22.853 16.922 14.293 39.146 10.838 39.146 0.629 12.024 4.135 12.024 12.643 35.073 21.357 12.024 24.503 12.024 33.166 35.073 41.777 12.024 45.128 12.024"></polyline>
                    <path d="M73.488,26.72 L50.8,26.72 C51.007,29.538 52.089,31.816 54.049,33.552 C56.008,35.288 58.483,36.156 61.474,36.156 C63.158,36.156 64.705,35.855 66.115,35.253 C67.524,34.652 68.745,33.767 69.776,32.598 L71.838,34.97 C70.635,36.414 69.131,37.514 67.327,38.27 C65.522,39.026 63.537,39.404 61.371,39.404 C58.586,39.404 56.12,38.811 53.972,37.625 C51.823,36.439 50.147,34.798 48.944,32.701 C47.741,30.604 47.139,28.232 47.139,25.585 C47.139,22.938 47.715,20.566 48.867,18.469 C50.018,16.372 51.6,14.74 53.611,13.571 C55.622,12.402 57.882,11.818 60.391,11.818 C62.901,11.818 65.152,12.402 67.146,13.571 C69.14,14.74 70.704,16.364 71.838,18.444 C72.973,20.523 73.54,22.904 73.54,25.585 L73.488,26.72 Z M60.391,14.963 C57.779,14.963 55.587,15.797 53.817,17.464 C52.046,19.131 51.041,21.305 50.8,23.987 L70.034,23.987 C69.793,21.305 68.787,19.131 67.017,17.464 C65.247,15.797 63.038,14.963 60.391,14.963 L60.391,14.963 Z" id="Fill-40"></path>
                    <path d="M94.99,11.818 C97.534,11.818 99.837,12.393 101.9,13.545 C103.963,14.697 105.578,16.321 106.747,18.418 C107.916,20.515 108.5,22.904 108.5,25.585 C108.5,28.266 107.916,30.656 106.747,32.753 C105.578,34.849 103.963,36.482 101.9,37.651 C99.837,38.82 97.534,39.404 94.99,39.404 C92.722,39.404 90.685,38.923 88.88,37.96 C87.075,36.998 85.623,35.606 84.523,33.784 L84.523,39.146 L81.017,39.146 L81.017,0.886 L84.678,0.886 L84.678,17.18 C85.812,15.427 87.264,14.095 89.035,13.184 C90.805,12.273 92.79,11.818 94.99,11.818 Z M94.733,36.156 C96.623,36.156 98.342,35.717 99.889,34.841 C101.436,33.964 102.648,32.718 103.524,31.102 C104.401,29.487 104.839,27.648 104.839,25.585 C104.839,23.523 104.401,21.684 103.524,20.068 C102.648,18.452 101.436,17.206 99.889,16.329 C98.342,15.453 96.623,15.015 94.733,15.015 C92.808,15.015 91.08,15.453 89.55,16.329 C88.021,17.206 86.818,18.452 85.941,20.068 C85.064,21.684 84.626,23.523 84.626,25.585 C84.626,27.648 85.064,29.487 85.941,31.102 C86.818,32.718 88.021,33.964 89.55,34.841 C91.08,35.717 92.808,36.156 94.733,36.156 L94.733,36.156 Z" id="Fill-41"></path>
                    <path d="M154.237,0.886 L154.237,39.146 L150.731,39.146 L150.731,33.784 C149.631,35.606 148.178,36.998 146.374,37.96 C144.569,38.923 142.532,39.404 140.263,39.404 C137.72,39.404 135.416,38.82 133.354,37.651 C131.291,36.482 129.676,34.849 128.507,32.753 C127.338,30.656 126.754,28.266 126.754,25.585 C126.754,22.904 127.338,20.515 128.507,18.418 C129.676,16.321 131.291,14.697 133.354,13.545 C135.416,12.393 137.72,11.818 140.263,11.818 C142.463,11.818 144.449,12.273 146.219,13.184 C147.989,14.095 149.442,15.427 150.576,17.18 L150.576,0.886 L154.237,0.886 Z M140.573,36.156 C142.463,36.156 144.174,35.717 145.703,34.841 C147.233,33.964 148.436,32.718 149.313,31.102 C150.189,29.487 150.628,27.648 150.628,25.585 C150.628,23.523 150.189,21.684 149.313,20.068 C148.436,18.452 147.233,17.206 145.703,16.329 C144.174,15.453 142.463,15.015 140.573,15.015 C138.648,15.015 136.92,15.453 135.391,16.329 C133.861,17.206 132.658,18.452 131.781,20.068 C130.905,21.684 130.466,23.523 130.466,25.585 C130.466,27.648 130.905,29.487 131.781,31.102 C132.658,32.718 133.861,33.964 135.391,34.841 C136.92,35.717 138.648,36.156 140.573,36.156 L140.573,36.156 Z" id="Fill-42"></path>
                    <path d="M188.063,26.72 L165.375,26.72 C165.581,29.538 166.664,31.816 168.623,33.552 C170.583,35.288 173.058,36.156 176.049,36.156 C177.733,36.156 179.28,35.855 180.689,35.253 C182.099,34.652 183.319,33.767 184.35,32.598 L186.413,34.97 C185.21,36.414 183.706,37.514 181.901,38.27 C180.096,39.026 178.111,39.404 175.945,39.404 C173.161,39.404 170.695,38.811 168.546,37.625 C166.398,36.439 164.722,34.798 163.519,32.701 C162.315,30.604 161.714,28.232 161.714,25.585 C161.714,22.938 162.29,20.566 163.441,18.469 C164.593,16.372 166.174,14.74 168.185,13.571 C170.196,12.402 172.456,11.818 174.966,11.818 C177.475,11.818 179.727,12.402 181.721,13.571 C183.714,14.74 185.278,16.364 186.413,18.444 C187.547,20.523 188.114,22.904 188.114,25.585 L188.063,26.72 Z M174.966,14.963 C172.353,14.963 170.162,15.797 168.391,17.464 C166.621,19.131 165.616,21.305 165.375,23.987 L184.608,23.987 C184.368,21.305 183.362,19.131 181.592,17.464 C179.821,15.797 177.613,14.963 174.966,14.963 L174.966,14.963 Z" id="Fill-43"></path>
                    <polyline id="Fill-44" points="217.867 12.024 205.801 39.146 202.037 39.146 190.022 12.024 193.838 12.024 203.996 35.124 214.257 12.024 217.867 12.024"></polyline>
                    <path d="M245.866,26.72 L223.178,26.72 C223.384,29.538 224.467,31.816 226.426,33.552 C228.386,35.288 230.861,36.156 233.852,36.156 C235.536,36.156 237.083,35.855 238.492,35.253 C239.902,34.652 241.122,33.767 242.153,32.598 L244.216,34.97 C243.013,36.414 241.509,37.514 239.704,38.27 C237.899,39.026 235.914,39.404 233.748,39.404 C230.964,39.404 228.497,38.811 226.349,37.625 C224.2,36.439 222.525,34.798 221.322,32.701 C220.118,30.604 219.517,28.232 219.517,25.585 C219.517,22.938 220.093,20.566 221.244,18.469 C222.396,16.372 223.977,14.74 225.988,13.571 C227.999,12.402 230.259,11.818 232.769,11.818 C235.278,11.818 237.53,12.402 239.524,13.571 C241.517,14.74 243.081,16.364 244.216,18.444 C245.35,20.523 245.917,22.904 245.917,25.585 L245.866,26.72 Z M232.769,14.963 C230.156,14.963 227.965,15.797 226.194,17.464 C224.424,19.131 223.418,21.305 223.178,23.987 L242.411,23.987 C242.17,21.305 241.165,19.131 239.395,17.464 C237.624,15.797 235.416,14.963 232.769,14.963 L232.769,14.963 Z" id="Fill-45"></path>
                    <polygon id="Fill-46" points="253.394 39.146 257.055 39.146 257.055 0.886 253.394 0.886"></polygon>
                    <path d="M278.351,39.404 C275.738,39.404 273.384,38.811 271.287,37.625 C269.19,36.439 267.54,34.798 266.337,32.701 C265.133,30.604 264.532,28.232 264.532,25.585 C264.532,22.938 265.133,20.566 266.337,18.469 C267.54,16.372 269.19,14.74 271.287,13.571 C273.384,12.402 275.738,11.818 278.351,11.818 C280.964,11.818 283.318,12.402 285.415,13.571 C287.512,14.74 289.154,16.372 290.34,18.469 C291.526,20.566 292.118,22.938 292.118,25.585 C292.118,28.232 291.526,30.604 290.34,32.701 C289.154,34.798 287.512,36.439 285.415,37.625 C283.318,38.811 280.964,39.404 278.351,39.404 Z M278.351,36.156 C280.276,36.156 282.003,35.717 283.533,34.841 C285.063,33.964 286.257,32.718 287.117,31.102 C287.976,29.487 288.406,27.648 288.406,25.585 C288.406,23.523 287.976,21.684 287.117,20.068 C286.257,18.452 285.063,17.206 283.533,16.329 C282.003,15.453 280.276,15.015 278.351,15.015 C276.426,15.015 274.699,15.453 273.169,16.329 C271.639,17.206 270.436,18.452 269.559,20.068 C268.683,21.684 268.244,23.523 268.244,25.585 C268.244,27.648 268.683,29.487 269.559,31.102 C270.436,32.718 271.639,33.964 273.169,34.841 C274.699,35.717 276.426,36.156 278.351,36.156 L278.351,36.156 Z" id="Fill-47"></path>
                    <path d="M313.569,11.818 C316.113,11.818 318.416,12.393 320.479,13.545 C322.541,14.697 324.157,16.321 325.326,18.418 C326.494,20.515 327.079,22.904 327.079,25.585 C327.079,28.301 326.494,30.707 325.326,32.804 C324.157,34.901 322.55,36.525 320.504,37.677 C318.459,38.828 316.147,39.404 313.569,39.404 C311.369,39.404 309.384,38.949 307.613,38.038 C305.843,37.127 304.391,35.795 303.256,34.042 L303.256,49.15 L299.595,49.15 L299.595,12.024 L303.102,12.024 L303.102,17.387 C304.202,15.599 305.654,14.224 307.459,13.261 C309.263,12.299 311.3,11.818 313.569,11.818 Z M313.311,36.156 C315.202,36.156 316.921,35.717 318.468,34.841 C320.014,33.964 321.226,32.718 322.103,31.102 C322.979,29.487 323.418,27.648 323.418,25.585 C323.418,23.523 322.979,21.692 322.103,20.094 C321.226,18.495 320.014,17.249 318.468,16.355 C316.921,15.461 315.202,15.015 313.311,15.015 C311.386,15.015 309.659,15.461 308.129,16.355 C306.599,17.249 305.396,18.495 304.52,20.094 C303.643,21.692 303.205,23.523 303.205,25.585 C303.205,27.648 303.643,29.487 304.52,31.102 C305.396,32.718 306.599,33.964 308.129,34.841 C309.659,35.717 311.386,36.156 313.311,36.156 L313.311,36.156 Z" id="Fill-48"></path>
                    <path d="M358.172,26.72 L335.484,26.72 C335.69,29.538 336.773,31.816 338.732,33.552 C340.691,35.288 343.167,36.156 346.157,36.156 C347.842,36.156 349.389,35.855 350.798,35.253 C352.207,34.652 353.428,33.767 354.459,32.598 L356.522,34.97 C355.318,36.414 353.814,37.514 352.01,38.27 C350.205,39.026 348.22,39.404 346.054,39.404 C343.27,39.404 340.803,38.811 338.655,37.625 C336.506,36.439 334.83,34.798 333.627,32.701 C332.424,30.604 331.823,28.232 331.823,25.585 C331.823,22.938 332.398,20.566 333.55,18.469 C334.702,16.372 336.283,14.74 338.294,13.571 C340.305,12.402 342.565,11.818 345.074,11.818 C347.584,11.818 349.835,12.402 351.829,13.571 C353.823,14.74 355.387,16.364 356.522,18.444 C357.656,20.523 358.223,22.904 358.223,25.585 L358.172,26.72 Z M345.074,14.963 C342.462,14.963 340.27,15.797 338.5,17.464 C336.73,19.131 335.724,21.305 335.484,23.987 L354.717,23.987 C354.476,21.305 353.471,19.131 351.7,17.464 C349.93,15.797 347.721,14.963 345.074,14.963 L345.074,14.963 Z" id="Fill-49"></path>
                    <path d="M369.206,17.335 C370.066,15.513 371.346,14.138 373.048,13.21 C374.749,12.282 376.855,11.818 379.364,11.818 L379.364,15.376 L378.488,15.324 C375.634,15.324 373.4,16.201 371.784,17.954 C370.169,19.707 369.361,22.165 369.361,25.327 L369.361,39.146 L365.7,39.146 L365.7,12.024 L369.206,12.024 L369.206,17.335" id="Fill-50"></path>
                </g>
            </g>
        </g>
    </g>
</svg>