<?xml version="1.0" encoding="UTF-8"?>
<svg width="80px" height="80px" viewBox="0 0 80 80" version="1.1" xmlns="http://www.w3.org/2000/svg" xmlns:xlink="http://www.w3.org/1999/xlink">
    <!-- Generator: Sketch 43.1 (39012) - http://www.bohemiancoding.com/sketch -->
    <title>Slice 1</title>
    <desc>Created with Sketch.</desc>
    <defs></defs>
    <g id="Page-1" stroke="none" stroke-width="1" fill="none" fill-rule="evenodd">
        <g id="customize_pink" fill-rule="nonzero" fill="#266DD3">
            <path d="M76.139,30.691 L68.044,29.516 C67.768,28.754 67.505,28.01 67.18,27.297 L72.167,20.675 C73.573,18.793 73.29,16.022 71.494,14.227 L65.648,8.373 C64.642,7.366 63.29,6.795 61.933,6.795 C60.927,6.795 59.986,7.115 59.203,7.699 L52.588,12.669 C51.859,12.332 51.116,12.064 50.368,11.786 L49.189,3.802 C48.85,1.447 46.68,0 44.141,0 L35.861,0 C33.322,0 31.152,1.447 30.813,3.803 L29.633,11.763 C28.885,12.042 28.138,12.314 27.407,12.655 L20.796,7.695 C20.014,7.111 19.069,6.792 18.065,6.792 C16.706,6.792 15.349,7.363 14.343,8.372 L8.487,14.224 C6.688,16.024 6.387,18.796 7.794,20.676 L12.734,27.293 C12.397,28.021 12.069,28.766 11.793,29.518 L3.865,30.693 C1.567,31.023 0,33.147 0,35.741 L0,44.017 C0,46.611 1.565,48.736 3.862,49.068 L11.959,50.244 C12.235,51.007 12.497,51.751 12.822,52.463 L7.835,59.085 C6.428,60.968 6.711,63.739 8.507,65.534 L14.353,71.388 C15.358,72.396 16.709,72.97 18.066,72.97 C19.072,72.97 20.017,72.657 20.799,72.074 L27.413,67.12 C28.141,67.457 28.886,67.755 29.634,68.033 L30.814,76.076 C31.152,78.432 33.322,80 35.861,80 L44.141,80 C46.68,80 48.85,78.434 49.19,76.076 L50.37,67.997 C51.112,67.721 51.858,67.449 52.597,67.105 L59.208,72.064 C59.987,72.648 60.933,72.967 61.938,72.967 C63.296,72.967 64.655,72.396 65.662,71.388 L71.516,65.535 C73.315,63.735 73.616,60.965 72.21,59.082 L67.27,52.467 C67.61,51.734 67.936,50.988 68.211,50.242 L76.141,49.067 C78.436,48.736 80,46.611 80,44.02 L80,35.743 C80,33.147 78.436,31.023 76.139,30.691 Z M63.882,47.236 C63.427,48.715 62.822,50.171 62.086,51.56 L61.337,52.967 L68.02,61.892 C68.003,61.917 67.983,61.948 67.952,61.978 L62.098,67.834 C62.071,67.862 62.042,67.886 62.018,67.901 L53.089,61.235 L51.682,61.985 C50.248,62.746 48.794,63.363 47.356,63.805 L45.833,64.293 L44.236,75.68 C44.211,75.688 44.18,76 44.141,76 L35.861,76 C35.825,76 35.794,75.687 35.768,75.682 L34.172,64.382 L32.646,63.819 C31.172,63.368 29.718,62.733 28.322,61.995 L26.913,61.231 L17.972,67.895 C17.951,67.88 17.929,67.858 17.906,67.835 L12.054,61.979 C12.028,61.954 12.005,61.925 11.989,61.903 L18.681,52.971 L17.921,51.559 C17.218,50.235 16.617,48.821 16.13,47.235 L15.616,45.714 L4.423,44.14 C4.419,44.104 4,44.063 4,44.02 L4,35.743 C4,35.698 4.419,35.658 4.424,35.623 L15.536,34.048 L16.062,32.527 C16.518,31.045 17.152,29.589 17.887,28.202 L18.649,26.794 L11.975,17.868 C11.991,17.843 12.016,17.814 12.047,17.783 L17.901,11.929 C17.929,11.901 17.959,11.88 17.984,11.863 L26.913,18.534 L28.322,17.79 C29.758,17.028 31.212,16.427 32.646,15.986 L34.17,15.529 L35.765,4.2 C35.79,4.193 35.823,4 35.861,4 L44.141,4 C44.178,4 44.209,4.191 44.235,4.198 L45.832,15.412 L47.356,15.94 C48.842,16.397 50.296,17.032 51.68,17.767 L53.089,18.528 L62.029,11.863 C62.049,11.879 62.072,11.9 62.095,11.924 L67.945,17.778 C67.972,17.805 67.996,17.833 68.011,17.856 L61.322,26.788 L62.08,28.199 C62.773,29.51 63.393,30.964 63.871,32.524 L64.387,34.045 L75.576,35.62 C75.581,35.656 76,35.696 76,35.741 L76,44.017 C76,44.064 75.581,44.103 75.576,44.138 L64.465,45.712 L63.882,47.236 Z" id="Shape"></path>
            <path d="M40.001,56.971 C30.391,56.971 22.573,49.151 22.573,39.541 C22.573,29.931 30.391,22.112 40.001,22.112 C49.609,22.112 57.43,29.93 57.43,39.541 C57.43,49.15 49.609,56.971 40.001,56.971 Z M40.001,26.187 C32.638,26.187 26.647,32.178 26.647,39.541 C26.647,46.904 32.638,52.895 40.001,52.895 C47.363,52.895 53.355,46.907 53.355,39.541 C53.354,32.178 47.363,26.187 40.001,26.187 Z" id="Shape"></path>
        </g>
    </g>
</svg>