<?xml version="1.0" encoding="UTF-8"?>
<svg width="1536px" height="1792px" viewBox="0 0 1536 1792" version="1.1" xmlns="http://www.w3.org/2000/svg" xmlns:xlink="http://www.w3.org/1999/xlink">
    <!-- Generator: Sketch 43.1 (39012) - http://www.bohemiancoding.com/sketch -->
    <title>Slice 1</title>
    <desc>Created with Sketch.</desc>
    <defs></defs>
    <g id="Page-1" stroke="none" stroke-width="1" fill="none" fill-rule="evenodd">
        <g id="database_pink" fill-rule="nonzero" fill="#266DD3">
            <path d="M768,768 C926,768 1073.66667,753.666667 1211,725 C1348.33333,696.333333 1456.66667,654 1536,598 L1536,768 C1536,814 1501.66667,856.666667 1433,896 C1364.33333,935.333333 1271,966.5 1153,989.5 C1035,1012.5 906.666667,1024 768,1024 C629.333333,1024 501,1012.5 383,989.5 C265,966.5 171.666667,935.333333 103,896 C34.3333333,856.666667 0,814 0,768 L0,598 C79.3333333,654 187.666667,696.333333 325,725 C462.333333,753.666667 610,768 768,768 Z M768,1536 C926,1536 1073.66667,1521.66667 1211,1493 C1348.33333,1464.33333 1456.66667,1422 1536,1366 L1536,1536 C1536,1582 1501.66667,1624.66667 1433,1664 C1364.33333,1703.33333 1271,1734.5 1153,1757.5 C1035,1780.5 906.666667,1792 768,1792 C629.333333,1792 501,1780.5 383,1757.5 C265,1734.5 171.666667,1703.33333 103,1664 C34.3333333,1624.66667 0,1582 0,1536 L0,1366 C79.3333333,1422 187.666667,1464.33333 325,1493 C462.333333,1521.66667 610,1536 768,1536 Z M768,1152 C926,1152 1073.66667,1137.66667 1211,1109 C1348.33333,1080.33333 1456.66667,1038 1536,982 L1536,1152 C1536,1198 1501.66667,1240.66667 1433,1280 C1364.33333,1319.33333 1271,1350.5 1153,1373.5 C1035,1396.5 906.666667,1408 768,1408 C629.333333,1408 501,1396.5 383,1373.5 C265,1350.5 171.666667,1319.33333 103,1280 C34.3333333,1240.66667 0,1198 0,1152 L0,982 C79.3333333,1038 187.666667,1080.33333 325,1109 C462.333333,1137.66667 610,1152 768,1152 Z M768,0 C906.666667,0 1035,11.5 1153,34.5 C1271,57.5 1364.33333,88.6666667 1433,128 C1501.66667,167.333333 1536,210 1536,256 L1536,384 C1536,430 1501.66667,472.666667 1433,512 C1364.33333,551.333333 1271,582.5 1153,605.5 C1035,628.5 906.666667,640 768,640 C629.333333,640 501,628.5 383,605.5 C265,582.5 171.666667,551.333333 103,512 C34.3333333,472.666667 0,430 0,384 L0,256 C0,210 34.3333333,167.333333 103,128 C171.666667,88.6666667 265,57.5 383,34.5 C501,11.5 629.333333,0 768,0 Z" id="Shape"></path>
        </g>
    </g>
</svg>