<?xml version="1.0" encoding="UTF-8"?>
<svg width="100px" height="168px" viewBox="0 0 100 168" version="1.1" xmlns="http://www.w3.org/2000/svg" xmlns:xlink="http://www.w3.org/1999/xlink">
    <!-- Generator: Sketch 43.1 (39012) - http://www.bohemiancoding.com/sketch -->
    <title>Slice 1</title>
    <desc>Created with Sketch.</desc>
    <defs>
        <path d="M86,0 L10,0 C4.5,0 0,4.5 0,10 L0,154 C0,159.5 4.5,164 10,164 L86,164 C91.5,164 96,159.5 96,154 L96,10 C96,4.5 91.5,0 86,0 Z M94,154 C94,158.4 90.4,162 86,162 L10,162 C5.6,162 2,158.4 2,154 L2,10 C2,5.6 5.6,2 10,2 L86,2 C90.4,2 94,5.6 94,10 L94,154 Z" id="path-1"></path>
    </defs>
    <g id="Page-1" stroke="none" stroke-width="1" fill="none" fill-rule="evenodd">
        <g id="responsive_pink" transform="translate(2.000000, 2.000000)" fill-rule="nonzero">
            <g id="Shape">
                <use fill="#266DD3" fill-rule="evenodd" xlink:href="#path-1"></use>
                <path stroke="#266DD3" stroke-width="2" d="M86,-1 L10,-1 C3.94771525,-1 -1,3.94771525 -1,10 L-1,154 C-1,160.052285 3.94771525,165 10,165 L86,165 C92.0522847,165 97,160.052285 97,154 L97,10 C97,3.94771525 92.0522847,-1 86,-1 Z M93,154 C93,157.847715 89.8477153,161 86,161 L10,161 C6.15228475,161 3,157.847715 3,154 L3,10 C3,6.15228475 6.15228475,3 10,3 L86,3 C89.8477153,3 93,6.15228475 93,10 L93,154 Z"></path>
            </g>
            <path d="M48,148.4 C44.8,148.4 42.2,151 42.2,154.2 C42.2,157.4 44.8,160 48,160 C51.2,160 53.8,157.4 53.8,154.2 C53.8,151 51.2,148.4 48,148.4 Z M48,158 C45.9,158 44.2,156.3 44.2,154.2 C44.2,152.1 45.9,150.4 48,150.4 C50.1,150.4 51.8,152.1 51.8,154.2 C51.8,156.3 50.1,158 48,158 Z" id="Shape" fill="#266DD3"></path>
            <path d="M36.4,10 L59.6,10 C61,10 62.1,8.9 62.1,7.5 C62.1,6.1 61,5 59.6,5 L36.4,5 C35,5 33.9,6.1 33.9,7.5 C33.9,8.9 35,10 36.4,10 Z M36.4,7 L59.6,7 C59.9,7 60.1,7.2 60.1,7.5 C60.1,7.8 59.9,8 59.6,8 L36.4,8 C36.1,8 35.9,7.8 35.9,7.5 C35.9,7.2 36.1,7 36.4,7 Z" id="Shape" fill="#266DD3"></path>
            <path d="M46,81 C46,81.6 46.4,82 47,82 L78,82 C78.6,82 79,81.6 79,81 C79,80.4 78.6,80 78,80 L47,80 C46.4,80 46,80.4 46,81 Z" id="Shape" fill="#266DD3"></path>
            <path d="M78,87 L47,87 C46.4,87 46,87.4 46,88 C46,88.6 46.4,89 47,89 L78,89 C78.6,89 79,88.6 79,88 C79,87.4 78.6,87 78,87 Z" id="Shape" fill="#266DD3"></path>
            <path d="M78,93 L47,93 C46.4,93 46,93.4 46,94 C46,94.6 46.4,95 47,95 L78,95 C78.6,95 79,94.6 79,94 C79,93.4 78.6,93 78,93 Z" id="Shape" fill="#266DD3"></path>
            <path d="M89,12 L7,12 L7,52.4 C7,52.6 6.8,52.8 6.8,53 C6.8,53.2 7,53.5 7,53.6 L7,146 L18.5,146 C18.6,146 18.8,146.2 19,146.2 C19.2,146.2 19.3,146 19.5,146 L38.5,146 C38.6,146 38.8,146.2 39,146.2 C39.2,146.2 39.3,146 39.5,146 L89,146 L89,53.6 C89,53.4 89.2,53.2 89.2,53 C89.2,52.8 89,52.5 89,52.4 L89,12 Z M38,144 L20,144 L20,131 L38,131 L38,144 Z M87,144 L40,144 L40,129 L18,129 L18,144 L9,144 L9,54 L33.9,54 C34.4,61.6 40.7,67.5 48.4,67.5 C56.1,67.5 62.4,61.5 62.9,54 L86.9,54 L86.9,144 L87,144 Z M61,53.1 C61,55.9 60,58.4 58.5,60.5 C57.4,57.3 54.8,54.9 51.7,53.9 C52.9,52.9 53.7,51.5 53.7,49.8 C53.7,46.9 51.4,44.6 48.5,44.6 C45.6,44.6 43.3,46.9 43.3,49.8 C43.3,51.4 44.1,52.9 45.3,53.9 C42.1,54.9 39.6,57.4 38.5,60.5 C37,58.5 36.1,56.1 36,53.4 L36,53 C36,52.8 36,52.7 35.9,52.6 C36.1,45.8 41.7,40.4 48.5,40.4 C55.4,40.4 61,46 61.1,52.9 L61.1,53 C61,53 61,53.1 61,53.1 Z M48.4,55.4 C52.5,55.4 56,58.3 56.8,62.2 C54.6,64.2 51.6,65.5 48.4,65.5 C45.2,65.5 42.2,64.2 40,62.2 C40.8,58.3 44.4,55.4 48.4,55.4 Z M45.3,49.9 C45.3,48.1 46.7,46.7 48.5,46.7 C50.3,46.7 51.7,48.1 51.7,49.9 C51.7,51.7 50.3,53.1 48.5,53.1 C46.7,53.1 45.3,51.6 45.3,49.9 Z M87,52 L63,52 C62.5,44.4 56.2,38.4 48.5,38.4 C40.8,38.4 34.5,44.4 34,52 L9,52 L9,14 L87,14 L87,52 Z" id="Shape" fill="#266DD3"></path>
            <path d="M18,98 L40,98 L40,78 L18,78 L18,98 Z M20,80 L38,80 L38,96 L20,96 L20,80 Z" id="Shape" fill="#266DD3"></path>
            <path d="M78,105 L47,105 C46.4,105 46,105.4 46,106 C46,106.6 46.4,107 47,107 L78,107 C78.6,107 79,106.6 79,106 C79,105.4 78.6,105 78,105 Z" id="Shape" fill="#266DD3"></path>
            <path d="M78,112 L47,112 C46.4,112 46,112.4 46,113 C46,113.6 46.4,114 47,114 L78,114 C78.6,114 79,113.6 79,113 C79,112.4 78.6,112 78,112 Z" id="Shape" fill="#266DD3"></path>
            <path d="M78,118 L47,118 C46.4,118 46,118.4 46,119 C46,119.6 46.4,120 47,120 L78,120 C78.6,120 79,119.6 79,119 C79,118.4 78.6,118 78,118 Z" id="Shape" fill="#266DD3"></path>
            <path d="M18,123 L40,123 L40,103 L18,103 L18,123 Z M20,105 L38,105 L38,121 L20,121 L20,105 Z" id="Shape" fill="#266DD3"></path>
            <path d="M78,131 L47,131 C46.4,131 46,131.4 46,132 C46,132.6 46.4,133 47,133 L78,133 C78.6,133 79,132.6 79,132 C79,131.4 78.6,131 78,131 Z" id="Shape" fill="#266DD3"></path>
            <path d="M78,138 L47,138 C46.4,138 46,138.4 46,139 C46,139.6 46.4,140 47,140 L78,140 C78.6,140 79,139.6 79,139 C79,138.4 78.6,138 78,138 Z" id="Shape" fill="#266DD3"></path>
        </g>
    </g>
</svg>