<?xml version="1.0" encoding="UTF-8"?>
<svg width="24px" height="22px" viewBox="0 0 24 22" version="1.1" xmlns="http://www.w3.org/2000/svg" xmlns:xlink="http://www.w3.org/1999/xlink">
    <!-- Generator: Sketch 43.1 (39012) - http://www.bohemiancoding.com/sketch -->
    <title>Slice 1</title>
    <desc>Created with Sketch.</desc>
    <defs></defs>
    <g id="Page-1" stroke="none" stroke-width="1" fill="none" fill-rule="evenodd">
        <g id="server_pink" fill-rule="nonzero" fill="#266DD3">
            <path d="M23,0 L14,0 C13.4,0 13,0.4 13,1 L13,2 L1,2 C0.4,2 0,2.2 0,2.8 L0,15.8 C0,16.3 0.4,17 1,17 L9,17 L9,19 L6,19 C5.4,19 5,19.2 5,19.8 L5,22 L22,22 C23.6,22 24,21.6 24,21 L24,1 C24,0.4 23.6,0 23,0 Z M13,21 L6,21 L6,20 L13,20 L13,21 Z M13,19 L11,19 L11,17 L13,17 L13,19 Z M13,15 L2,15 L2,14 L13,14 L13,15 Z M13,13 L2,13 L2,4 L13,4 L13,13 Z M22,20 L15,20 L15,2 L22,2 L22,20 Z" id="Shape"></path>
            <rect id="Rectangle-path" x="16" y="4" width="5" height="1"></rect>
            <rect id="Rectangle-path" x="16" y="6" width="5" height="1"></rect>
            <rect id="Rectangle-path" x="16" y="8" width="5" height="1"></rect>
            <circle id="Oval" cx="18.5" cy="17.5" r="1"></circle>
        </g>
    </g>
</svg>